<?xml version="1.0" encoding="UTF-8"?>
<!DOCTYPE svg PUBLIC "-//W3C//DTD SVG 1.1//EN" "http://www.w3.org/Graphics/SVG/1.1/DTD/svg11.dtd">
<svg xmlns="http://www.w3.org/2000/svg" version="1.1" width="500px" height="500px" style="shape-rendering:geometricPrecision; text-rendering:geometricPrecision; image-rendering:optimizeQuality; fill-rule:evenodd; clip-rule:evenodd" xmlns:xlink="http://www.w3.org/1999/xlink">
<g><path style="opacity:0.861" fill="#010101" d="M 329.5,38.5 C 363.807,37.7522 393.307,49.0855 418,72.5C 418.684,73.7839 418.517,74.9505 417.5,76C 415.365,76.6347 413.365,76.3014 411.5,75C 374.921,44.6785 334.588,38.6785 290.5,57C 262.524,70.4121 238.024,88.5787 217,111.5C 158.259,177.647 119.592,254.313 101,341.5C 98.142,345.405 95.4753,345.405 93,341.5C 92.1493,309.625 89.1493,277.958 84,246.5C 83.258,243.343 81.758,240.677 79.5,238.5C 78.5224,238.977 77.6891,239.643 77,240.5C 74.6667,245.833 72.3333,251.167 70,256.5C 63.6629,276.178 57.3296,295.844 51,315.5C 48.3526,319.763 45.0193,320.43 41,317.5C 39.2231,310.961 38.2231,304.294 38,297.5C 36.1335,258.84 34.8002,220.173 34,181.5C 35.7328,179.398 37.7328,179.065 40,180.5C 40.3333,183.5 40.6667,186.5 41,189.5C 43.2353,227.55 45.2353,265.55 47,303.5C 52.9344,284.363 59.2678,265.363 66,246.5C 67.746,242.673 69.746,239.007 72,235.5C 76.6437,230.57 81.6437,229.903 87,233.5C 89.434,236.795 91.1007,240.462 92,244.5C 95.3248,265.081 97.9915,285.748 100,306.5C 123.411,220.805 166.911,147.305 230.5,86C 253.388,65.3838 279.721,50.7171 309.5,42C 316.257,40.5017 322.923,39.3351 329.5,38.5 Z"/></g>
<g><path style="opacity:0.873" fill="#000000" d="M 424.5,127.5 C 433.745,126.899 436.411,130.732 432.5,139C 424.243,141.96 420.743,139.127 422,130.5C 422.698,129.309 423.531,128.309 424.5,127.5 Z"/></g>
<g><path style="opacity:0.824" fill="#010101" d="M 219.5,184.5 C 222.532,184.178 224.199,185.511 224.5,188.5C 218.938,210.312 214.271,232.312 210.5,254.5C 210.302,260.065 212.636,261.565 217.5,259C 222.356,255.645 226.356,251.478 229.5,246.5C 223.973,234.185 227.973,228.685 241.5,230C 245.343,232.538 245.343,234.705 241.5,236.5C 239.833,235.833 238.167,235.167 236.5,234.5C 235.558,234.608 234.725,234.941 234,235.5C 233.431,240.369 235.097,244.369 239,247.5C 243.581,245.127 248.081,242.627 252.5,240C 253.786,237.978 254.786,235.811 255.5,233.5C 259.735,231.449 261.902,232.782 262,237.5C 266.83,232.161 272.664,230.494 279.5,232.5C 280.54,234.375 282.04,235.708 284,236.5C 287.207,235.264 290.374,233.931 293.5,232.5C 294.831,229.51 296.164,226.51 297.5,223.5C 300.257,222.134 302.423,222.801 304,225.5C 308.386,222.088 313.219,221.088 318.5,222.5C 320.934,228.044 319.267,231.377 313.5,232.5C 313.5,230.833 313.5,229.167 313.5,227.5C 308.768,228.71 304.934,231.377 302,235.5C 298.96,241.082 295.793,246.582 292.5,252C 290.359,252.884 288.693,252.384 287.5,250.5C 289.208,246.554 290.375,242.554 291,238.5C 284.667,240.833 280.333,245.167 278,251.5C 275.926,253.452 273.759,255.285 271.5,257C 266.001,259.384 260.501,261.551 255,263.5C 250.131,278.439 245.465,293.439 241,308.5C 239.627,312.627 237.461,313.294 234.5,310.5C 238.864,292.712 243.697,275.045 249,257.5C 250.324,253.554 250.991,249.554 251,245.5C 247.785,247.671 244.952,250.171 242.5,253C 243.971,256.109 245.305,259.276 246.5,262.5C 244.06,268.906 239.393,272.739 232.5,274C 228.121,275.822 223.787,275.822 219.5,274C 217.115,271.115 217.115,268.115 219.5,265C 215.688,266.306 211.688,266.639 207.5,266C 204.836,263.842 203.336,261.009 203,257.5C 198.905,264.262 193.072,268.762 185.5,271C 180.057,271.57 176.89,269.07 176,263.5C 167.972,273.44 157.806,276.94 145.5,274C 140.702,269.041 140.202,263.541 144,257.5C 149.356,249.899 156.523,246.899 165.5,248.5C 166.553,249.438 167.22,250.605 167.5,252C 166.924,255.07 165.591,257.737 163.5,260C 158.939,262.503 154.106,264.003 149,264.5C 148.785,268.128 150.619,270.128 154.5,270.5C 158.054,269.945 161.387,268.779 164.5,267C 168.702,263.133 172.535,258.967 176,254.5C 180.684,233.097 185.684,211.763 191,190.5C 193.961,188.048 196.128,188.715 197.5,192.5C 191.881,214.307 187.215,236.307 183.5,258.5C 183.667,260.167 183.833,261.833 184,263.5C 184.725,264.059 185.558,264.392 186.5,264.5C 193.344,261.495 198.844,256.828 203,250.5C 207.572,228.213 213.072,206.213 219.5,184.5 Z M 271.5,236.5 C 272.5,236.5 273.5,236.5 274.5,236.5C 274.66,238.199 274.494,239.866 274,241.5C 268.98,246.021 263.813,250.355 258.5,254.5C 258.167,254.333 257.833,254.167 257.5,254C 261.301,247.377 265.968,241.544 271.5,236.5 Z M 158.5,252.5 C 159.801,253.884 159.801,255.384 158.5,257C 156.305,258.373 153.971,258.706 151.5,258C 153.54,255.664 155.873,253.831 158.5,252.5 Z M 235.5,257.5 C 239.832,262.718 238.499,266.218 231.5,268C 229.099,269.039 226.766,269.206 224.5,268.5C 227.881,264.452 231.548,260.785 235.5,257.5 Z"/></g>
<g><path style="opacity:0.817" fill="#010101" d="M 406.5,202.5 C 408.167,202.5 409.833,202.5 411.5,202.5C 410.549,209.807 408.882,216.973 406.5,224C 406.833,224.5 407.167,225 407.5,225.5C 413.512,222.162 419.179,218.328 424.5,214C 426.65,212.589 428.984,211.755 431.5,211.5C 431.762,212.978 431.429,214.311 430.5,215.5C 421.859,221.641 413.359,227.974 405,234.5C 402.606,247.411 399.272,260.078 395,272.5C 385.572,291.956 370.406,298.456 349.5,292C 342.558,287.51 341.725,282.01 347,275.5C 351.806,270.694 356.64,265.86 361.5,261C 373.723,251.395 385.723,241.562 397.5,231.5C 397.167,231.167 396.833,230.833 396.5,230.5C 392.792,234.005 388.459,235.172 383.5,234C 382.382,232.926 381.382,231.76 380.5,230.5C 376.02,235.072 370.687,238.072 364.5,239.5C 362.076,239.852 360.576,238.852 360,236.5C 359.909,232.747 359.742,229.08 359.5,225.5C 353.36,230.629 348.026,236.462 343.5,243C 340.593,245.361 338.426,244.861 337,241.5C 331.652,246.634 325.652,247.967 319,245.5C 317.652,237.994 318.986,230.994 323,224.5C 324.699,223.594 326.533,223.261 328.5,223.5C 327.921,228.243 326.921,232.91 325.5,237.5C 325.833,238.5 326.167,239.5 326.5,240.5C 335.595,236.571 341.761,229.904 345,220.5C 346.396,218.473 348.062,218.14 350,219.5C 350.202,221.256 350.702,222.922 351.5,224.5C 354.147,221.843 357.147,219.677 360.5,218C 362.833,217.333 365.167,217.333 367.5,218C 368.165,222.824 368.499,227.658 368.5,232.5C 376.532,228.978 381.365,222.978 383,214.5C 385.618,209.884 389.451,206.717 394.5,205C 398.736,204.665 402.736,203.832 406.5,202.5 Z M 396.5,209.5 C 397.822,209.33 398.989,209.663 400,210.5C 400.144,218.544 396.644,224.544 389.5,228.5C 388.009,227.652 387.342,226.319 387.5,224.5C 388.493,218.2 391.493,213.2 396.5,209.5 Z M 392.5,241.5 C 393.5,241.5 394.5,241.5 395.5,241.5C 394.186,254.61 390.352,266.943 384,278.5C 375.923,287.765 366.09,290.265 354.5,286C 351.209,283.668 350.709,280.835 353,277.5C 356.131,273.367 359.631,269.534 363.5,266C 373.609,258.29 383.275,250.124 392.5,241.5 Z"/></g>
<g><path style="opacity:0.72" fill="#010101" d="M 329.5,205.5 C 331.144,205.286 332.644,205.62 334,206.5C 334.825,213.205 331.992,217.205 325.5,218.5C 325.629,213.781 326.962,209.448 329.5,205.5 Z"/></g>
<g><path style="opacity:0.408" fill="#0d0d0d" d="M 338.5,237.5 C 339.688,239.496 339.021,240.329 336.5,240C 337.381,239.292 338.047,238.458 338.5,237.5 Z"/></g>
<g><path style="opacity:0.804" fill="#020202" d="M 118.5,393.5 C 120.167,393.5 121.833,393.5 123.5,393.5C 123.179,401.945 123.845,410.279 125.5,418.5C 122.956,418.896 120.789,418.229 119,416.5C 118.5,408.841 118.334,401.174 118.5,393.5 Z"/></g>
<g><path style="opacity:0.724" fill="#010101" d="M 140.5,393.5 C 142.5,393.5 144.5,393.5 146.5,393.5C 146.336,396.187 146.503,398.854 147,401.5C 150.325,398.829 153.325,399.163 156,402.5C 157.25,407.42 157.75,412.42 157.5,417.5C 155.5,417.5 153.5,417.5 151.5,417.5C 151.666,413.486 151.499,409.486 151,405.5C 149.667,404.167 148.333,404.167 147,405.5C 146.501,409.486 146.334,413.486 146.5,417.5C 144.5,417.5 142.5,417.5 140.5,417.5C 140.5,409.5 140.5,401.5 140.5,393.5 Z"/></g>
<g><path style="opacity:0.794" fill="#010101" d="M 292.5,393.5 C 294.167,393.5 295.833,393.5 297.5,393.5C 297.5,401.5 297.5,409.5 297.5,417.5C 295.533,417.739 293.699,417.406 292,416.5C 287.585,419.55 283.918,418.883 281,414.5C 280.333,410.833 280.333,407.167 281,403.5C 284.207,399.64 287.874,398.973 292,401.5C 292.497,398.854 292.664,396.187 292.5,393.5 Z M 287.5,404.5 C 290.656,404.529 292.322,406.196 292.5,409.5C 291.538,413.275 289.371,414.275 286,412.5C 285.109,409.502 285.609,406.836 287.5,404.5 Z"/></g>
<g><path style="opacity:0.81" fill="#020202" d="M 329.5,393.5 C 332.722,393.108 335.722,393.608 338.5,395C 337.929,396.205 337.262,397.372 336.5,398.5C 335.264,397.754 333.93,397.421 332.5,397.5C 332.5,398.5 332.5,399.5 332.5,400.5C 334.167,400.5 335.833,400.5 337.5,400.5C 337.5,401.833 337.5,403.167 337.5,404.5C 335.833,404.5 334.167,404.5 332.5,404.5C 332.5,408.833 332.5,413.167 332.5,417.5C 330.833,417.5 329.167,417.5 327.5,417.5C 327.5,413.167 327.5,408.833 327.5,404.5C 326.5,404.5 325.5,404.5 324.5,404.5C 324.5,403.167 324.5,401.833 324.5,400.5C 326.942,400.881 327.609,400.214 326.5,398.5C 327.26,396.64 328.26,394.973 329.5,393.5 Z"/></g>
<g><path style="opacity:0.803" fill="#020202" d="M 57.5,394.5 C 59.5,394.5 61.5,394.5 63.5,394.5C 63.5,397.5 63.5,400.5 63.5,403.5C 66.5,403.5 69.5,403.5 72.5,403.5C 72.5,400.5 72.5,397.5 72.5,394.5C 74.1667,394.5 75.8333,394.5 77.5,394.5C 77.5,402.167 77.5,409.833 77.5,417.5C 75.8333,417.5 74.1667,417.5 72.5,417.5C 72.5,414.167 72.5,410.833 72.5,407.5C 69.5,407.5 66.5,407.5 63.5,407.5C 63.5,410.833 63.5,414.167 63.5,417.5C 61.5,417.5 59.5,417.5 57.5,417.5C 57.5,409.833 57.5,402.167 57.5,394.5 Z"/></g>
<g><path style="opacity:0.796" fill="#020202" d="M 234.5,394.5 C 237.119,394.232 239.619,394.565 242,395.5C 243.667,400.5 245.333,405.5 247,410.5C 248.667,405.5 250.333,400.5 252,395.5C 254.041,394.577 256.208,394.244 258.5,394.5C 258.5,402.167 258.5,409.833 258.5,417.5C 256.833,417.5 255.167,417.5 253.5,417.5C 253.665,413.818 253.499,410.152 253,406.5C 251.932,409.871 250.765,413.204 249.5,416.5C 247.647,417.76 245.814,417.76 244,416.5C 240.131,401.701 238.631,402.035 239.5,417.5C 237.833,417.5 236.167,417.5 234.5,417.5C 234.5,409.833 234.5,402.167 234.5,394.5 Z"/></g>
<g><path style="opacity:0.78" fill="#010101" d="M 376.5,394.5 C 378.527,394.338 380.527,394.505 382.5,395C 383.874,397.583 385.374,400.083 387,402.5C 388.697,400.301 390.197,397.968 391.5,395.5C 393.5,394.167 395.5,394.167 397.5,395.5C 395,399.833 392.5,404.167 390,408.5C 389.502,411.482 389.335,414.482 389.5,417.5C 387.833,417.5 386.167,417.5 384.5,417.5C 384.665,414.482 384.498,411.482 384,408.5C 381.22,403.938 378.72,399.272 376.5,394.5 Z"/></g>
<g><path style="opacity:0.784" fill="#020202" d="M 128.5,396.5 C 130.167,396.5 131.833,396.5 133.5,396.5C 133.5,397.833 133.5,399.167 133.5,400.5C 135.167,400.5 136.833,400.5 138.5,400.5C 138.5,401.833 138.5,403.167 138.5,404.5C 136.833,404.5 135.167,404.5 133.5,404.5C 133.5,407.5 133.5,410.5 133.5,413.5C 138.033,411.87 139.366,413.37 137.5,418C 134.044,419.123 131.21,418.29 129,415.5C 128.501,411.848 128.335,408.182 128.5,404.5C 127.5,404.5 126.5,404.5 125.5,404.5C 125.5,403.167 125.5,401.833 125.5,400.5C 126.5,400.5 127.5,400.5 128.5,400.5C 128.5,399.167 128.5,397.833 128.5,396.5 Z"/></g>
<g><path style="opacity:0.753" fill="#010101" d="M 88.5,399.5 C 95.5378,399.871 98.5378,403.537 97.5,410.5C 93.8183,410.335 90.1516,410.501 86.5,411C 87.459,412.464 88.7923,413.297 90.5,413.5C 93.3395,410.568 95.6728,410.901 97.5,414.5C 93.07,419.483 88.2366,419.816 83,415.5C 79.5794,408.05 81.4128,402.717 88.5,399.5 Z M 87.5,404.5 C 89.4286,404.231 91.0953,404.731 92.5,406C 91.6667,406.167 90.8333,406.333 90,406.5C 88.6244,406.316 87.7911,405.649 87.5,404.5 Z"/></g>
<g><path style="opacity:0.739" fill="#020202" d="M 105.5,399.5 C 108.199,399.466 110.699,400.133 113,401.5C 113.77,406.27 114.937,410.937 116.5,415.5C 115.107,419.15 112.94,419.484 110,416.5C 102.33,420.333 98.9968,417.999 100,409.5C 102.783,408.072 105.617,406.738 108.5,405.5C 106.276,404.22 104.276,404.553 102.5,406.5C 101.167,405.833 100.167,404.833 99.5,403.5C 101.219,401.648 103.219,400.314 105.5,399.5 Z M 108.5,409.5 C 109.465,410.721 109.298,412.054 108,413.5C 105.667,414.833 104.667,414.167 105,411.5C 106.302,410.915 107.469,410.249 108.5,409.5 Z"/></g>
<g><path style="opacity:0.747" fill="#020202" d="M 166.5,399.5 C 168.854,399.838 171.187,400.338 173.5,401C 176.361,403.647 175.861,405.48 172,406.5C 168.188,403.411 165.688,404.245 164.5,409C 166.244,414.232 168.744,414.732 172,410.5C 176.681,413.168 176.515,415.668 171.5,418C 162.171,419.002 158.338,414.835 160,405.5C 161.436,402.558 163.603,400.558 166.5,399.5 Z"/></g>
<g><path style="opacity:0.769" fill="#020202" d="M 183.5,399.5 C 186.374,399.623 188.874,400.623 191,402.5C 191.105,406.993 191.938,411.326 193.5,415.5C 192.107,419.15 189.94,419.484 187,416.5C 182.906,419.476 179.573,418.809 177,414.5C 176.08,411.692 176.913,409.525 179.5,408C 182.01,407.624 184.343,406.79 186.5,405.5C 183.57,405.096 180.737,405.096 178,405.5C 177.333,404.5 177.333,403.5 178,402.5C 179.719,401.131 181.552,400.131 183.5,399.5 Z M 183.5,410.5 C 187.157,410.974 187.324,412.307 184,414.5C 182.232,413.318 182.065,411.985 183.5,410.5 Z"/></g>
<g><path style="opacity:0.74" fill="#010101" d="M 215.5,399.5 C 222.464,399.805 225.464,403.472 224.5,410.5C 220.774,410.177 217.107,410.511 213.5,411.5C 215.705,414.053 218.038,414.053 220.5,411.5C 225.34,413.677 225.007,415.843 219.5,418C 209.159,418.309 205.659,413.476 209,403.5C 210.792,401.372 212.958,400.039 215.5,399.5 Z M 214.5,404.5 C 216.429,404.231 218.095,404.731 219.5,406C 217.5,406.667 215.5,406.667 213.5,406C 214.056,405.617 214.389,405.117 214.5,404.5 Z"/></g>
<g><path style="opacity:0.757" fill="#020202" d="M 268.5,399.5 C 271.505,399.253 274.005,400.253 276,402.5C 275.928,407.544 277.095,412.211 279.5,416.5C 277.167,419.167 274.833,419.167 272.5,416.5C 264.918,420.127 261.751,417.794 263,409.5C 265.686,407.946 268.519,406.612 271.5,405.5C 269.041,404.357 266.707,404.69 264.5,406.5C 262.73,405.18 262.397,403.68 263.5,402C 265.315,401.243 266.981,400.41 268.5,399.5 Z M 268.5,410.5 C 269.5,410.5 270.5,410.5 271.5,410.5C 271.539,412.359 270.706,413.692 269,414.5C 267.232,413.318 267.065,411.985 268.5,410.5 Z"/></g>
<g><path style="opacity:0.745" fill="#010101" d="M 307.5,399.5 C 314.538,399.871 317.538,403.537 316.5,410.5C 312.818,410.335 309.152,410.501 305.5,411C 306.459,412.464 307.792,413.297 309.5,413.5C 312.339,410.568 314.673,410.901 316.5,414.5C 312.07,419.483 307.237,419.816 302,415.5C 298.579,408.05 300.413,402.717 307.5,399.5 Z M 306.5,404.5 C 308.429,404.231 310.095,404.731 311.5,406C 310.667,406.167 309.833,406.333 309,406.5C 307.624,406.316 306.791,405.649 306.5,404.5 Z"/></g>
<g><path style="opacity:0.782" fill="#010101" d="M 344.5,399.5 C 354.753,400.668 357.753,406.001 353.5,415.5C 348.345,419.724 343.512,419.39 339,414.5C 338.333,411.167 338.333,407.833 339,404.5C 340.107,401.887 341.94,400.22 344.5,399.5 Z M 345.5,404.5 C 350.17,405.513 351.337,408.18 349,412.5C 345.553,414.353 343.72,413.353 343.5,409.5C 343.437,407.486 344.103,405.819 345.5,404.5 Z"/></g>
<g><path style="opacity:0.773" fill="#010101" d="M 404.5,399.5 C 414.753,400.668 417.753,406.001 413.5,415.5C 408.345,419.724 403.512,419.39 399,414.5C 398.333,411.167 398.333,407.833 399,404.5C 400.107,401.887 401.94,400.22 404.5,399.5 Z M 405.5,404.5 C 410.17,405.513 411.337,408.18 409,412.5C 405.553,414.353 403.72,413.353 403.5,409.5C 403.437,407.486 404.103,405.819 405.5,404.5 Z"/></g>
<g><path style="opacity:0.786" fill="#020202" d="M 195.5,400.5 C 199.433,400.961 203.433,401.294 207.5,401.5C 207.023,402.931 206.357,404.264 205.5,405.5C 203.815,404.491 202.482,404.991 201.5,407C 200.618,410.441 200.284,413.941 200.5,417.5C 198.833,417.5 197.167,417.5 195.5,417.5C 195.5,411.833 195.5,406.167 195.5,400.5 Z"/></g>
<g><path style="opacity:0.816" fill="#020202" d="M 358.5,400.5 C 362.167,401.833 365.833,401.833 369.5,400.5C 369.785,402.288 369.452,403.955 368.5,405.5C 366.53,404.557 365.03,405.224 364,407.5C 363.502,410.817 363.335,414.15 363.5,417.5C 361.833,417.5 360.167,417.5 358.5,417.5C 358.5,411.833 358.5,406.167 358.5,400.5 Z"/></g>
<g><path style="opacity:0.753" fill="#010101" d="M 418.5,400.5 C 420.167,400.5 421.833,400.5 423.5,400.5C 423.5,404.833 423.5,409.167 423.5,413.5C 425.144,413.714 426.644,413.38 428,412.5C 428.499,408.514 428.666,404.514 428.5,400.5C 430.5,400.5 432.5,400.5 434.5,400.5C 434.5,406.167 434.5,411.833 434.5,417.5C 430.958,417.38 427.458,417.714 424,418.5C 422.188,418.507 420.688,417.84 419.5,416.5C 418.549,411.23 418.215,405.897 418.5,400.5 Z"/></g>
</svg>
