<?xml version="1.0" encoding="UTF-8"?>
<!DOCTYPE svg PUBLIC "-//W3C//DTD SVG 1.1//EN" "http://www.w3.org/Graphics/SVG/1.1/DTD/svg11.dtd">
<svg xmlns="http://www.w3.org/2000/svg" version="1.1" width="500px" height="500px" style="shape-rendering:geometricPrecision; text-rendering:geometricPrecision; image-rendering:optimizeQuality; fill-rule:evenodd; clip-rule:evenodd" xmlns:xlink="http://www.w3.org/1999/xlink">
<g><path style="opacity:1" fill="#000000" d="M -0.5,-0.5 C 166.167,-0.5 332.833,-0.5 499.5,-0.5C 499.5,166.167 499.5,332.833 499.5,499.5C 332.833,499.5 166.167,499.5 -0.5,499.5C -0.5,332.833 -0.5,166.167 -0.5,-0.5 Z"/></g>
<g><path style="opacity:1" fill="#00d4c7" d="M 184.5,284.5 C 184.192,286.924 184.526,289.257 185.5,291.5C 186.298,291.043 186.631,290.376 186.5,289.5C 197.186,250.275 217.853,217.442 248.5,191C 259.893,182.389 272.726,177.555 287,176.5C 300.514,177.01 312.014,182.01 321.5,191.5C 321.167,191.833 320.833,192.167 320.5,192.5C 303.363,178.38 284.696,175.88 264.5,185C 241.959,198.876 224.125,217.376 211,240.5C 198.729,260.645 190.396,282.311 186,305.5C 184.989,306.337 183.822,306.67 182.5,306.5C 182.657,294.432 181.824,282.432 180,270.5C 179.946,267.139 178.946,264.139 177,261.5C 174.488,265.19 172.488,269.19 171,273.5C 168.865,280.906 166.531,288.239 164,295.5C 162.413,296.727 161.079,296.394 160,294.5C 158.519,275.52 157.853,256.52 158,237.5C 158.667,236.167 159.333,236.167 160,237.5C 161.19,254.816 162.19,272.149 163,289.5C 165.943,280.004 169.276,270.67 173,261.5C 177.081,257.103 180.081,257.77 182,263.5C 183.723,270.395 184.556,277.395 184.5,284.5 Z"/></g>
<g><path style="opacity:1" fill="#00dacd" d="M 324.5,214.5 C 328.676,213.831 330.009,215.331 328.5,219C 327.207,219.49 325.873,219.657 324.5,219.5C 324.5,217.833 324.5,216.167 324.5,214.5 Z"/></g>
<g><path style="opacity:1" fill="#00cdc1" d="M 279.5,257.5 C 280.151,256.909 280.818,256.243 281.5,255.5C 280.275,263.428 282.442,264.428 288,258.5C 288.707,256.919 289.54,255.419 290.5,254C 291.742,253.689 292.742,254.189 293.5,255.5C 299.295,250.824 301.462,252.157 300,259.5C 304.058,257.002 306.891,253.502 308.5,249C 311.536,246.994 314.869,246.16 318.5,246.5C 317.452,249.789 316.952,253.122 317,256.5C 320.285,253.943 323.785,252.11 327.5,251C 323.756,253.955 319.922,256.789 316,259.5C 314.942,264.564 313.609,269.564 312,274.5C 308.208,284.209 301.374,287.376 291.5,284C 290.426,283.261 289.759,282.261 289.5,281C 291.055,277.439 293.388,274.439 296.5,272C 302.123,268.045 307.457,263.712 312.5,259C 310.168,259.649 307.834,259.482 305.5,258.5C 302.972,260.874 299.972,261.874 296.5,261.5C 296.66,259.801 296.494,258.134 296,256.5C 293.833,258.667 291.667,260.833 289.5,263C 286.607,263.273 283.94,264.107 281.5,265.5C 280.558,265.392 279.725,265.059 279,264.5C 278.666,262.153 278.833,259.819 279.5,257.5 Z"/></g>
<g><path style="opacity:1" fill="#00bfb4" d="M 283.5,247.5 C 285.896,248.828 285.896,250.494 283.5,252.5C 282.334,250.833 282.334,249.166 283.5,247.5 Z"/></g>
<g><path style="opacity:1" fill="#071312" d="M 311.5,249.5 C 312.5,249.5 313.5,249.5 314.5,249.5C 313.86,252.774 312.193,255.441 309.5,257.5C 308.369,255.926 308.202,254.259 309,252.5C 310.045,251.627 310.878,250.627 311.5,249.5 Z"/></g>
<g><path style="opacity:1" fill="#00d0c4" d="M 279.5,257.5 C 277.871,259.06 276.704,258.727 276,256.5C 272.273,259.404 269.439,263.071 267.5,267.5C 266.669,265.527 266.502,263.527 267,261.5C 263.947,263.43 261.447,265.93 259.5,269C 256.782,270.072 254.115,271.238 251.5,272.5C 249.482,279.723 246.982,286.723 244,293.5C 244.672,287.131 245.839,280.797 247.5,274.5C 244.426,276.471 241.092,277.304 237.5,277C 236.773,275.601 236.273,274.101 236,272.5C 232.613,274.318 230.613,273.318 230,269.5C 227.834,272.507 225.001,274.507 221.5,275.5C 219.912,274.99 218.745,273.99 218,272.5C 213.902,277.107 209.235,278.107 204,275.5C 203.569,270.084 206.069,266.751 211.5,265.5C 215.131,266.516 215.464,268.35 212.5,271C 210.5,271.833 208.5,272.667 206.5,273.5C 208.528,275.941 210.862,276.108 213.5,274C 215,272.5 216.5,271 218,269.5C 220,260.833 222,252.167 224,243.5C 224.934,240.408 226.1,240.075 227.5,242.5C 224.136,252.637 222.47,262.97 222.5,273.5C 225.805,272.028 228.305,269.695 230,266.5C 231.44,257.057 233.94,248.057 237.5,239.5C 237.833,240 238.167,240.5 238.5,241C 236.14,250.795 234.307,260.628 233,270.5C 235.184,271.108 237.184,270.441 239,268.5C 240.018,265.361 240.851,262.195 241.5,259C 243.728,258.18 245.728,258.513 247.5,260C 245.82,260.034 244.32,260.201 243,260.5C 242.221,262.906 243.054,264.573 245.5,265.5C 247.167,264.667 248.833,263.833 250.5,263C 251.337,261.989 251.67,260.822 251.5,259.5C 253.124,259.36 254.29,260.027 255,261.5C 256.73,260.26 258.563,259.26 260.5,258.5C 265.531,261.577 269.031,260.244 271,254.5C 271.667,255.167 272.333,255.833 273,256.5C 275.966,253.503 278.133,253.836 279.5,257.5 Z"/></g>
<g><path style="opacity:1" fill="#091a19" d="M 258.5,260.5 C 260.225,260.843 260.725,261.843 260,263.5C 251.857,269.902 251.357,268.902 258.5,260.5 Z"/></g>
<g><path style="opacity:1" fill="#020807" d="M 310.5,262.5 C 311.49,270.019 309.157,276.519 303.5,282C 300.106,282.752 296.773,282.585 293.5,281.5C 292.417,280.635 292.251,279.635 293,278.5C 298.433,272.567 304.266,267.233 310.5,262.5 Z"/></g>
<g><path style="opacity:1" fill="#0c201f" d="M 247.5,274.5 C 247.62,272.266 247.287,270.099 246.5,268C 247.535,266.726 248.702,265.56 250,264.5C 250.237,268.164 249.403,271.498 247.5,274.5 Z"/></g>
<g><path style="opacity:1" fill="#092725" d="M 209.5,267.5 C 211.028,267.517 211.528,268.184 211,269.5C 207.189,270.966 206.689,270.3 209.5,267.5 Z"/></g>
<g><path style="opacity:1" fill="#091514" d="M 242.5,270.5 C 244.225,270.843 244.725,271.843 244,273.5C 238.772,274.647 238.272,273.647 242.5,270.5 Z"/></g>
<g><path style="opacity:1" fill="#007a73" d="M 184.5,284.5 C 185.167,286.167 185.833,287.833 186.5,289.5C 186.631,290.376 186.298,291.043 185.5,291.5C 184.526,289.257 184.192,286.924 184.5,284.5 Z"/></g>
<g><path style="opacity:1" fill="#d3d3d3" d="M 194.5,328.5 C 195.201,331.563 195.868,334.73 196.5,338C 196.167,338.167 195.833,338.333 195.5,338.5C 194.513,335.232 194.18,331.898 194.5,328.5 Z"/></g>
<g><path style="opacity:1" fill="#b4b4b4" d="M 203.5,328.5 C 205.048,328.821 205.715,329.821 205.5,331.5C 206.833,331.5 208.167,331.5 209.5,331.5C 209.663,333.857 209.497,336.19 209,338.5C 208.505,336.527 208.338,334.527 208.5,332.5C 207.5,332.5 206.5,332.5 205.5,332.5C 205.799,334.604 205.466,336.604 204.5,338.5C 203.513,335.232 203.18,331.898 203.5,328.5 Z"/></g>
<g><path style="opacity:1" fill="#eeeeee" d="M 169.5,328.5 C 170.434,329.568 170.768,330.901 170.5,332.5C 172.167,332.5 173.833,332.5 175.5,332.5C 176.788,334.092 176.788,334.425 175.5,333.5C 173.833,333.5 172.167,333.5 170.5,333.5C 170.66,335.199 170.494,336.866 170,338.5C 169.502,335.183 169.335,331.85 169.5,328.5 Z"/></g>
<g><path style="opacity:1" fill="#d7d7d7" d="M 286.5,332.5 C 285.5,332.5 284.5,332.5 283.5,332.5C 283.662,334.527 283.495,336.527 283,338.5C 282.015,335.04 281.848,331.706 282.5,328.5C 287.041,328.331 287.374,328.998 283.5,330.5C 284.602,331.176 285.602,331.842 286.5,332.5 Z"/></g>
<g><path style="opacity:1" fill="#afafaf" d="M 226.5,331.5 C 227.873,331.343 229.207,331.51 230.5,332C 229.036,333.864 228.036,336.031 227.5,338.5C 226.526,336.257 226.192,333.924 226.5,331.5 Z"/></g>
<g><path style="opacity:1" fill="#d2d2d2" d="M 313.5,332.5 C 316.324,330.799 317.991,331.633 318.5,335C 317.991,338.367 316.324,339.201 313.5,337.5C 317.161,337.65 318.161,336.15 316.5,333C 315.552,332.517 314.552,332.351 313.5,332.5 Z"/></g>
<g><path style="opacity:1" fill="#dedede" d="M 325.5,331.5 C 326.468,333.607 326.802,335.941 326.5,338.5C 324.801,338.66 323.134,338.494 321.5,338C 325.03,337.328 326.363,335.162 325.5,331.5 Z"/></g>
<g><path style="opacity:1" fill="#d6d6d6" d="M 198.5,329.5 C 199.534,330.687 200.867,331.52 202.5,332C 201.552,332.483 200.552,332.649 199.5,332.5C 199.5,334.167 199.5,335.833 199.5,337.5C 203.172,338.045 202.838,338.378 198.5,338.5C 198.108,335.324 198.108,332.324 198.5,329.5 Z"/></g>
<g><path style="opacity:1" fill="#c0c0c0" d="M 212.5,331.5 C 214.288,331.215 215.955,331.548 217.5,332.5C 216.418,332.749 215.085,332.915 213.5,333C 212.167,334.333 212.167,335.667 213.5,337C 215.085,337.085 216.418,337.251 217.5,337.5C 211.74,339.213 210.074,337.213 212.5,331.5 Z"/></g>
<g><path style="opacity:1" fill="#bdbdbd" d="M 286.5,332.5 C 291.972,330.074 294.139,331.741 293,337.5C 288.273,339.33 286.107,337.663 286.5,332.5 Z"/></g>
<g><path style="opacity:1" fill="#151515" d="M 288.5,332.5 C 292.161,332.35 293.161,333.85 291.5,337C 290.552,337.483 289.552,337.649 288.5,337.5C 288.5,335.833 288.5,334.167 288.5,332.5 Z"/></g>
<g><path style="opacity:1" fill="#cccccc" d="M 295.5,331.5 C 299.554,331.21 300.054,331.877 297,333.5C 296.667,335.167 296.333,336.833 296,338.5C 295.503,336.19 295.337,333.857 295.5,331.5 Z"/></g>
<g><path style="opacity:1" fill="#0f0f0f" d="M 313.5,332.5 C 314.552,332.351 315.552,332.517 316.5,333C 318.161,336.15 317.161,337.65 313.5,337.5C 313.5,335.833 313.5,334.167 313.5,332.5 Z"/></g>
<g><path style="opacity:1" fill="#aaaaaa" d="M 233.5,337.5 C 230.876,335.802 230.876,333.969 233.5,332C 236.926,330.762 238.592,331.929 238.5,335.5C 236.219,335.077 234.552,335.744 233.5,337.5 Z"/></g>
<g><path style="opacity:1" fill="#c9c9c9" d="M 243.5,328.5 C 244.376,328.369 245.043,328.702 245.5,329.5C 246.432,331.795 247.265,334.129 248,336.5C 251.599,326.076 252.933,326.742 252,338.5C 251.667,336.5 251.333,334.5 251,332.5C 249,340.5 247,340.5 245,332.5C 244.667,334.5 244.333,336.5 244,338.5C 243.502,335.183 243.335,331.85 243.5,328.5 Z"/></g>
<g><path style="opacity:1" fill="#afafaf" d="M 303.5,328.5 C 305.145,329.479 306.479,330.812 307.5,332.5C 308.5,331.167 309.5,329.833 310.5,328.5C 310.833,328.667 311.167,328.833 311.5,329C 309.49,331.878 308.157,335.044 307.5,338.5C 306.695,334.9 305.362,331.567 303.5,328.5 Z"/></g>
<g><path style="opacity:1" fill="#959595" d="M 179.5,331.5 C 183.241,330.599 185.241,331.932 185.5,335.5C 183.712,335.215 182.045,335.548 180.5,336.5C 181.98,337.113 183.313,337.446 184.5,337.5C 178.74,339.213 177.074,337.213 179.5,331.5 Z"/></g>
<g><path style="opacity:1" fill="#bababa" d="M 187.5,332.5 C 188.601,331.402 189.934,331.235 191.5,332C 192.167,334 192.833,336 193.5,338C 191.19,338.497 188.857,338.663 186.5,338.5C 186.5,337.167 186.5,335.833 186.5,334.5C 190.806,333.934 191.139,333.268 187.5,332.5 Z"/></g>
<g><path style="opacity:1" fill="#1a1a1a" d="M 187.5,335.5 C 188.675,335.281 189.675,335.614 190.5,336.5C 188.948,337.798 187.948,337.465 187.5,335.5 Z"/></g>
<g><path style="opacity:1" fill="#b9b9b9" d="M 219.5,331.5 C 221.167,331.5 222.833,331.5 224.5,331.5C 224.244,333.792 224.577,335.959 225.5,338C 224.5,338.167 223.5,338.333 222.5,338.5C 220.681,338.658 219.348,337.991 218.5,336.5C 219.779,334.854 221.445,333.687 223.5,333C 222.216,332.316 221.049,332.483 220,333.5C 219.536,332.906 219.369,332.239 219.5,331.5 Z"/></g>
<g><path style="opacity:1" fill="#101010" d="M 220.5,335.5 C 223.797,335.329 224.131,335.995 221.5,337.5C 220.702,337.043 220.369,336.376 220.5,335.5 Z"/></g>
<g><path style="opacity:1" fill="#959595" d="M 271.5,331.5 C 275.241,330.599 277.241,331.932 277.5,335.5C 275.712,335.215 274.045,335.548 272.5,336.5C 273.98,337.113 275.313,337.446 276.5,337.5C 270.74,339.213 269.074,337.213 271.5,331.5 Z"/></g>
<g><path style="opacity:1" fill="#bababa" d="M 313.5,332.5 C 313.5,334.167 313.5,335.833 313.5,337.5C 310.833,335.833 310.833,334.167 313.5,332.5 Z"/></g>
<g><path style="opacity:1" fill="#b1b1b1" d="M 255.5,332.5 C 256.601,331.402 257.934,331.235 259.5,332C 260.167,334 260.833,336 261.5,338C 253.98,339.195 252.98,337.529 258.5,333C 257.552,332.517 256.552,332.351 255.5,332.5 Z"/></g>
<g><path style="opacity:1" fill="#030303" d="M 256.5,335.5 C 258.337,335.639 258.67,336.306 257.5,337.5C 256.702,337.043 256.369,336.376 256.5,335.5 Z"/></g>
<g><path style="opacity:1" fill="#c6c6c6" d="M 233.5,337.5 C 235.226,337.185 236.893,337.019 238.5,337C 236.852,338.677 235.185,338.844 233.5,337.5 Z"/></g>
<g><path style="opacity:1" fill="#d2d2d2" d="M 267.5,328.5 C 268.479,331.625 268.813,334.958 268.5,338.5C 262.842,339.321 261.175,337.154 263.5,332C 264.793,331.51 266.127,331.343 267.5,331.5C 267.5,330.5 267.5,329.5 267.5,328.5 Z"/></g>
<g><path style="opacity:1" fill="#090909" d="M 264.5,332.5 C 265.5,332.5 266.5,332.5 267.5,332.5C 267.884,334.665 267.217,336.332 265.5,337.5C 263.296,336.218 262.962,334.551 264.5,332.5 Z"/></g>
</svg>
