<?xml version="1.0" encoding="UTF-8"?>
<!DOCTYPE svg PUBLIC "-//W3C//DTD SVG 1.1//EN" "http://www.w3.org/Graphics/SVG/1.1/DTD/svg11.dtd">
<svg xmlns="http://www.w3.org/2000/svg" version="1.1" width="500px" height="500px" style="shape-rendering:geometricPrecision; text-rendering:geometricPrecision; image-rendering:optimizeQuality; fill-rule:evenodd; clip-rule:evenodd" xmlns:xlink="http://www.w3.org/1999/xlink">
<g><path style="opacity:0.86" fill="#010101" d="M 326.5,78.5 C 361.178,76.7794 391.345,87.4461 417,110.5C 419.645,114.936 418.478,116.769 413.5,116C 375.374,83.7592 333.374,77.7592 287.5,98C 259.485,112.11 234.985,130.943 214,154.5C 156.469,219.897 118.802,295.564 101,381.5C 97.6294,385.797 94.9627,385.463 93,380.5C 92.0939,348.959 89.0939,317.626 84,286.5C 83.5172,283.177 82.0172,280.51 79.5,278.5C 78.5224,278.977 77.6891,279.643 77,280.5C 74.8065,284.749 72.8065,289.082 71,293.5C 64.3333,314.167 57.6667,334.833 51,355.5C 48.2608,359.782 44.9275,360.448 41,357.5C 39.1768,350.63 38.1768,343.63 38,336.5C 36.1391,298.173 34.8057,259.839 34,221.5C 35.7328,219.398 37.7328,219.065 40,220.5C 40.3333,223.5 40.6667,226.5 41,229.5C 43.2352,267.526 45.2352,305.526 47,343.5C 52.8022,325.093 58.8022,306.76 65,288.5C 67.3765,282.238 70.8765,276.738 75.5,272C 83.6151,269.166 88.7818,271.999 91,280.5C 92.8463,287.065 94.1796,293.731 95,300.5C 96.4472,315.871 98.1139,331.204 100,346.5C 120.844,270.45 157.511,203.45 210,145.5C 233.616,120.449 261.116,100.949 292.5,87C 303.668,82.9397 315.001,80.1064 326.5,78.5 Z"/></g>
<g><path style="opacity:0.868" fill="#000000" d="M 424.5,127.5 C 433.745,126.899 436.411,130.732 432.5,139C 424.243,141.96 420.743,139.127 422,130.5C 422.698,129.309 423.531,128.309 424.5,127.5 Z"/></g>
<g><path style="opacity:0.825" fill="#010101" d="M 246.5,303.5 C 245.105,306.733 242.772,309.233 239.5,311C 234.715,313.206 229.715,314.706 224.5,315.5C 217.113,313.79 215.78,309.957 220.5,304C 216.704,305.477 212.704,306.143 208.5,306C 205.047,304.272 203.214,301.438 203,297.5C 197.66,306.537 189.827,310.703 179.5,310C 177.396,307.958 176.229,305.458 176,302.5C 167.2,314.107 156.2,317.107 143,311.5C 140.481,297.329 146.481,289.329 161,287.5C 167.745,288.376 169.078,291.709 165,297.5C 160.39,301.796 154.89,303.796 148.5,303.5C 148.472,305.582 149.139,307.416 150.5,309C 156.453,310.126 161.786,308.793 166.5,305C 169.784,301.595 172.95,298.095 176,294.5C 180.37,273.02 185.37,251.686 191,230.5C 193.622,227.761 195.788,228.095 197.5,231.5C 191.808,253.626 187.142,275.959 183.5,298.5C 183.667,300.167 183.833,301.833 184,303.5C 184.725,304.059 185.558,304.392 186.5,304.5C 193.344,301.495 198.844,296.828 203,290.5C 207.685,269.094 212.685,247.761 218,226.5C 221.16,223.499 223.326,223.999 224.5,228C 218.962,249.986 214.295,272.152 210.5,294.5C 210.082,297.271 211.082,299.271 213.5,300.5C 219.58,297.217 224.746,292.883 229,287.5C 228.311,284.58 227.477,281.58 226.5,278.5C 228.424,270.532 233.424,267.699 241.5,270C 245.25,272.342 245.25,274.509 241.5,276.5C 239.587,275.627 237.753,274.627 236,273.5C 233.793,274.997 233.126,276.997 234,279.5C 235.166,282.503 236.833,285.17 239,287.5C 243.258,284.62 247.758,282.12 252.5,280C 253.687,277.226 255.02,274.559 256.5,272C 257.944,271.219 259.277,271.386 260.5,272.5C 261.154,274.115 261.654,275.782 262,277.5C 266.391,272.383 271.891,270.217 278.5,271C 282.88,276.31 287.88,276.644 293.5,272C 294.598,268.369 296.264,265.035 298.5,262C 299.5,261.333 300.5,261.333 301.5,262C 302.354,263.022 303.354,263.855 304.5,264.5C 307.883,262.872 311.383,261.539 315,260.5C 319.885,262.909 320.718,266.409 317.5,271C 316.584,271.374 315.75,271.874 315,272.5C 314.124,270.275 312.957,268.275 311.5,266.5C 308.23,268.267 305.397,270.6 303,273.5C 299.706,279.253 296.54,285.087 293.5,291C 291.272,291.82 289.272,291.487 287.5,290C 288.531,286.411 289.864,282.911 291.5,279.5C 285.063,279.521 280.896,282.854 279,289.5C 272.72,296.546 264.886,300.88 255.5,302.5C 250.314,319.225 244.648,335.725 238.5,352C 236.393,352.854 235.059,352.188 234.5,350C 238.428,334.453 242.428,318.953 246.5,303.5 Z M 272.5,275.5 C 275.163,277.111 275.663,279.111 274,281.5C 268.957,286.212 263.623,290.545 258,294.5C 260.648,286.662 265.481,280.329 272.5,275.5 Z M 246.5,303.5 C 246.002,299.666 244.668,296.166 242.5,293C 244.576,289.701 247.409,287.201 251,285.5C 250.609,291.828 249.109,297.828 246.5,303.5 Z M 230.5,293.5 C 230.461,292.244 230.961,291.244 232,290.5C 232.585,291.998 232.085,292.998 230.5,293.5 Z M 157.5,292.5 C 159.225,292.843 159.725,293.843 159,295.5C 157.192,297.843 155.026,298.51 152.5,297.5C 153.882,295.451 155.548,293.785 157.5,292.5 Z M 234.5,297.5 C 239.731,301.237 239.398,304.404 233.5,307C 230.594,308.318 227.594,308.652 224.5,308C 228.037,304.631 231.371,301.131 234.5,297.5 Z"/></g>
<g><path style="opacity:0.821" fill="#010101" d="M 407.5,241.5 C 410.243,241.077 411.576,242.244 411.5,245C 410.146,251.417 408.479,257.751 406.5,264C 406.833,264.5 407.167,265 407.5,265.5C 414.943,259.782 422.943,255.115 431.5,251.5C 431.607,253.903 430.607,255.736 428.5,257C 420.399,262.468 412.566,268.301 405,274.5C 402.58,288.18 398.913,301.513 394,314.5C 384.261,331.863 369.761,337.696 350.5,332C 343.127,328.641 341.627,323.475 346,316.5C 360.645,300.853 376.812,287.019 394.5,275C 398.754,268.832 398.088,268.166 392.5,273C 387.304,275.837 383.471,274.67 381,269.5C 376.64,274.69 371.14,278.023 364.5,279.5C 362.399,279.368 360.899,278.368 360,276.5C 359.674,272.47 359.674,268.47 360,264.5C 353.758,270.071 348.258,276.238 343.5,283C 340.937,283.918 338.77,283.418 337,281.5C 331.894,286.036 326.061,287.369 319.5,285.5C 317.894,278.573 318.727,271.907 322,265.5C 324.536,261.968 326.703,261.968 328.5,265.5C 327.498,269.506 326.498,273.506 325.5,277.5C 325.833,278.5 326.167,279.5 326.5,280.5C 336.144,276.025 342.811,268.859 346.5,259C 347.784,258.316 348.951,258.483 350,259.5C 350.333,261.167 350.667,262.833 351,264.5C 355.391,259.383 360.891,257.217 367.5,258C 368.823,262.426 368.49,266.76 366.5,271C 367,271.5 367.5,272 368,272.5C 372.283,269.885 376.283,266.885 380,263.5C 380.973,256.719 384.14,251.219 389.5,247C 395.535,244.848 401.535,243.015 407.5,241.5 Z M 395.5,249.5 C 400.068,249.083 401.568,251.083 400,255.5C 397.825,260.848 394.325,265.181 389.5,268.5C 388.914,268.291 388.414,267.957 388,267.5C 387.46,260.245 389.96,254.245 395.5,249.5 Z M 394.5,280.5 C 394.487,294.397 390.653,307.397 383,319.5C 376.07,327.023 367.57,329.523 357.5,327C 351.053,324.763 349.886,320.929 354,315.5C 366.545,302.516 380.045,290.849 394.5,280.5 Z"/></g>
<g><path style="opacity:0.735" fill="#010101" d="M 329.5,245.5 C 331.948,245.01 333.615,245.843 334.5,248C 334.267,252.982 331.934,256.482 327.5,258.5C 326.119,258 325.453,257 325.5,255.5C 326.292,251.92 327.626,248.587 329.5,245.5 Z"/></g>
</svg>
