<?xml version="1.0" encoding="UTF-8"?>
<!DOCTYPE svg PUBLIC "-//W3C//DTD SVG 1.1//EN" "http://www.w3.org/Graphics/SVG/1.1/DTD/svg11.dtd">
<svg xmlns="http://www.w3.org/2000/svg" version="1.1" width="500px" height="500px" style="shape-rendering:geometricPrecision; text-rendering:geometricPrecision; image-rendering:optimizeQuality; fill-rule:evenodd; clip-rule:evenodd" xmlns:xlink="http://www.w3.org/1999/xlink">
<g><path style="opacity:0.992" fill="#010606" d="M 328.5,47.5 C 323.543,46.1572 318.543,46.4905 313.5,48.5C 312.571,47.3112 312.238,45.9778 312.5,44.5C 310.821,44.7148 309.821,44.0481 309.5,42.5C 345.212,34.0897 377.879,40.923 407.5,63C 411.9,66.0669 415.567,69.7335 418.5,74C 416.75,77.0101 414.416,77.3434 411.5,75C 387.724,54.1303 360.057,44.9636 328.5,47.5 Z"/></g>
<g><path style="opacity:0.994" fill="#010606" d="M 309.5,42.5 C 309.821,44.0481 310.821,44.7148 312.5,44.5C 312.238,45.9778 312.571,47.3112 313.5,48.5C 318.543,46.4905 323.543,46.1572 328.5,47.5C 302.723,50.4806 279.389,59.6473 258.5,75C 234.009,93.3247 212.343,114.491 193.5,138.5C 194.321,135.337 195.988,132.67 198.5,130.5C 198.291,129.914 197.957,129.414 197.5,129C 201.251,128.239 201.417,127.072 198,125.5C 197.333,126.167 196.667,126.833 196,127.5C 195.282,126.549 194.449,126.383 193.5,127C 191.688,129.86 189.354,132.027 186.5,133.5C 209.601,103.229 237.268,78.0619 269.5,58C 282.113,50.856 295.446,45.6893 309.5,42.5 Z"/></g>
<g><path style="opacity:1" fill="#010407" d="M 425.5,126.5 C 433.108,126.36 435.941,130.027 434,137.5C 428.785,142.019 424.451,141.353 421,135.5C 420.909,131.682 422.409,128.682 425.5,126.5 Z"/></g>
<g><path style="opacity:0.997" fill="#010506" d="M 193.5,138.5 C 158,186.157 130.833,238.49 112,295.5C 109.356,305.076 107.189,314.743 105.5,324.5C 104.66,321.661 104.327,318.827 104.5,316C 106.11,312.533 107.443,308.867 108.5,305C 107.983,302.923 107.316,300.923 106.5,299C 106.833,298.667 107.167,298.333 107.5,298C 105.216,296.083 103.549,296.583 102.5,299.5C 119.457,238.249 147.457,182.915 186.5,133.5C 189.354,132.027 191.688,129.86 193.5,127C 194.449,126.383 195.282,126.549 196,127.5C 196.667,126.833 197.333,126.167 198,125.5C 201.417,127.072 201.251,128.239 197.5,129C 197.957,129.414 198.291,129.914 198.5,130.5C 195.988,132.67 194.321,135.337 193.5,138.5 Z"/></g>
<g><path style="opacity:0.984" fill="#010505" d="M 92.5,246.5 C 91.4343,242.575 88.9343,239.575 85,237.5C 84.3076,238.025 83.8076,238.692 83.5,239.5C 84.7665,241.972 84.7665,244.306 83.5,246.5C 82.9913,243.808 81.9913,241.308 80.5,239C 79.0039,238.493 77.8373,238.993 77,240.5C 74.6667,245.833 72.3333,251.167 70,256.5C 63.9553,277.301 57.122,297.801 49.5,318C 45.3382,320.572 42.1716,319.738 40,315.5C 38.9484,309.883 38.2818,304.216 38,298.5C 35.9702,259.513 34.6368,220.513 34,181.5C 35.4659,179.675 37.2992,179.175 39.5,180C 40.2638,182.069 40.7638,184.236 41,186.5C 43.3569,225.5 45.3569,264.5 47,303.5C 52.3333,286.833 57.6667,270.167 63,253.5C 65.3935,247.713 68.0602,242.046 71,236.5C 76.1501,229.658 81.8167,228.992 88,234.5C 90.354,238.203 91.854,242.203 92.5,246.5 Z"/></g>
<g><path style="opacity:0.989" fill="#010606" d="M 372.5,236.5 C 371.791,235.596 370.791,235.263 369.5,235.5C 369.5,234.167 369.5,232.833 369.5,231.5C 372.789,229.384 375.956,227.051 379,224.5C 380.511,214.999 385.678,208.499 394.5,205C 399.462,204.2 404.295,203.033 409,201.5C 410.471,202.381 411.304,203.714 411.5,205.5C 409.924,212.054 408.258,218.554 406.5,225C 412.648,221.91 418.648,218.243 424.5,214C 427.095,211.661 429.761,211.327 432.5,213C 423.976,220.185 415.143,227.018 406,233.5C 402.827,245.858 399.493,258.192 396,270.5C 388.963,289.274 375.463,297.107 355.5,294C 350.944,293.111 347.111,290.944 344,287.5C 343.21,284.366 343.543,281.366 345,278.5C 348.381,274.241 351.881,270.074 355.5,266C 368.422,254.407 381.922,243.574 396,233.5C 396.688,232.668 396.521,232.002 395.5,231.5C 389.849,236.673 384.849,236.34 380.5,230.5C 378.098,232.909 375.431,234.909 372.5,236.5 Z M 396.5,209.5 C 400.225,209.78 401.392,211.78 400,215.5C 397.797,220.871 394.297,225.204 389.5,228.5C 388.054,227.829 387.388,226.662 387.5,225C 388.61,218.597 391.61,213.43 396.5,209.5 Z M 393.5,241.5 C 394.497,241.47 395.164,241.97 395.5,243C 393.516,255.954 389.349,268.12 383,279.5C 376.12,287.017 367.62,289.517 357.5,287C 350.434,284.225 349.601,280.058 355,274.5C 367.436,262.886 380.27,251.886 393.5,241.5 Z"/></g>
<g><path style="opacity:1" fill="#01080b" d="M 329.5,205.5 C 334.068,205.083 335.568,207.083 334,211.5C 332.756,215.922 329.923,218.256 325.5,218.5C 325.412,213.689 326.746,209.356 329.5,205.5 Z"/></g>
<g><path style="opacity:0.985" fill="#010606" d="M 220.5,256.5 C 220.354,258.942 221.187,259.609 223,258.5C 225.051,261.394 224.385,262.061 221,260.5C 218.929,261.103 217.762,262.436 217.5,264.5C 210.449,269.481 205.449,267.814 202.5,259.5C 198.121,264.719 192.788,268.553 186.5,271C 181.062,271.944 177.395,269.778 175.5,264.5C 168.07,273.033 158.737,276.533 147.5,275C 145.919,274.293 144.419,273.46 143,272.5C 140.057,261.88 143.557,254.047 153.5,249C 156.365,248.163 159.198,247.33 162,246.5C 168.167,248.964 169.167,252.964 165,258.5C 160.676,262.608 155.676,264.275 150,263.5C 149.257,265.441 149.424,267.274 150.5,269C 155.94,270.174 160.94,269.174 165.5,266C 169.036,262.799 172.203,259.299 175,255.5C 180.171,233.815 185.505,212.148 191,190.5C 194.172,187.612 196.339,188.278 197.5,192.5C 191.809,214.623 187.142,236.956 183.5,259.5C 183.667,260.833 183.833,262.167 184,263.5C 184.725,264.059 185.558,264.392 186.5,264.5C 193.344,261.495 198.844,256.828 203,250.5C 207.619,229.072 212.619,207.738 218,186.5C 221.492,183.41 223.658,184.077 224.5,188.5C 219.066,210.67 214.399,233.003 210.5,255.5C 210.745,257.663 211.745,259.33 213.5,260.5C 216.024,259.408 218.357,258.074 220.5,256.5 Z M 156.5,253.5 C 158.355,253.272 159.188,253.939 159,255.5C 157.192,257.843 155.026,258.51 152.5,257.5C 153.867,256.16 155.2,254.827 156.5,253.5 Z"/></g>
<g><path style="opacity:0.999" fill="#010505" d="M 369.5,231.5 C 369.5,232.833 369.5,234.167 369.5,235.5C 370.791,235.263 371.791,235.596 372.5,236.5C 368.561,239.897 364.395,240.23 360,237.5C 359.566,233.452 359.566,229.452 360,225.5C 353.833,231.667 347.667,237.833 341.5,244C 339.536,244.624 337.869,244.124 336.5,242.5C 320.729,251.885 315.229,247.885 320,230.5C 320.56,226.698 322.56,224.032 326,222.5C 327.947,223.044 328.78,224.377 328.5,226.5C 327.012,231.103 326.179,235.77 326,240.5C 335.801,236.696 342.134,229.696 345,219.5C 348.943,217.749 351.277,219.082 352,223.5C 355.633,220.266 359.799,217.932 364.5,216.5C 367.575,217.314 369.242,219.314 369.5,222.5C 368.959,225.208 368.292,227.874 367.5,230.5C 367.957,231.298 368.624,231.631 369.5,231.5 Z"/></g>
<g><path style="opacity:0.996" fill="#010506" d="M 261.5,260.5 C 256.382,260.919 252.382,259.253 249.5,255.5C 250.038,252.811 250.705,250.144 251.5,247.5C 250.3,246.708 248.967,246.708 247.5,247.5C 248.038,245.883 248.371,244.216 248.5,242.5C 249.848,241.399 251.348,240.399 253,239.5C 253.667,237.5 254.333,235.5 255,233.5C 259.258,230.694 261.591,232.027 262,237.5C 266.95,232.247 272.783,230.414 279.5,232C 280.787,233.41 281.954,234.91 283,236.5C 286.649,235.428 290.149,233.928 293.5,232C 294.662,229.184 295.829,226.35 297,223.5C 297.689,222.643 298.522,221.977 299.5,221.5C 301.429,222.38 303.263,223.38 305,224.5C 308.246,222.875 311.579,221.541 315,220.5C 319.414,222.559 320.581,225.892 318.5,230.5C 314.552,233.624 312.218,232.624 311.5,227.5C 308.23,229.267 305.397,231.6 303,234.5C 299.833,240.167 296.667,245.833 293.5,251.5C 291.629,252.767 289.796,252.767 288,251.5C 288.184,247.925 289.018,244.425 290.5,241C 287.302,240.146 284.469,241.312 282,244.5C 278.064,253.551 271.231,258.884 261.5,260.5 Z M 272.5,236.5 C 274.377,237.659 274.877,239.326 274,241.5C 269.312,245.689 264.479,249.689 259.5,253.5C 259.167,253.167 258.833,252.833 258.5,252.5C 262.129,246.207 266.796,240.874 272.5,236.5 Z"/></g>
<g><path style="opacity:0.984" fill="#010404" d="M 92.5,246.5 C 95.835,266.341 98.335,286.341 100,306.5C 100.902,304.073 101.736,301.74 102.5,299.5C 103.549,296.583 105.216,296.083 107.5,298C 107.167,298.333 106.833,298.667 106.5,299C 107.316,300.923 107.983,302.923 108.5,305C 107.443,308.867 106.11,312.533 104.5,316C 104.327,318.827 104.66,321.661 105.5,324.5C 104.068,330.147 102.568,335.814 101,341.5C 98.142,345.405 95.4753,345.405 93,341.5C 92.1935,309.542 89.0269,277.876 83.5,246.5C 84.7665,244.306 84.7665,241.972 83.5,239.5C 83.8076,238.692 84.3076,238.025 85,237.5C 88.9343,239.575 91.4343,242.575 92.5,246.5 Z"/></g>
<g><path style="opacity:0.93" fill="#010606" d="M 248.5,242.5 C 248.371,244.216 248.038,245.883 247.5,247.5C 246.06,249.388 244.394,251.055 242.5,252.5C 244.489,255.966 245.989,259.632 247,263.5C 247.84,260.798 248.673,258.132 249.5,255.5C 252.382,259.253 256.382,260.919 261.5,260.5C 259.461,261.578 257.294,262.578 255,263.5C 250.202,279.561 245.202,295.561 240,311.5C 237.486,314.177 235.653,313.677 234.5,310C 238.236,295.811 241.736,281.644 245,267.5C 238.225,273.304 230.391,275.804 221.5,275C 217.006,272.533 216.34,269.2 219.5,265C 218.906,264.536 218.239,264.369 217.5,264.5C 217.762,262.436 218.929,261.103 221,260.5C 224.385,262.061 225.051,261.394 223,258.5C 221.187,259.609 220.354,258.942 220.5,256.5C 224.161,253.835 227.161,250.502 229.5,246.5C 223.93,236.636 226.764,230.636 238,228.5C 240.139,229.236 242.139,230.236 244,231.5C 245.08,234.237 244.246,235.904 241.5,236.5C 239.238,235.533 236.905,234.866 234.5,234.5C 233.637,239.482 235.137,243.815 239,247.5C 242.141,245.68 245.308,244.014 248.5,242.5 Z M 233.5,258.5 C 237.225,258.78 238.392,260.78 237,264.5C 233.664,267.672 229.83,268.672 225.5,267.5C 228.189,264.48 230.856,261.48 233.5,258.5 Z"/></g>
<g><path style="opacity:0.757" fill="#010606" d="M 118.5,392.5 C 120.144,392.286 121.644,392.62 123,393.5C 123.169,400.191 123.669,406.858 124.5,413.5C 127.262,417.923 125.929,419.423 120.5,418C 119.107,416.829 118.273,415.329 118,413.5C 117.205,406.42 117.372,399.42 118.5,392.5 Z"/></g>
<g><path style="opacity:0.899" fill="#000606" d="M 57.5,394.5 C 59.5,394.5 61.5,394.5 63.5,394.5C 63.5,397.167 63.5,399.833 63.5,402.5C 66.5,402.5 69.5,402.5 72.5,402.5C 72.7564,400.208 72.4231,398.041 71.5,396C 73.5412,394.259 75.7079,394.092 78,395.5C 77.644,403.121 77.4774,410.788 77.5,418.5C 74.9783,418.872 72.9783,418.039 71.5,416C 71.3232,413.45 71.6566,411.117 72.5,409C 69.5184,408.502 66.5184,408.335 63.5,408.5C 63.6646,411.518 63.498,414.518 63,417.5C 61.1918,417.888 59.5252,417.888 58,417.5C 57.5003,409.841 57.3336,402.174 57.5,394.5 Z"/></g>
<g><path style="opacity:0.835" fill="#010605" d="M 234.5,394.5 C 237.119,394.232 239.619,394.565 242,395.5C 243.864,400.091 245.53,404.757 247,409.5C 248.667,404.833 250.333,400.167 252,395.5C 254.064,394.409 256.231,394.242 258.5,395C 259.647,402.42 259.813,409.92 259,417.5C 257.333,418.833 255.667,418.833 254,417.5C 254.073,404.858 252.74,404.524 250,416.5C 248.867,418.211 247.367,418.711 245.5,418C 243.428,414.798 241.928,411.298 241,407.5C 240.667,410.833 240.333,414.167 240,417.5C 238.612,418.554 237.112,418.72 235.5,418C 234.518,410.253 234.185,402.42 234.5,394.5 Z"/></g>
<g><path style="opacity:0.843" fill="#010707" d="M 131.5,395.5 C 133.242,397.558 135.409,399.225 138,400.5C 138.49,401.793 138.657,403.127 138.5,404.5C 133.593,404.533 132.26,406.866 134.5,411.5C 140.624,414.475 140.624,416.808 134.5,418.5C 129.335,417.354 127.001,414.021 127.5,408.5C 129.242,405.585 128.575,404.251 125.5,404.5C 124.965,401.762 125.965,399.928 128.5,399C 128.167,398.667 127.833,398.333 127.5,398C 128.858,397.066 130.192,396.232 131.5,395.5 Z"/></g>
<g><path style="opacity:0.911" fill="#010807" d="M 87.5,399.5 C 95.5268,398.784 98.8601,402.284 97.5,410C 94.1182,410.176 90.7848,410.676 87.5,411.5C 87.8869,412.72 88.7202,413.387 90,413.5C 91.9538,411.566 94.1204,411.233 96.5,412.5C 97.6439,415.248 96.6439,417.081 93.5,418C 83.3135,419.138 79.4801,414.638 82,404.5C 83.1065,401.887 84.9399,400.22 87.5,399.5 Z M 88.5,404.5 C 90.1033,404.312 91.4366,404.812 92.5,406C 90.8333,406.667 89.1667,406.667 87.5,406C 88.056,405.617 88.3893,405.117 88.5,404.5 Z"/></g>
<g><path style="opacity:0.894" fill="#000707" d="M 164.5,399.5 C 168.516,398.9 172.016,399.9 175,402.5C 175.167,403 175.333,403.5 175.5,404C 173.693,407.603 171.693,407.936 169.5,405C 168.216,404.316 167.049,404.483 166,405.5C 164.734,412.777 166.901,414.443 172.5,410.5C 176.508,413.35 176.175,415.85 171.5,418C 162.118,418.951 158.284,414.784 160,405.5C 160.979,403.032 162.479,401.032 164.5,399.5 Z"/></g>
<g><path style="opacity:0.701" fill="#000607" d="M 331.5,392.5 C 334.044,392.104 336.211,392.771 338,394.5C 338.388,396.076 337.888,397.409 336.5,398.5C 335.109,397.355 333.776,397.355 332.5,398.5C 336.375,398.705 338.041,400.705 337.5,404.5C 335.856,404.286 334.356,404.62 333,405.5C 332.667,409.5 332.333,413.5 332,417.5C 330.333,418.833 328.667,418.833 327,417.5C 326.938,412.346 326.105,407.346 324.5,402.5C 325.754,399.915 326.921,397.248 328,394.5C 329.302,393.915 330.469,393.249 331.5,392.5 Z"/></g>
<g><path style="opacity:0.873" fill="#010606" d="M 358.5,399.5 C 362.208,400.387 365.875,400.554 369.5,400C 370.138,401.707 370.138,403.54 369.5,405.5C 367.833,405.5 366.167,405.5 364.5,405.5C 363.66,409.472 363.493,413.472 364,417.5C 362.612,418.554 361.112,418.72 359.5,418C 358.524,411.924 358.19,405.758 358.5,399.5 Z"/></g>
<g><path style="opacity:0.834" fill="#010807" d="M 418.5,399.5 C 420.144,399.286 421.644,399.62 423,400.5C 423.333,404.167 423.667,407.833 424,411.5C 424.953,413.592 426.286,413.925 428,412.5C 428.333,408.5 428.667,404.5 429,400.5C 430.667,399.167 432.333,399.167 434,400.5C 434.807,406.416 434.641,412.25 433.5,418C 430.314,417.499 427.147,417.666 424,418.5C 422.188,418.507 420.688,417.84 419.5,416.5C 417.47,410.907 417.137,405.241 418.5,399.5 Z"/></g>
<g><path style="opacity:1" fill="#010707" d="M 141.5,392.5 C 143.144,392.286 144.644,392.62 146,393.5C 146.186,395.9 146.686,398.234 147.5,400.5C 155.622,398.648 158.956,401.982 157.5,410.5C 157.333,412.833 157.167,415.167 157,417.5C 155.602,418.051 154.268,418.384 153,418.5C 151.731,414.351 151.065,410.018 151,405.5C 149.951,404.483 148.784,404.316 147.5,405C 146.7,409.08 146.2,413.247 146,417.5C 144.293,418.138 142.46,418.138 140.5,417.5C 140.198,409.082 140.531,400.748 141.5,392.5 Z"/></g>
<g><path style="opacity:0.843" fill="#010606" d="M 196.5,399.5 C 199.828,400.646 203.161,400.813 206.5,400C 207.833,401.667 207.833,403.333 206.5,405C 204.899,405.273 203.399,405.773 202,406.5C 201.667,410.167 201.333,413.833 201,417.5C 200.586,417.957 200.086,418.291 199.5,418.5C 198.284,417.998 197.117,417.665 196,417.5C 195.212,411.418 195.379,405.418 196.5,399.5 Z"/></g>
<g><path style="opacity:0.961" fill="#010807" d="M 215.5,412.5 C 215.735,413.097 216.235,413.43 217,413.5C 219.707,410.804 222.207,410.97 224.5,414C 219.484,419.755 214.317,419.922 209,414.5C 206.033,408.226 207.533,403.392 213.5,400C 221.562,398.895 225.228,402.395 224.5,410.5C 221.162,410.065 218.162,410.732 215.5,412.5 Z M 214.5,404.5 C 215.978,404.238 217.311,404.571 218.5,405.5C 216.926,406.631 215.259,406.798 213.5,406C 214.056,405.617 214.389,405.117 214.5,404.5 Z M 215.5,412.5 C 214.711,412.217 214.044,411.717 213.5,411C 214.816,410.472 215.483,410.972 215.5,412.5 Z"/></g>
<g><path style="opacity:0.872" fill="#010605" d="M 292.5,392.5 C 294.144,392.286 295.644,392.62 297,393.5C 297.667,401.5 297.667,409.5 297,417.5C 292.91,417.393 288.743,417.56 284.5,418C 279.159,413.803 278.159,408.636 281.5,402.5C 284.193,399.524 287.36,398.857 291,400.5C 291.272,397.746 291.772,395.079 292.5,392.5 Z M 287.5,404.5 C 290.734,404.237 292.068,405.737 291.5,409C 289.299,415.09 287.299,414.923 285.5,408.5C 285.752,406.927 286.418,405.594 287.5,404.5 Z"/></g>
<g><path style="opacity:0.985" fill="#000706" d="M 305.5,399.5 C 314.111,398.281 317.778,401.781 316.5,410C 312.861,410.494 309.527,410.994 306.5,411.5C 306.887,412.72 307.72,413.387 309,413.5C 310.954,411.566 313.12,411.233 315.5,412.5C 316.644,415.248 315.644,417.081 312.5,418C 304.94,419.717 300.607,416.717 299.5,409C 300.147,404.849 302.147,401.683 305.5,399.5 Z M 307.5,404.5 C 309.103,404.312 310.437,404.812 311.5,406C 309.833,406.667 308.167,406.667 306.5,406C 307.056,405.617 307.389,405.117 307.5,404.5 Z"/></g>
<g><path style="opacity:1" fill="#000707" d="M 403.5,399.5 C 413.678,398.85 417.511,403.517 415,413.5C 411.49,418.447 406.99,419.613 401.5,417C 396.096,410.454 396.763,404.621 403.5,399.5 Z M 405.5,404.5 C 410.538,405.776 411.538,408.609 408.5,413C 407.207,413.49 405.873,413.657 404.5,413.5C 402.909,410.278 403.242,407.278 405.5,404.5 Z"/></g>
<g><path style="opacity:0.778" fill="#010706" d="M 266.5,399.5 C 269.93,399.107 273.096,399.773 276,401.5C 276.872,406.456 278.039,411.289 279.5,416C 277.571,419.136 275.237,419.303 272.5,416.5C 267.337,419.795 263.67,418.629 261.5,413C 261.862,411.775 262.362,410.609 263,409.5C 265.573,407.694 268.407,406.36 271.5,405.5C 269.276,404.22 267.276,404.553 265.5,406.5C 263.525,405.725 262.691,404.391 263,402.5C 264.145,401.364 265.312,400.364 266.5,399.5 Z M 268.5,410.5 C 272.089,410.484 272.255,411.484 269,413.5C 267.317,412.824 267.15,411.824 268.5,410.5 Z"/></g>
<g><path style="opacity:0.661" fill="#010506" d="M 181.5,399.5 C 184.807,399.063 187.807,399.73 190.5,401.5C 191.796,406.388 193.129,411.221 194.5,416C 192.275,419.165 189.775,419.332 187,416.5C 184,419.167 181,419.167 178,416.5C 175.442,411.875 176.609,408.709 181.5,407C 179.115,406.945 177.781,405.778 177.5,403.5C 178.437,401.712 179.77,400.379 181.5,399.5 Z M 182.5,404.5 C 187.021,404.326 187.355,404.993 183.5,406.5C 182.702,406.043 182.369,405.376 182.5,404.5 Z M 184.5,411.5 C 185.475,413.54 184.808,413.873 182.5,412.5C 182.957,411.702 183.624,411.369 184.5,411.5 Z"/></g>
<g><path style="opacity:0.973" fill="#010606" d="M 343.5,399.5 C 353.746,399.015 357.579,403.681 355,413.5C 351.49,418.447 346.99,419.613 341.5,417C 335.855,410.404 336.521,404.571 343.5,399.5 Z M 345.5,404.5 C 348.656,404.529 350.322,406.196 350.5,409.5C 348.106,414.808 345.773,414.808 343.5,409.5C 343.902,407.7 344.569,406.033 345.5,404.5 Z"/></g>
<g><path style="opacity:0.843" fill="#000607" d="M 376.5,394.5 C 378.527,394.338 380.527,394.505 382.5,395C 383.874,397.583 385.374,400.083 387,402.5C 388.626,400.083 390.126,397.583 391.5,395C 393.579,394.192 395.579,394.359 397.5,395.5C 392.398,402.19 389.731,409.69 389.5,418C 387.559,418.743 385.726,418.576 384,417.5C 384,414.833 384,412.167 384,409.5C 381.489,404.478 378.989,399.478 376.5,394.5 Z"/></g>
<g><path style="opacity:0.876" fill="#010707" d="M 104.5,399.5 C 107.602,399.154 110.435,399.821 113,401.5C 113.847,406.23 115.014,410.897 116.5,415.5C 115.107,419.15 112.94,419.484 110,416.5C 102.33,420.333 98.9968,417.999 100,409.5C 102.573,407.694 105.407,406.36 108.5,405.5C 106.412,404.511 104.412,404.844 102.5,406.5C 100.525,405.725 99.6913,404.391 100,402.5C 101.409,401.219 102.909,400.219 104.5,399.5 Z M 106.5,410.5 C 108.048,410.821 108.715,411.821 108.5,413.5C 105.752,413.598 105.086,412.598 106.5,410.5 Z"/></g>
</svg>
