<?xml version="1.0" encoding="UTF-8"?>
<!DOCTYPE svg PUBLIC "-//W3C//DTD SVG 1.1//EN" "http://www.w3.org/Graphics/SVG/1.1/DTD/svg11.dtd">
<svg xmlns="http://www.w3.org/2000/svg" version="1.1" width="500px" height="500px" style="shape-rendering:geometricPrecision; text-rendering:geometricPrecision; image-rendering:optimizeQuality; fill-rule:evenodd; clip-rule:evenodd" xmlns:xlink="http://www.w3.org/1999/xlink">
<g><path style="opacity:1" fill="#22bab2" d="M 354.5,80.5 C 349.197,81.2298 343.864,81.3964 338.5,81C 335.441,81.6446 332.441,82.478 329.5,83.5C 330.689,84.4287 332.022,84.762 333.5,84.5C 331.393,85.4682 329.059,85.8016 326.5,85.5C 323.031,86.1128 321.031,84.7794 320.5,81.5C 319.209,81.7373 318.209,81.404 317.5,80.5C 329.932,77.8547 342.266,77.8547 354.5,80.5 Z"/></g>
<g><path style="opacity:1" fill="#12bfb2" d="M 354.5,80.5 C 353.275,82.4491 353.942,83.7825 356.5,84.5C 356,84.8333 355.5,85.1667 355,85.5C 347.878,84.5523 340.712,84.219 333.5,84.5C 332.022,84.762 330.689,84.4287 329.5,83.5C 332.441,82.478 335.441,81.6446 338.5,81C 343.864,81.3964 349.197,81.2298 354.5,80.5 Z"/></g>
<g><path style="opacity:1" fill="#20bab2" d="M 317.5,80.5 C 318.209,81.404 319.209,81.7373 320.5,81.5C 321.031,84.7794 323.031,86.1128 326.5,85.5C 326.5,85.8333 326.5,86.1667 326.5,86.5C 310.881,89.1507 295.881,93.8174 281.5,100.5C 282.122,98.665 283.456,97.4983 285.5,97C 283.559,96.6964 281.893,95.8631 280.5,94.5C 279.186,95.3128 278.019,96.3128 277,97.5C 275.961,96.7562 275.461,95.7562 275.5,94.5C 288.75,87.6389 302.75,82.9722 317.5,80.5 Z"/></g>
<g><path style="opacity:1" fill="#1cbcb2" d="M 372.5,91.5 C 368.686,90.9636 365.019,89.9636 361.5,88.5C 361.5,87.5 361.5,86.5 361.5,85.5C 363.547,85.4889 365.547,85.1556 367.5,84.5C 370.634,86.2142 373.968,87.5475 377.5,88.5C 377.833,89.1667 378.167,89.8333 378.5,90.5C 376.604,91.4656 374.604,91.7989 372.5,91.5 Z"/></g>
<g><path style="opacity:1" fill="#28b8b2" d="M 354.5,80.5 C 367.443,81.9254 379.443,85.9254 390.5,92.5C 387.167,93.1667 383.833,93.8333 380.5,94.5C 377.603,93.871 374.936,92.871 372.5,91.5C 374.604,91.7989 376.604,91.4656 378.5,90.5C 378.167,89.8333 377.833,89.1667 377.5,88.5C 373.968,87.5475 370.634,86.2142 367.5,84.5C 365.547,85.1556 363.547,85.4889 361.5,85.5C 361.5,86.5 361.5,87.5 361.5,88.5C 349.913,86.7695 338.246,86.1029 326.5,86.5C 326.5,86.1667 326.5,85.8333 326.5,85.5C 329.059,85.8016 331.393,85.4682 333.5,84.5C 340.712,84.219 347.878,84.5523 355,85.5C 355.5,85.1667 356,84.8333 356.5,84.5C 353.942,83.7825 353.275,82.4491 354.5,80.5 Z"/></g>
<g><path style="opacity:1" fill="#23bab4" d="M 390.5,92.5 C 395.727,94.7455 400.394,97.7455 404.5,101.5C 401.665,100.543 398.999,100.876 396.5,102.5C 390.897,100.195 385.564,97.5283 380.5,94.5C 383.833,93.8333 387.167,93.1667 390.5,92.5 Z"/></g>
<g><path style="opacity:1" fill="#1dbdb4" d="M 275.5,94.5 C 275.461,95.7562 275.961,96.7562 277,97.5C 278.019,96.3128 279.186,95.3128 280.5,94.5C 281.893,95.8631 283.559,96.6964 285.5,97C 283.456,97.4983 282.122,98.665 281.5,100.5C 278.001,102.75 274.335,104.75 270.5,106.5C 265.206,106.318 265.206,105.818 270.5,105C 269.743,103.488 268.743,102.154 267.5,101C 270.64,100.009 272.974,98.1756 274.5,95.5C 274.5,94.8333 274.833,94.5 275.5,94.5 Z"/></g>
<g><path style="opacity:1" fill="#21b9b1" d="M 274.5,95.5 C 272.974,98.1756 270.64,100.009 267.5,101C 268.743,102.154 269.743,103.488 270.5,105C 265.206,105.818 265.206,106.318 270.5,106.5C 267.106,109.221 263.439,111.554 259.5,113.5C 256.675,112.522 255.342,110.522 255.5,107.5C 261.29,102.764 267.624,98.7641 274.5,95.5 Z"/></g>
<g><path style="opacity:1" fill="#21bbb1" d="M 255.5,107.5 C 255.342,110.522 256.675,112.522 259.5,113.5C 257.2,115.984 254.533,117.984 251.5,119.5C 251.009,116.848 249.342,115.348 246.5,115C 247.448,114.517 248.448,114.351 249.5,114.5C 249.5,113.5 249.5,112.5 249.5,111.5C 251.147,109.674 253.147,108.34 255.5,107.5 Z"/></g>
<g><path style="opacity:1" fill="#25bab0" d="M 404.5,101.5 C 409.049,103.869 413.215,106.869 417,110.5C 419.41,113.418 418.91,115.418 415.5,116.5C 408.962,112.069 402.628,107.402 396.5,102.5C 398.999,100.876 401.665,100.543 404.5,101.5 Z"/></g>
<g><path style="opacity:1" fill="#29b7b1" d="M 249.5,111.5 C 249.5,112.5 249.5,113.5 249.5,114.5C 248.448,114.351 247.448,114.517 246.5,115C 249.342,115.348 251.009,116.848 251.5,119.5C 244.858,125.137 238.192,130.804 231.5,136.5C 232.378,131.731 230.711,129.731 226.5,130.5C 228.167,128.167 230.167,126.167 232.5,124.5C 232.985,126.085 232.319,127.585 230.5,129C 232.37,129.975 234.37,130.475 236.5,130.5C 238.593,128.342 240.259,126.008 241.5,123.5C 247.054,122.911 247.888,120.577 244,116.5C 242.337,118.158 241.504,120.158 241.5,122.5C 239.089,123.268 236.756,123.602 234.5,123.5C 238.898,118.771 243.898,114.771 249.5,111.5 Z"/></g>
<g><path style="opacity:1" fill="#14bfb5" d="M 232.5,124.5 C 232.842,123.662 233.508,123.328 234.5,123.5C 236.756,123.602 239.089,123.268 241.5,122.5C 241.504,120.158 242.337,118.158 244,116.5C 247.888,120.577 247.054,122.911 241.5,123.5C 240.259,126.008 238.593,128.342 236.5,130.5C 234.37,130.475 232.37,129.975 230.5,129C 232.319,127.585 232.985,126.085 232.5,124.5 Z"/></g>
<g><path style="opacity:1" fill="#22bab0" d="M 424.5,127.5 C 433.745,126.899 436.411,130.732 432.5,139C 424.243,141.96 420.743,139.127 422,130.5C 422.698,129.309 423.531,128.309 424.5,127.5 Z"/></g>
<g><path style="opacity:1" fill="#20bbb2" d="M 231.5,136.5 C 228.5,140.167 225.167,143.5 221.5,146.5C 220.5,146.5 219.5,146.5 218.5,146.5C 218.649,145.448 218.483,144.448 218,143.5C 217.667,143.833 217.333,144.167 217,144.5C 215.698,143.915 214.531,143.249 213.5,142.5C 217.207,137.792 221.54,133.792 226.5,130.5C 230.711,129.731 232.378,131.731 231.5,136.5 Z"/></g>
<g><path style="opacity:1" fill="#22b9b2" d="M 213.5,142.5 C 214.531,143.249 215.698,143.915 217,144.5C 217.333,144.167 217.667,143.833 218,143.5C 218.483,144.448 218.649,145.448 218.5,146.5C 219.5,146.5 220.5,146.5 221.5,146.5C 219.167,149.5 216.5,152.167 213.5,154.5C 213.769,152.571 213.269,150.905 212,149.5C 209.213,151.472 206.38,153.306 203.5,155C 204.516,155.519 205.182,156.353 205.5,157.5C 204.714,159.041 203.714,160.374 202.5,161.5C 200.549,162.641 198.549,162.641 196.5,161.5C 201.825,154.843 207.491,148.51 213.5,142.5 Z"/></g>
<g><path style="opacity:1" fill="#22bbb1" d="M 213.5,154.5 C 210.202,159.132 206.536,163.466 202.5,167.5C 203.275,165.388 203.275,163.388 202.5,161.5C 203.714,160.374 204.714,159.041 205.5,157.5C 205.182,156.353 204.516,155.519 203.5,155C 206.38,153.306 209.213,151.472 212,149.5C 213.269,150.905 213.769,152.571 213.5,154.5 Z"/></g>
<g><path style="opacity:1" fill="#1fbbb2" d="M 196.5,161.5 C 198.549,162.641 200.549,162.641 202.5,161.5C 203.275,163.388 203.275,165.388 202.5,167.5C 199.514,171.817 196.18,175.817 192.5,179.5C 191.5,179.5 190.5,179.5 189.5,179.5C 187.214,178.66 186.881,177.16 188.5,175C 188.164,173.97 187.497,173.47 186.5,173.5C 189.486,169.183 192.82,165.183 196.5,161.5 Z"/></g>
<g><path style="opacity:1" fill="#1bbdb1" d="M 186.5,173.5 C 187.497,173.47 188.164,173.97 188.5,175C 186.881,177.16 187.214,178.66 189.5,179.5C 189.611,180.117 189.944,180.617 190.5,181C 188.167,181.333 185.833,181.667 183.5,182C 184.872,183.242 185.872,184.742 186.5,186.5C 186.154,187.696 185.654,187.696 185,186.5C 184.517,187.448 184.351,188.448 184.5,189.5C 181.99,190.157 179.823,191.491 178,193.5C 175.926,192.928 174.76,191.595 174.5,189.5C 178.147,183.86 182.147,178.527 186.5,173.5 Z"/></g>
<g><path style="opacity:1" fill="#29b7af" d="M 189.5,179.5 C 190.5,179.5 191.5,179.5 192.5,179.5C 184.843,190.805 177.177,202.138 169.5,213.5C 169.167,213.5 168.833,213.5 168.5,213.5C 169.922,210.319 171.588,207.319 173.5,204.5C 175.161,202.511 176.328,200.178 177,197.5C 177.654,198.696 178.154,198.696 178.5,197.5C 177.817,194.539 176.984,194.205 176,196.5C 174.301,195.594 172.467,195.261 170.5,195.5C 171.475,193.205 172.808,191.205 174.5,189.5C 174.76,191.595 175.926,192.928 178,193.5C 179.823,191.491 181.99,190.157 184.5,189.5C 184.351,188.448 184.517,187.448 185,186.5C 185.654,187.696 186.154,187.696 186.5,186.5C 185.872,184.742 184.872,183.242 183.5,182C 185.833,181.667 188.167,181.333 190.5,181C 189.944,180.617 189.611,180.117 189.5,179.5 Z"/></g>
<g><path style="opacity:1" fill="#13bfb4" d="M 173.5,204.5 C 171.588,207.319 169.922,210.319 168.5,213.5C 167.839,212.282 167.172,210.949 166.5,209.5C 163.766,212.096 163.1,215.096 164.5,218.5C 163.758,219.287 162.925,219.953 162,220.5C 161.097,219.299 159.931,218.465 158.5,218C 160.125,217.147 160.458,216.147 159.5,215C 162.624,211.26 165.124,207.094 167,202.5C 167.669,205.028 168.502,205.028 169.5,202.5C 170.689,201.571 172.022,201.238 173.5,201.5C 173.5,202.5 173.5,203.5 173.5,204.5 Z"/></g>
<g><path style="opacity:1" fill="#21b9b2" d="M 173.5,204.5 C 173.5,203.5 173.5,202.5 173.5,201.5C 172.022,201.238 170.689,201.571 169.5,202.5C 168.502,205.028 167.669,205.028 167,202.5C 165.124,207.094 162.624,211.26 159.5,215C 160.458,216.147 160.125,217.147 158.5,218C 159.931,218.465 161.097,219.299 162,220.5C 162.925,219.953 163.758,219.287 164.5,218.5C 163.1,215.096 163.766,212.096 166.5,209.5C 167.172,210.949 167.839,212.282 168.5,213.5C 168.833,213.5 169.167,213.5 169.5,213.5C 166.486,218.203 163.486,222.87 160.5,227.5C 158.855,223.891 157.522,220.224 156.5,216.5C 160.932,209.291 165.598,202.291 170.5,195.5C 172.467,195.261 174.301,195.594 176,196.5C 176.984,194.205 177.817,194.539 178.5,197.5C 178.154,198.696 177.654,198.696 177,197.5C 176.328,200.178 175.161,202.511 173.5,204.5 Z"/></g>
<g><path style="opacity:1" fill="#1cbcb2" d="M 156.5,216.5 C 157.522,220.224 158.855,223.891 160.5,227.5C 160.5,228.167 160.167,228.5 159.5,228.5C 157.827,229.343 156.66,230.676 156,232.5C 154.559,231.74 153.059,231.074 151.5,230.5C 150.614,229.675 150.281,228.675 150.5,227.5C 151.726,223.38 153.726,219.713 156.5,216.5 Z"/></g>
<g><path style="opacity:1" fill="#27bdb6" d="M 40.5,222.5 C 39.5178,221.859 38.5178,221.193 37.5,220.5C 35.661,222.527 35.161,224.86 36,227.5C 37.9033,230.008 39.07,232.841 39.5,236C 39.1639,237.03 38.4972,237.53 37.5,237.5C 37.8808,235.058 37.2141,234.391 35.5,235.5C 34.8326,238.642 34.166,241.642 33.5,244.5C 33.735,239.124 33.4017,233.791 32.5,228.5C 33.0639,226.181 33.5639,223.847 34,221.5C 36.8642,218.598 39.0308,218.932 40.5,222.5 Z"/></g>
<g><path style="opacity:1" fill="#24b9b1" d="M 220.5,245.5 C 218.386,246.907 216.886,248.907 216,251.5C 214.513,249.728 214.18,247.728 215,245.5C 220.323,243.012 221.823,239.012 219.5,233.5C 218.591,235.375 217.257,236.708 215.5,237.5C 216.172,233.812 217.005,230.145 218,226.5C 219.733,224.398 221.733,224.065 224,225.5C 223.484,232.241 222.318,238.908 220.5,245.5 Z"/></g>
<g><path style="opacity:1" fill="#25b8b1" d="M 150.5,227.5 C 150.281,228.675 150.614,229.675 151.5,230.5C 153.059,231.074 154.559,231.74 156,232.5C 156.66,230.676 157.827,229.343 159.5,228.5C 154.496,237.841 149.496,247.174 144.5,256.5C 144.859,254.234 144.192,252.401 142.5,251C 143.12,248.527 143.786,246.027 144.5,243.5C 145.892,244.605 147.059,245.939 148,247.5C 149.934,245.581 149.767,244.081 147.5,243C 149.521,242.599 150.855,241.432 151.5,239.5C 150.459,237.415 148.959,235.748 147,234.5C 146.777,236.881 145.61,238.547 143.5,239.5C 145.043,234.976 147.377,230.976 150.5,227.5 Z"/></g>
<g><path style="opacity:1" fill="#26bab1" d="M 194.5,242.5 C 193.911,239.266 191.911,237.933 188.5,238.5C 189.327,235.868 190.16,233.202 191,230.5C 193.91,227.691 196.077,228.191 197.5,232C 196.864,235.728 195.864,239.228 194.5,242.5 Z"/></g>
<g><path style="opacity:1" fill="#22bab0" d="M 40.5,222.5 C 41.4507,232.477 42.1173,242.477 42.5,252.5C 41.735,251.34 40.735,250.34 39.5,249.5C 38.8076,250.025 38.3076,250.692 38,251.5C 37.9133,246.727 37.7467,242.061 37.5,237.5C 38.4972,237.53 39.1639,237.03 39.5,236C 39.07,232.841 37.9033,230.008 36,227.5C 35.161,224.86 35.661,222.527 37.5,220.5C 38.5178,221.193 39.5178,221.859 40.5,222.5 Z"/></g>
<g><path style="opacity:1" fill="#24bab1" d="M 188.5,238.5 C 191.911,237.933 193.911,239.266 194.5,242.5C 192.961,250.86 191.295,259.194 189.5,267.5C 189.197,263.355 189.03,259.021 189,254.5C 187.871,256.141 186.371,257.141 184.5,257.5C 185.992,251.2 187.325,244.866 188.5,238.5 Z"/></g>
<g><path style="opacity:1" fill="#1cbdb2" d="M 144.5,256.5 C 144.672,257.492 144.338,258.158 143.5,258.5C 141.974,256.55 140.974,254.217 140.5,251.5C 138.783,252.668 138.116,254.335 138.5,256.5C 137.167,256.5 135.833,256.5 134.5,256.5C 136.74,250.35 139.74,244.684 143.5,239.5C 145.61,238.547 146.777,236.881 147,234.5C 148.959,235.748 150.459,237.415 151.5,239.5C 150.855,241.432 149.521,242.599 147.5,243C 149.767,244.081 149.934,245.581 148,247.5C 147.059,245.939 145.892,244.605 144.5,243.5C 143.786,246.027 143.12,248.527 142.5,251C 144.192,252.401 144.859,254.234 144.5,256.5 Z"/></g>
<g><path style="opacity:1" fill="#21b9b2" d="M 403.5,243.5 C 403.325,247.541 403.158,251.541 403,255.5C 403.508,253.096 404.675,252.429 406.5,253.5C 405.767,256.889 404.767,260.223 403.5,263.5C 401.836,262.051 401.002,260.051 401,257.5C 398.709,260.835 399.209,263.668 402.5,266C 399.53,269.166 397.697,268.332 397,263.5C 394.11,265.596 393.943,267.596 396.5,269.5C 392.501,274.29 387.835,275.29 382.5,272.5C 385.654,271.905 388.654,271.905 391.5,272.5C 391.768,270.901 391.434,269.568 390.5,268.5C 393.498,265.333 396.331,262 399,258.5C 402.304,249.626 400.137,247.626 392.5,252.5C 391.027,251.929 389.36,251.929 387.5,252.5C 387.5,251.5 387.5,250.5 387.5,249.5C 388.894,247.292 390.894,245.792 393.5,245C 396.793,244.174 400.126,243.674 403.5,243.5 Z"/></g>
<g><path style="opacity:1" fill="#23b9b3" d="M 220.5,245.5 C 219.79,249.025 218.79,252.358 217.5,255.5C 217.631,254.624 217.298,253.957 216.5,253.5C 215.476,254.853 214.143,255.52 212.5,255.5C 212.771,257.38 212.104,258.713 210.5,259.5C 211.858,252.072 213.524,244.738 215.5,237.5C 217.257,236.708 218.591,235.375 219.5,233.5C 221.823,239.012 220.323,243.012 215,245.5C 214.18,247.728 214.513,249.728 216,251.5C 216.886,248.907 218.386,246.907 220.5,245.5 Z"/></g>
<g><path style="opacity:1" fill="#29b6ad" d="M 329.5,245.5 C 331.948,245.01 333.615,245.843 334.5,248C 334.267,252.982 331.934,256.482 327.5,258.5C 326.119,258 325.453,257 325.5,255.5C 326.292,251.92 327.626,248.587 329.5,245.5 Z"/></g>
<g><path style="opacity:1" fill="#14beb5" d="M 37.5,237.5 C 37.7467,242.061 37.9133,246.727 38,251.5C 38.3076,250.692 38.8076,250.025 39.5,249.5C 40.735,250.34 41.735,251.34 42.5,252.5C 43.038,254.117 43.3713,255.784 43.5,257.5C 42.8333,261.167 42.1667,264.833 41.5,268.5C 40.2333,264.712 38.5666,260.712 36.5,256.5C 38.0189,253.723 37.3523,251.723 34.5,250.5C 34.6747,248.379 34.3414,246.379 33.5,244.5C 34.166,241.642 34.8326,238.642 35.5,235.5C 37.2141,234.391 37.8808,235.058 37.5,237.5 Z"/></g>
<g><path style="opacity:1" fill="#22baaf" d="M 406.5,263.5 C 405.662,263.842 405.328,264.508 405.5,265.5C 404.833,264.833 404.167,264.167 403.5,263.5C 404.767,260.223 405.767,256.889 406.5,253.5C 404.675,252.429 403.508,253.096 403,255.5C 403.158,251.541 403.325,247.541 403.5,243.5C 405.366,242.986 407.2,242.32 409,241.5C 410.885,241.862 411.719,243.029 411.5,245C 410.215,251.308 408.549,257.475 406.5,263.5 Z"/></g>
<g><path style="opacity:1" fill="#24b8b1" d="M 387.5,249.5 C 387.5,250.5 387.5,251.5 387.5,252.5C 389.36,251.929 391.027,251.929 392.5,252.5C 388.879,256.862 387.379,261.862 388,267.5C 388.383,268.056 388.883,268.389 389.5,268.5C 389.217,269.289 388.717,269.956 388,270.5C 386.847,267.289 386.18,263.956 386,260.5C 384.815,258.441 383.648,258.274 382.5,260C 383.535,262.535 384.535,265.035 385.5,267.5C 383.089,267.863 381.589,266.863 381,264.5C 380.184,265.823 379.017,266.489 377.5,266.5C 379.958,262.081 382.125,257.414 384,252.5C 385.039,251.29 386.206,250.29 387.5,249.5 Z"/></g>
<g><path style="opacity:1" fill="#27b7b0" d="M 405.5,273.5 C 405.792,270.624 405.792,267.957 405.5,265.5C 405.328,264.508 405.662,263.842 406.5,263.5C 406.369,264.376 406.702,265.043 407.5,265.5C 414.943,259.782 422.943,255.115 431.5,251.5C 431.607,253.903 430.607,255.736 428.5,257C 420.804,262.509 413.137,268.009 405.5,273.5 Z"/></g>
<g><path style="opacity:1" fill="#24b8b2" d="M 367.5,267.5 C 365.189,266.039 365.189,264.206 367.5,262C 366.285,259.904 365.451,260.071 365,262.5C 364.311,261.643 363.478,260.977 362.5,260.5C 361.611,262.007 360.611,263.34 359.5,264.5C 358.833,265.833 357.833,266.833 356.5,267.5C 356.539,266.244 356.039,265.244 355,264.5C 351.156,266.238 347.823,265.571 345,262.5C 344.503,264.81 344.337,267.143 344.5,269.5C 343.167,269.5 341.833,269.5 340.5,269.5C 342.138,267.104 343.304,264.438 344,261.5C 348.88,257.121 351.213,258.121 351,264.5C 355.391,259.383 360.891,257.217 367.5,258C 368.818,261.269 368.818,264.435 367.5,267.5 Z"/></g>
<g><path style="opacity:1" fill="#1dbcb2" d="M 189.5,267.5 C 187.582,274.754 185.915,282.088 184.5,289.5C 182.78,291.658 181.947,294.325 182,297.5C 180.968,291.178 180.135,284.844 179.5,278.5C 180.7,271.367 182.367,264.367 184.5,257.5C 186.371,257.141 187.871,256.141 189,254.5C 189.03,259.021 189.197,263.355 189.5,267.5 Z"/></g>
<g><path style="opacity:0.896" fill="#25beb9" d="M 34.5,250.5 C 37.3523,251.723 38.0189,253.723 36.5,256.5C 36.3342,261.179 36.5008,265.845 37,270.5C 37.414,270.957 37.914,271.291 38.5,271.5C 39.6632,277.137 39.8299,282.804 39,288.5C 38.6097,291.104 37.7763,293.438 36.5,295.5C 35.2104,280.532 34.5437,265.532 34.5,250.5 Z"/></g>
<g><path style="opacity:1" fill="#1cbcb4" d="M 143.5,258.5 C 139.5,267.167 135.5,275.833 131.5,284.5C 130.399,283.2 129.066,282.7 127.5,283C 128.669,285.425 128.669,287.758 127.5,290C 125,291.167 123.167,293 122,295.5C 121.777,293.119 120.61,291.453 118.5,290.5C 123.321,278.861 128.655,267.527 134.5,256.5C 135.833,256.5 137.167,256.5 138.5,256.5C 138.116,254.335 138.783,252.668 140.5,251.5C 140.974,254.217 141.974,256.55 143.5,258.5 Z"/></g>
<g><path style="opacity:0.999" fill="#1abdb2" d="M 389.5,268.5 C 389.833,268.5 390.167,268.5 390.5,268.5C 391.434,269.568 391.768,270.901 391.5,272.5C 388.654,271.905 385.654,271.905 382.5,272.5C 382.013,271.527 381.513,270.527 381,269.5C 379.549,271.464 377.716,272.797 375.5,273.5C 376.933,271.442 377.6,269.108 377.5,266.5C 379.017,266.489 380.184,265.823 381,264.5C 381.589,266.863 383.089,267.863 385.5,267.5C 384.535,265.035 383.535,262.535 382.5,260C 383.648,258.274 384.815,258.441 386,260.5C 386.18,263.956 386.847,267.289 388,270.5C 388.717,269.956 389.217,269.289 389.5,268.5 Z"/></g>
<g><path style="opacity:1" fill="#28b8af" d="M 306.5,269.5 C 305.71,268.391 305.21,267.058 305,265.5C 304.667,265.833 304.333,266.167 304,266.5C 302.288,264.948 300.455,263.615 298.5,262.5C 298.735,261.903 299.235,261.57 300,261.5C 301.626,262.289 303.126,263.289 304.5,264.5C 308.627,262 312.96,261 317.5,261.5C 320.673,266.298 319.673,269.965 314.5,272.5C 313.988,270.149 312.988,268.149 311.5,266.5C 309.971,267.763 308.305,268.763 306.5,269.5 Z"/></g>
<g><path style="opacity:1" fill="#1dbbb5" d="M 298.5,262.5 C 300.455,263.615 302.288,264.948 304,266.5C 304.333,266.167 304.667,265.833 305,265.5C 305.21,267.058 305.71,268.391 306.5,269.5C 305.5,271.167 304.167,272.5 302.5,273.5C 304.025,266.818 302.859,266.152 299,271.5C 298.667,271.167 298.333,270.833 298,270.5C 297.781,271.938 297.281,273.271 296.5,274.5C 294.929,273.691 293.262,273.357 291.5,273.5C 292.172,272.733 293.005,272.066 294,271.5C 294.663,267.965 296.163,264.965 298.5,262.5 Z"/></g>
<g><path style="opacity:1" fill="#15beb2" d="M 403.5,263.5 C 404.167,264.167 404.833,264.833 405.5,265.5C 405.792,267.957 405.792,270.624 405.5,273.5C 405.5,274.167 405.167,274.5 404.5,274.5C 402.121,275.567 401.121,274.567 401.5,271.5C 400.041,271.567 398.708,271.234 397.5,270.5C 397.5,269.833 397.167,269.5 396.5,269.5C 393.943,267.596 394.11,265.596 397,263.5C 397.697,268.332 399.53,269.166 402.5,266C 399.209,263.668 398.709,260.835 401,257.5C 401.002,260.051 401.836,262.051 403.5,263.5 Z"/></g>
<g><path style="opacity:1" fill="#1dbdb2" d="M 356.5,267.5 C 354.167,270.5 351.5,273.167 348.5,275.5C 347.25,275.577 346.417,276.244 346,277.5C 345.51,276.207 345.343,274.873 345.5,273.5C 344.325,273.719 343.325,273.386 342.5,272.5C 343.193,271.482 343.859,270.482 344.5,269.5C 344.337,267.143 344.503,264.81 345,262.5C 347.823,265.571 351.156,266.238 355,264.5C 356.039,265.244 356.539,266.244 356.5,267.5 Z"/></g>
<g><path style="opacity:1" fill="#1fbbb3" d="M 367.5,267.5 C 367.34,269.199 367.506,270.866 368,272.5C 371.318,270.671 374.484,268.671 377.5,266.5C 377.6,269.108 376.933,271.442 375.5,273.5C 371.804,277.954 367.137,279.62 361.5,278.5C 360.808,277.975 360.308,277.308 360,276.5C 359.89,272.303 359.724,268.303 359.5,264.5C 360.611,263.34 361.611,262.007 362.5,260.5C 363.478,260.977 364.311,261.643 365,262.5C 365.451,260.071 366.285,259.904 367.5,262C 365.189,264.206 365.189,266.039 367.5,267.5 Z"/></g>
<g><path style="opacity:1" fill="#20bcb3" d="M 217.5,255.5 C 215.418,267.576 213.085,279.576 210.5,291.5C 209.624,291.631 208.957,291.298 208.5,290.5C 209.445,287.708 209.445,285.208 208.5,283C 207.692,281.294 206.359,280.461 204.5,280.5C 206.362,273.372 208.362,266.372 210.5,259.5C 212.104,258.713 212.771,257.38 212.5,255.5C 214.143,255.52 215.476,254.853 216.5,253.5C 217.298,253.957 217.631,254.624 217.5,255.5 Z"/></g>
<g><path style="opacity:1" fill="#24b8b0" d="M 236.5,284.5 C 234.951,284.736 233.451,284.736 232,284.5C 231.646,287.914 229.812,289.914 226.5,290.5C 227.476,289.185 228.476,287.852 229.5,286.5C 223.998,274.164 227.998,268.664 241.5,270C 245.25,272.342 245.25,274.509 241.5,276.5C 239.587,275.627 237.753,274.627 236,273.5C 233.793,274.997 233.126,276.997 234,279.5C 234.847,281.193 235.68,282.86 236.5,284.5 Z"/></g>
<g><path style="opacity:1" fill="#23bbb3" d="M 397.5,270.5 C 398.708,271.234 400.041,271.567 401.5,271.5C 401.121,274.567 402.121,275.567 404.5,274.5C 403.118,282.019 401.451,289.352 399.5,296.5C 399.579,295.07 399.246,293.736 398.5,292.5C 401.249,287.824 400.582,283.658 396.5,280C 397.167,278.667 398.167,277.667 399.5,277C 397.753,276.648 396.086,276.148 394.5,275.5C 395.752,273.999 396.752,272.332 397.5,270.5 Z"/></g>
<g><path style="opacity:1" fill="#1ebcb3" d="M 277.5,270.5 C 279.544,272.219 281.544,273.886 283.5,275.5C 285.097,278.857 287.264,279.19 290,276.5C 291.03,276.836 291.53,277.503 291.5,278.5C 287.495,279.498 284.161,281.498 281.5,284.5C 280.024,285.733 278.357,286.733 276.5,287.5C 275.034,286.865 273.7,286.031 272.5,285C 273.649,283.256 274.983,283.089 276.5,284.5C 276.998,281.407 277.998,278.574 279.5,276C 276.064,274.787 272.73,274.287 269.5,274.5C 271.911,272.59 274.577,271.256 277.5,270.5 Z"/></g>
<g><path style="opacity:1" fill="#1fbbb1" d="M 302.5,273.5 C 299.654,279.358 296.654,285.192 293.5,291C 291.272,291.82 289.272,291.487 287.5,290C 288.733,286.133 290.067,282.3 291.5,278.5C 291.53,277.503 291.03,276.836 290,276.5C 287.264,279.19 285.097,278.857 283.5,275.5C 286.221,275.037 288.888,274.371 291.5,273.5C 293.262,273.357 294.929,273.691 296.5,274.5C 297.281,273.271 297.781,271.938 298,270.5C 298.333,270.833 298.667,271.167 299,271.5C 302.859,266.152 304.025,266.818 302.5,273.5 Z"/></g>
<g><path style="opacity:1" fill="#1dbdb5" d="M 340.5,269.5 C 341.833,269.5 343.167,269.5 344.5,269.5C 343.859,270.482 343.193,271.482 342.5,272.5C 343.325,273.386 344.325,273.719 345.5,273.5C 345.343,274.873 345.51,276.207 346,277.5C 346.417,276.244 347.25,275.577 348.5,275.5C 347.081,278.1 345.415,280.6 343.5,283C 340.802,283.815 338.468,283.315 336.5,281.5C 337.768,280.213 337.435,279.213 335.5,278.5C 337.22,275.798 338.887,273.132 340.5,270.5C 340.5,270.167 340.5,269.833 340.5,269.5 Z"/></g>
<g><path style="opacity:1" fill="#24b9b1" d="M 91.5,284.5 C 90.0019,281.669 87.6685,280.002 84.5,279.5C 84.7678,281.099 84.4345,282.432 83.5,283.5C 81.4231,277.447 78.7565,277.114 75.5,282.5C 74.8166,280.824 73.4832,280.157 71.5,280.5C 71.7373,279.209 71.404,278.209 70.5,277.5C 78.7886,267.607 85.6219,268.607 91,280.5C 91.49,281.793 91.6567,283.127 91.5,284.5 Z"/></g>
<g><path style="opacity:1" fill="#21bbb4" d="M 264.5,275.5 C 265.278,276.156 265.944,276.989 266.5,278C 265.279,280.36 263.946,281.86 262.5,282.5C 261.493,281.172 260.16,280.172 258.5,279.5C 257.261,281.007 257.595,282.174 259.5,283C 257.565,284.238 255.565,284.738 253.5,284.5C 252.954,285.772 252.621,287.106 252.5,288.5C 253.923,291.275 254.589,294.275 254.5,297.5C 257.451,297.287 260.118,297.954 262.5,299.5C 260.333,300.641 258,301.641 255.5,302.5C 253.486,307.937 251.486,313.27 249.5,318.5C 248.657,315.095 247.324,312.095 245.5,309.5C 245.5,308.5 245.5,307.5 245.5,306.5C 246.404,305.791 246.737,304.791 246.5,303.5C 249.109,297.828 250.609,291.828 251,285.5C 247.115,287.168 244.282,289.834 242.5,293.5C 241.514,291.574 240.514,289.574 239.5,287.5C 243.665,284.864 247.998,282.364 252.5,280C 253.687,277.226 255.02,274.559 256.5,272C 257.944,271.219 259.277,271.386 260.5,272.5C 261.154,274.115 261.654,275.782 262,277.5C 262.708,276.619 263.542,275.953 264.5,275.5 Z"/></g>
<g><path style="opacity:1" fill="#23bab2" d="M 340.5,270.5 C 338.887,273.132 337.22,275.798 335.5,278.5C 337.435,279.213 337.768,280.213 336.5,281.5C 331.689,286.097 326.022,287.43 319.5,285.5C 317.894,278.573 318.727,271.907 322,265.5C 324.536,261.968 326.703,261.968 328.5,265.5C 327.498,269.506 326.498,273.506 325.5,277.5C 325.833,278.5 326.167,279.5 326.5,280.5C 331.901,278.139 336.567,274.805 340.5,270.5 Z"/></g>
<g><path style="opacity:1" fill="#1abcb1" d="M 262.5,282.5 C 262.5,283.167 262.5,283.833 262.5,284.5C 261.111,287.607 259.445,290.607 257.5,293.5C 257.624,294.107 257.957,294.44 258.5,294.5C 261.484,295.325 264.151,296.659 266.5,298.5C 265.292,299.234 263.959,299.567 262.5,299.5C 260.118,297.954 257.451,297.287 254.5,297.5C 254.589,294.275 253.923,291.275 252.5,288.5C 252.621,287.106 252.954,285.772 253.5,284.5C 255.565,284.738 257.565,284.238 259.5,283C 257.595,282.174 257.261,281.007 258.5,279.5C 260.16,280.172 261.493,281.172 262.5,282.5 Z"/></g>
<g><path style="opacity:1" fill="#18bdb3" d="M 91.5,284.5 C 91.5,290.5 91.5,296.5 91.5,302.5C 89.6776,302.169 88.0109,301.502 86.5,300.5C 85.6079,294.814 84.6079,289.147 83.5,283.5C 84.4345,282.432 84.7678,281.099 84.5,279.5C 87.6685,280.002 90.0019,281.669 91.5,284.5 Z"/></g>
<g><path style="opacity:1" fill="#26b7b0" d="M 392.5,276.5 C 392.989,277.995 393.655,279.329 394.5,280.5C 385.858,287.47 377.191,294.47 368.5,301.5C 366.325,301.682 364.325,302.349 362.5,303.5C 361.584,303.457 360.917,303.124 360.5,302.5C 370.394,292.886 381.06,284.219 392.5,276.5 Z"/></g>
<g><path style="opacity:1" fill="#21bbb3" d="M 204.5,280.5 C 206.359,280.461 207.692,281.294 208.5,283C 209.445,285.208 209.445,287.708 208.5,290.5C 208.957,291.298 209.624,291.631 210.5,291.5C 210.5,293.5 210.5,295.5 210.5,297.5C 208.738,297.643 207.071,297.309 205.5,296.5C 204.478,296.855 203.811,297.522 203.5,298.5C 200.835,301.154 197.835,303.487 194.5,305.5C 193.549,304.081 193.216,302.415 193.5,300.5C 200.645,295.702 204.311,289.036 204.5,280.5 Z"/></g>
<g><path style="opacity:1" fill="#19bdb3" d="M 394.5,275.5 C 396.086,276.148 397.753,276.648 399.5,277C 398.167,277.667 397.167,278.667 396.5,280C 400.582,283.658 401.249,287.824 398.5,292.5C 399.246,293.736 399.579,295.07 399.5,296.5C 399.634,298.292 399.301,299.958 398.5,301.5C 397.25,301.577 396.417,302.244 396,303.5C 394.659,300.978 393.826,298.311 393.5,295.5C 394.035,291.489 394.702,287.489 395.5,283.5C 395.48,282.274 395.147,281.274 394.5,280.5C 393.655,279.329 392.989,277.995 392.5,276.5C 392.842,275.662 393.508,275.328 394.5,275.5 Z"/></g>
<g><path style="opacity:1" fill="#22b9b1" d="M 277.5,270.5 C 274.577,271.256 271.911,272.59 269.5,274.5C 272.73,274.287 276.064,274.787 279.5,276C 277.998,278.574 276.998,281.407 276.5,284.5C 274.983,283.089 273.649,283.256 272.5,285C 273.7,286.031 275.034,286.865 276.5,287.5C 278.357,286.733 280.024,285.733 281.5,284.5C 278.417,291.25 273.417,295.917 266.5,298.5C 264.151,296.659 261.484,295.325 258.5,294.5C 263.769,290.407 268.935,286.074 274,281.5C 274.82,279.272 274.487,277.272 273,275.5C 269.333,278.336 265.833,281.336 262.5,284.5C 262.5,283.833 262.5,283.167 262.5,282.5C 263.946,281.86 265.279,280.36 266.5,278C 265.944,276.989 265.278,276.156 264.5,275.5C 268.02,271.913 272.353,270.247 277.5,270.5 Z"/></g>
<g><path style="opacity:1" fill="#22bab1" d="M 70.5,277.5 C 71.404,278.209 71.7373,279.209 71.5,280.5C 73.4832,280.157 74.8166,280.824 75.5,282.5C 70.4129,295.434 65.7463,308.434 61.5,321.5C 61.093,317.742 61.093,314.076 61.5,310.5C 60.675,309.614 59.675,309.281 58.5,309.5C 60.8223,298.192 64.8223,287.525 70.5,277.5 Z"/></g>
<g><path style="opacity:1" fill="#22b9b1" d="M 162.5,299.5 C 162.586,298.504 162.252,297.671 161.5,297C 163.83,295.925 165.163,294.425 165.5,292.5C 164.478,289.013 162.145,287.68 158.5,288.5C 158.567,289.959 158.234,291.292 157.5,292.5C 155.117,293.885 153.45,295.885 152.5,298.5C 151.167,298.5 149.833,298.5 148.5,298.5C 148.843,296.517 148.176,295.183 146.5,294.5C 151.478,288.673 157.811,286.506 165.5,288C 167.971,292.602 166.971,296.436 162.5,299.5 Z M 157.5,292.5 C 159.225,292.843 159.725,293.843 159,295.5C 157.266,297.451 155.099,298.451 152.5,298.5C 153.45,295.885 155.117,293.885 157.5,292.5 Z"/></g>
<g><path style="opacity:1" fill="#1fbbb2" d="M 131.5,284.5 C 125.28,298.273 119.613,312.273 114.5,326.5C 113.883,326.389 113.383,326.056 113,325.5C 111.048,330.401 108.548,330.734 105.5,326.5C 109.439,314.347 113.773,302.347 118.5,290.5C 120.61,291.453 121.777,293.119 122,295.5C 123.167,293 125,291.167 127.5,290C 128.669,287.758 128.669,285.425 127.5,283C 129.066,282.7 130.399,283.2 131.5,284.5 Z"/></g>
<g><path style="opacity:1" fill="#1bbdb3" d="M 236.5,284.5 C 237.167,285.833 238.167,286.833 239.5,287.5C 240.514,289.574 241.514,291.574 242.5,293.5C 244.738,296.43 246.071,299.763 246.5,303.5C 245.596,304.209 245.263,305.209 245.5,306.5C 244.078,307.925 242.411,308.925 240.5,309.5C 233.431,309.257 233.097,308.423 239.5,307C 238.663,305.989 238.33,304.822 238.5,303.5C 237.87,301.25 236.87,299.25 235.5,297.5C 234.192,296.768 232.858,295.934 231.5,295C 232.999,294.162 233.332,293.329 232.5,292.5C 231.699,290.207 231.032,290.54 230.5,293.5C 230.167,293.5 229.833,293.5 229.5,293.5C 227.801,293.473 226.467,292.806 225.5,291.5C 225.5,290.833 225.833,290.5 226.5,290.5C 229.812,289.914 231.646,287.914 232,284.5C 233.451,284.736 234.951,284.736 236.5,284.5 Z M 232.5,292.5 C 231.833,292.833 231.167,293.167 230.5,293.5C 231.032,290.54 231.699,290.207 232.5,292.5 Z"/></g>
<g><path style="opacity:1" fill="#1dbcb2" d="M 210.5,297.5 C 211.145,298.812 212.145,299.812 213.5,300.5C 215.36,299.74 217.027,298.74 218.5,297.5C 219.635,298.474 220.635,299.641 221.5,301C 216.156,301.116 211.156,302.283 206.5,304.5C 204.461,303.089 203.461,301.089 203.5,298.5C 203.811,297.522 204.478,296.855 205.5,296.5C 207.071,297.309 208.738,297.643 210.5,297.5 Z"/></g>
<g><path style="opacity:1" fill="#24b9b5" d="M 225.5,291.5 C 226.467,292.806 227.801,293.473 229.5,293.5C 229.5,293.833 229.5,294.167 229.5,294.5C 228.833,294.5 228.5,294.833 228.5,295.5C 227.833,295.5 227.5,295.833 227.5,296.5C 227.167,296.5 226.833,296.5 226.5,296.5C 225.791,295.596 224.791,295.263 223.5,295.5C 223.723,298.784 224.39,301.951 225.5,305C 223.527,305.495 221.527,305.662 219.5,305.5C 220.463,304.637 220.463,303.97 219.5,303.5C 216.842,304.997 214.009,305.997 211,306.5C 209.124,306.475 207.624,305.809 206.5,304.5C 211.156,302.283 216.156,301.116 221.5,301C 220.635,299.641 219.635,298.474 218.5,297.5C 221.06,295.727 223.393,293.727 225.5,291.5 Z"/></g>
<g><path style="opacity:1" fill="#1fbbb2" d="M 162.5,299.5 C 158.344,302.207 153.678,303.54 148.5,303.5C 148.433,304.959 148.766,306.292 149.5,307.5C 147.896,308.287 147.229,309.62 147.5,311.5C 145.784,311.371 144.117,311.038 142.5,310.5C 140.764,304.379 142.097,299.046 146.5,294.5C 148.176,295.183 148.843,296.517 148.5,298.5C 149.833,298.5 151.167,298.5 152.5,298.5C 155.099,298.451 157.266,297.451 159,295.5C 159.725,293.843 159.225,292.843 157.5,292.5C 158.234,291.292 158.567,289.959 158.5,288.5C 162.145,287.68 164.478,289.013 165.5,292.5C 165.163,294.425 163.83,295.925 161.5,297C 162.252,297.671 162.586,298.504 162.5,299.5 Z"/></g>
<g><path style="opacity:1" fill="#1ebcb4" d="M 179.5,278.5 C 180.135,284.844 180.968,291.178 182,297.5C 181.947,294.325 182.78,291.658 184.5,289.5C 183.771,294.13 183.437,298.797 183.5,303.5C 183.03,304.693 182.03,305.36 180.5,305.5C 179.5,305.167 178.5,304.833 177.5,304.5C 178.63,302.568 178.296,302.234 176.5,303.5C 176.167,303.5 175.833,303.5 175.5,303.5C 175.579,302.07 175.246,300.736 174.5,299.5C 175.456,297.925 176.123,296.258 176.5,294.5C 176.754,288.905 177.754,283.572 179.5,278.5 Z"/></g>
<g><path style="opacity:1" fill="#21bab4" d="M 91.5,284.5 C 94.454,294.832 96.1207,305.499 96.5,316.5C 95.8826,316.611 95.3826,316.944 95,317.5C 94.774,313.113 94.274,308.779 93.5,304.5C 93.1667,304.167 92.8333,303.833 92.5,303.5C 91.5713,304.689 91.238,306.022 91.5,307.5C 90.325,307.719 89.325,307.386 88.5,306.5C 88.0576,305.261 87.3909,304.261 86.5,303.5C 86.5,302.5 86.5,301.5 86.5,300.5C 88.0109,301.502 89.6776,302.169 91.5,302.5C 91.5,296.5 91.5,290.5 91.5,284.5 Z"/></g>
<g><path style="opacity:1" fill="#25bbb1" d="M 232.5,292.5 C 233.332,293.329 232.999,294.162 231.5,295C 232.858,295.934 234.192,296.768 235.5,297.5C 231.131,300.837 227.797,304.503 225.5,308.5C 225.517,310.565 225.85,312.565 226.5,314.5C 221.856,316.048 218.856,314.381 217.5,309.5C 217.668,307.829 218.335,306.496 219.5,305.5C 221.527,305.662 223.527,305.495 225.5,305C 224.39,301.951 223.723,298.784 223.5,295.5C 224.791,295.263 225.791,295.596 226.5,296.5C 226.833,297.833 227.167,297.833 227.5,296.5C 228.167,296.5 228.5,296.167 228.5,295.5C 229.167,295.5 229.5,295.167 229.5,294.5C 230.167,294.5 230.5,294.167 230.5,293.5C 231.167,293.167 231.833,292.833 232.5,292.5 Z"/></g>
<g><path style="opacity:1" fill="#13beb2" d="M 36.5,256.5 C 38.5666,260.712 40.2333,264.712 41.5,268.5C 42.395,282.426 42.395,296.26 41.5,310C 41.6667,312.833 41.8333,315.667 42,318.5C 42.6708,319.252 43.5041,319.586 44.5,319.5C 44.8288,325.206 44.4954,330.872 43.5,336.5C 43.1667,336.333 42.8333,336.167 42.5,336C 43.0585,335.275 43.3918,334.442 43.5,333.5C 42.5414,328.694 41.208,324.027 39.5,319.5C 38.6687,312.189 38.1687,304.856 38,297.5C 37.6174,296.944 37.1174,296.611 36.5,296.5C 36.5,296.167 36.5,295.833 36.5,295.5C 37.7763,293.438 38.6097,291.104 39,288.5C 39.8299,282.804 39.6632,277.137 38.5,271.5C 37.914,271.291 37.414,270.957 37,270.5C 36.5008,265.845 36.3342,261.179 36.5,256.5 Z"/></g>
<g><path style="opacity:0.999" fill="#22bbb6" d="M 43.5,257.5 C 43.7627,276.521 44.4293,295.521 45.5,314.5C 44.5489,315.919 44.2155,317.585 44.5,319.5C 43.5041,319.586 42.6708,319.252 42,318.5C 41.8333,315.667 41.6667,312.833 41.5,310C 42.395,296.26 42.395,282.426 41.5,268.5C 42.1667,264.833 42.8333,261.167 43.5,257.5 Z"/></g>
<g><path style="opacity:1" fill="#12bfb3" d="M 96.5,316.5 C 96.5569,317.609 96.8902,318.609 97.5,319.5C 96.8339,322.689 96.1672,326.023 95.5,329.5C 94.3432,325.929 93.0099,322.596 91.5,319.5C 91.5,315.5 91.5,311.5 91.5,307.5C 91.238,306.022 91.5713,304.689 92.5,303.5C 92.8333,303.833 93.1667,304.167 93.5,304.5C 94.274,308.779 94.774,313.113 95,317.5C 95.3826,316.944 95.8826,316.611 96.5,316.5 Z"/></g>
<g><path style="opacity:0.612" fill="#29b8b1" d="M 176.5,294.5 C 176.123,296.258 175.456,297.925 174.5,299.5C 175.246,300.736 175.579,302.07 175.5,303.5C 167.952,312.598 158.285,316.098 146.5,314C 144.676,313.34 143.343,312.173 142.5,310.5C 144.117,311.038 145.784,311.371 147.5,311.5C 147.229,309.62 147.896,308.287 149.5,307.5C 149.611,308.117 149.944,308.617 150.5,309C 156.453,310.126 161.786,308.793 166.5,305C 169.734,301.33 173.067,297.83 176.5,294.5 Z"/></g>
<g><path style="opacity:1" fill="#27b9b3" d="M 193.5,300.5 C 193.216,302.415 193.549,304.081 194.5,305.5C 190.49,309.889 185.49,311.389 179.5,310C 177.549,308.266 176.549,306.099 176.5,303.5C 178.296,302.234 178.63,302.568 177.5,304.5C 178.5,304.833 179.5,305.167 180.5,305.5C 182.03,305.36 183.03,304.693 183.5,303.5C 185.068,304.473 186.735,304.64 188.5,304C 190.196,302.824 191.862,301.657 193.5,300.5 Z"/></g>
<g><path style="opacity:1" fill="#24bfb7" d="M 86.5,303.5 C 87.3909,304.261 88.0576,305.261 88.5,306.5C 89.325,307.386 90.325,307.719 91.5,307.5C 91.5,311.5 91.5,315.5 91.5,319.5C 91.8214,325.026 91.4881,330.36 90.5,335.5C 89.2765,324.817 87.9432,314.151 86.5,303.5 Z"/></g>
<g><path style="opacity:1" fill="#28b9b2" d="M 238.5,303.5 C 238.33,304.822 238.663,305.989 239.5,307C 233.097,308.423 233.431,309.257 240.5,309.5C 236.503,312.724 231.836,314.39 226.5,314.5C 225.85,312.565 225.517,310.565 225.5,308.5C 230.563,308.592 234.897,306.926 238.5,303.5 Z"/></g>
<g><path style="opacity:1" fill="#2ab6af" d="M 368.5,301.5 C 363.526,306.139 358.526,310.805 353.5,315.5C 353.36,313.876 354.027,312.71 355.5,312C 355.167,311.667 354.833,311.333 354.5,311C 352.811,311.134 351.144,311.634 349.5,312.5C 352.543,308.456 356.209,305.123 360.5,302.5C 360.917,303.124 361.584,303.457 362.5,303.5C 364.325,302.349 366.325,301.682 368.5,301.5 Z"/></g>
<g><path style="opacity:1" fill="#25b8b1" d="M 393.5,295.5 C 393.826,298.311 394.659,300.978 396,303.5C 396.417,302.244 397.25,301.577 398.5,301.5C 397.401,306.144 395.734,310.478 393.5,314.5C 392.656,312.241 390.989,311.241 388.5,311.5C 388.715,313.179 388.048,314.179 386.5,314.5C 389.056,308.158 391.389,301.824 393.5,295.5 Z"/></g>
<g><path style="opacity:1" fill="#21baaf" d="M 393.5,314.5 C 390.246,322.088 384.913,327.755 377.5,331.5C 374.635,330.38 371.968,329.047 369.5,327.5C 377.216,325.777 382.883,321.443 386.5,314.5C 388.048,314.179 388.715,313.179 388.5,311.5C 390.989,311.241 392.656,312.241 393.5,314.5 Z"/></g>
<g><path style="opacity:1" fill="#27bbb5" d="M 36.5,296.5 C 37.1174,296.611 37.6174,296.944 38,297.5C 38.1687,304.856 38.6687,312.189 39.5,319.5C 41.208,324.027 42.5414,328.694 43.5,333.5C 43.3918,334.442 43.0585,335.275 42.5,336C 42.8333,336.167 43.1667,336.333 43.5,336.5C 44.4954,330.872 44.8288,325.206 44.5,319.5C 44.2155,317.585 44.5489,315.919 45.5,314.5C 45.1945,323.917 45.5279,333.25 46.5,342.5C 44.8941,343.359 43.2275,343.526 41.5,343C 41.0108,345.209 40.0108,347.042 38.5,348.5C 37.1184,331.198 36.4518,313.864 36.5,296.5 Z"/></g>
<g><path style="opacity:1" fill="#24bbb6" d="M 91.5,319.5 C 93.0099,322.596 94.3432,325.929 95.5,329.5C 96.1672,326.023 96.8339,322.689 97.5,319.5C 97.502,325.523 97.8354,331.523 98.5,337.5C 95.5849,337.087 93.7516,335.421 93,332.5C 92.3333,338.167 92.3333,343.833 93,349.5C 94.8587,350.579 96.3587,351.912 97.5,353.5C 97.8076,355.924 97.4742,358.257 96.5,360.5C 94.1692,358.383 93.0026,355.716 93,352.5C 92.51,353.793 92.3433,355.127 92.5,356.5C 90.9253,349.73 90.2586,342.73 90.5,335.5C 91.4881,330.36 91.8214,325.026 91.5,319.5 Z"/></g>
<g><path style="opacity:1" fill="#20bbb1" d="M 58.5,309.5 C 59.675,309.281 60.675,309.614 61.5,310.5C 61.093,314.076 61.093,317.742 61.5,321.5C 60.5,325.5 59.5,329.5 58.5,333.5C 57.7515,332.469 57.0848,331.302 56.5,330C 58.7696,327.939 59.2696,325.773 58,323.5C 56.6228,327.265 55.6228,326.932 55,322.5C 54.6174,323.056 54.1174,323.389 53.5,323.5C 54.7958,318.607 56.4624,313.94 58.5,309.5 Z"/></g>
<g><path style="opacity:1" fill="#1dbcb2" d="M 245.5,309.5 C 247.324,312.095 248.657,315.095 249.5,318.5C 247.739,326.442 245.406,334.109 242.5,341.5C 241.781,339.909 240.781,338.409 239.5,337C 240.5,331.99 242,327.157 244,322.5C 244.801,319.633 244.634,316.966 243.5,314.5C 244.167,312.833 244.833,311.167 245.5,309.5 Z"/></g>
<g><path style="opacity:1" fill="#1ebab4" d="M 353.5,315.5 C 349.905,321.016 351.239,324.85 357.5,327C 361.486,327.499 365.486,327.666 369.5,327.5C 371.968,329.047 374.635,330.38 377.5,331.5C 376.167,331.833 374.833,332.167 373.5,332.5C 366.579,329.514 359.245,328.347 351.5,329C 348.485,327.164 345.819,324.997 343.5,322.5C 344.483,318.531 346.483,315.198 349.5,312.5C 351.144,311.634 352.811,311.134 354.5,311C 354.833,311.333 355.167,311.667 355.5,312C 354.027,312.71 353.36,313.876 353.5,315.5 Z"/></g>
<g><path style="opacity:1" fill="#18beb5" d="M 58.5,333.5 C 58.0113,334.995 57.3446,336.329 56.5,337.5C 54.8115,340.223 53.3115,343.223 52,346.5C 50.6026,345.774 49.7692,344.607 49.5,343C 49.9335,341.072 50.6002,339.239 51.5,337.5C 51.2528,336.287 50.5862,335.62 49.5,335.5C 51.0346,331.563 52.3679,327.563 53.5,323.5C 54.1174,323.389 54.6174,323.056 55,322.5C 55.6228,326.932 56.6228,327.265 58,323.5C 59.2696,325.773 58.7696,327.939 56.5,330C 57.0848,331.302 57.7515,332.469 58.5,333.5 Z"/></g>
<g><path style="opacity:1" fill="#20bbaf" d="M 343.5,322.5 C 345.819,324.997 348.485,327.164 351.5,329C 359.245,328.347 366.579,329.514 373.5,332.5C 363.365,335.672 353.865,334.338 345,328.5C 343.872,326.655 343.372,324.655 343.5,322.5 Z"/></g>
<g><path style="opacity:1" fill="#27bab3" d="M 114.5,326.5 C 112.668,333.321 110.668,339.988 108.5,346.5C 108.656,342.418 108.156,338.418 107,334.5C 106.623,333.058 105.79,332.058 104.5,331.5C 104.629,329.784 104.962,328.117 105.5,326.5C 108.548,330.734 111.048,330.401 113,325.5C 113.383,326.056 113.883,326.389 114.5,326.5 Z"/></g>
<g><path style="opacity:1" fill="#1ebcb5" d="M 104.5,331.5 C 105.79,332.058 106.623,333.058 107,334.5C 108.156,338.418 108.656,342.418 108.5,346.5C 107.118,355.425 105.118,364.091 102.5,372.5C 102.082,371.778 101.416,371.278 100.5,371C 101.167,370.667 101.833,370.333 102.5,370C 101.376,369.751 100.376,369.251 99.5,368.5C 100.617,367.051 101.284,365.384 101.5,363.5C 100.884,359.855 100.55,356.188 100.5,352.5C 104.841,352.15 106.508,349.817 105.5,345.5C 102.333,345.924 99.9992,347.59 98.5,350.5C 98.1667,350.333 97.8333,350.167 97.5,350C 96.8333,348 96.1667,346 95.5,344C 96.1634,342.482 97.1634,341.315 98.5,340.5C 99.3091,342.292 99.8091,344.292 100,346.5C 101.063,341.338 102.563,336.338 104.5,331.5 Z"/></g>
<g><path style="opacity:1" fill="#29b8af" d="M 243.5,314.5 C 244.634,316.966 244.801,319.633 244,322.5C 242,327.157 240.5,331.99 239.5,337C 240.781,338.409 241.781,339.909 242.5,341.5C 241.978,344.568 241.145,347.568 240,350.5C 237.778,353.303 235.945,353.137 234.5,350C 237.583,338.169 240.583,326.336 243.5,314.5 Z"/></g>
<g><path style="opacity:1" fill="#1cbcb4" d="M 49.5,335.5 C 50.5862,335.62 51.2528,336.287 51.5,337.5C 50.6002,339.239 49.9335,341.072 49.5,343C 49.7692,344.607 50.6026,345.774 52,346.5C 53.3115,343.223 54.8115,340.223 56.5,337.5C 54.9766,343.572 53.1432,349.572 51,355.5C 50.2917,356.381 49.4584,357.047 48.5,357.5C 49.6162,354.755 50.6162,351.922 51.5,349C 51.1667,348.5 50.8333,348 50.5,347.5C 47.013,349.294 43.3463,350.628 39.5,351.5C 39.4431,350.391 39.1098,349.391 38.5,348.5C 40.0108,347.042 41.0108,345.209 41.5,343C 43.2275,343.526 44.8941,343.359 46.5,342.5C 47.9394,341.041 48.9394,338.708 49.5,335.5 Z"/></g>
<g><path style="opacity:1" fill="#1cbcb2" d="M 48.5,357.5 C 46.9894,359.441 44.9894,359.941 42.5,359C 40.6234,356.874 39.6234,354.374 39.5,351.5C 43.3463,350.628 47.013,349.294 50.5,347.5C 50.8333,348 51.1667,348.5 51.5,349C 50.6162,351.922 49.6162,354.755 48.5,357.5 Z"/></g>
<g><path style="opacity:1" fill="#13bfb2" d="M 98.5,337.5 C 98.5,338.5 98.5,339.5 98.5,340.5C 97.1634,341.315 96.1634,342.482 95.5,344C 96.1667,346 96.8333,348 97.5,350C 97.8333,350.167 98.1667,350.333 98.5,350.5C 99.9992,347.59 102.333,345.924 105.5,345.5C 106.508,349.817 104.841,352.15 100.5,352.5C 99.71,353.609 99.21,354.942 99,356.5C 98.7679,355.263 98.2679,354.263 97.5,353.5C 96.3587,351.912 94.8587,350.579 93,349.5C 92.3333,343.833 92.3333,338.167 93,332.5C 93.7516,335.421 95.5849,337.087 98.5,337.5 Z"/></g>
<g><path style="opacity:1" fill="#15beb3" d="M 97.5,353.5 C 98.2679,354.263 98.7679,355.263 99,356.5C 99.21,354.942 99.71,353.609 100.5,352.5C 100.55,356.188 100.884,359.855 101.5,363.5C 101.284,365.384 100.617,367.051 99.5,368.5C 100.376,369.251 101.376,369.751 102.5,370C 101.833,370.333 101.167,370.667 100.5,371C 101.416,371.278 102.082,371.778 102.5,372.5C 100.534,373.255 100.2,374.421 101.5,376C 100.773,377.399 100.273,378.899 100,380.5C 99.6667,379.5 99.3333,378.5 99,377.5C 97.927,378.28 96.7604,378.113 95.5,377C 98.608,374.128 98.4413,371.295 95,368.5C 94.7599,366.148 93.9265,364.148 92.5,362.5C 92.5,360.5 92.5,358.5 92.5,356.5C 92.3433,355.127 92.51,353.793 93,352.5C 93.0026,355.716 94.1692,358.383 96.5,360.5C 97.4742,358.257 97.8076,355.924 97.5,353.5 Z"/></g>
<g><path style="opacity:1" fill="#26b8b1" d="M 92.5,362.5 C 93.9265,364.148 94.7599,366.148 95,368.5C 98.4413,371.295 98.608,374.128 95.5,377C 96.7604,378.113 97.927,378.28 99,377.5C 99.3333,378.5 99.6667,379.5 100,380.5C 100.273,378.899 100.773,377.399 101.5,376C 100.2,374.421 100.534,373.255 102.5,372.5C 102.453,375.568 101.953,378.568 101,381.5C 98.1697,385.29 95.503,385.29 93,381.5C 92.5005,375.175 92.3338,368.842 92.5,362.5 Z"/></g>
</svg>
