<?xml version="1.0" encoding="UTF-8"?>
<!DOCTYPE svg PUBLIC "-//W3C//DTD SVG 1.1//EN" "http://www.w3.org/Graphics/SVG/1.1/DTD/svg11.dtd">
<svg xmlns="http://www.w3.org/2000/svg" version="1.1" width="500px" height="500px" style="shape-rendering:geometricPrecision; text-rendering:geometricPrecision; image-rendering:optimizeQuality; fill-rule:evenodd; clip-rule:evenodd" xmlns:xlink="http://www.w3.org/1999/xlink">
<g><path style="opacity:1" fill="#000000" d="M -0.5,-0.5 C 166.167,-0.5 332.833,-0.5 499.5,-0.5C 499.5,166.167 499.5,332.833 499.5,499.5C 332.833,499.5 166.167,499.5 -0.5,499.5C -0.5,332.833 -0.5,166.167 -0.5,-0.5 Z"/></g>
<g><path style="opacity:1" fill="#e5e5e5" d="M 176.5,295.5 C 176.192,297.924 176.526,300.257 177.5,302.5C 178.298,302.043 178.631,301.376 178.5,300.5C 189.186,261.275 209.853,228.442 240.5,202C 251.758,193.524 264.425,188.691 278.5,187.5C 292.223,187.865 303.89,192.865 313.5,202.5C 313.167,202.833 312.833,203.167 312.5,203.5C 295.325,189.63 276.658,187.13 256.5,196C 233.959,209.876 216.125,228.376 203,251.5C 190.729,271.645 182.396,293.311 178,316.5C 176.989,317.337 175.822,317.67 174.5,317.5C 174.657,305.432 173.824,293.432 172,281.5C 171.946,278.139 170.946,275.139 169,272.5C 166.488,276.19 164.488,280.19 163,284.5C 160.865,291.906 158.531,299.239 156,306.5C 154.413,307.727 153.079,307.394 152,305.5C 150.519,286.52 149.853,267.52 150,248.5C 150.667,247.167 151.333,247.167 152,248.5C 153.532,265.798 154.532,283.131 155,300.5C 157.943,291.004 161.276,281.67 165,272.5C 169.081,268.103 172.081,268.77 174,274.5C 175.723,281.395 176.556,288.395 176.5,295.5 Z"/></g>
<g><path style="opacity:1" fill="#ececec" d="M 316.5,225.5 C 320.676,224.831 322.009,226.331 320.5,230C 319.207,230.49 317.873,230.657 316.5,230.5C 316.5,228.833 316.5,227.167 316.5,225.5 Z"/></g>
<g><path style="opacity:1" fill="#e1e1e1" d="M 308.5,257.5 C 309.586,257.62 310.253,258.287 310.5,259.5C 309.058,262.028 308.558,264.695 309,267.5C 312,265.5 315,263.5 318,261.5C 318.167,261.833 318.333,262.167 318.5,262.5C 315.451,265.711 311.951,268.377 308,270.5C 306.954,276.683 305.288,282.683 303,288.5C 298.777,295.446 292.61,297.946 284.5,296C 283.101,294.938 282.101,293.605 281.5,292C 287.663,284.007 294.996,277.174 303.5,271.5C 304.521,270.998 304.688,270.332 304,269.5C 301.727,271.892 299.56,271.892 297.5,269.5C 295.401,270.965 293.234,272.299 291,273.5C 290.228,273.355 289.561,273.022 289,272.5C 288.667,270.833 288.333,269.167 288,267.5C 285.333,270.167 282.667,272.833 280,275.5C 279.586,275.043 279.086,274.709 278.5,274.5C 276.382,275.946 274.049,276.613 271.5,276.5C 271.002,272.781 271.836,269.447 274,266.5C 274.334,268.847 274.167,271.181 273.5,273.5C 274.552,273.649 275.552,273.483 276.5,273C 279.458,270.556 281.791,267.722 283.5,264.5C 284.167,265.167 284.833,265.833 285.5,266.5C 287.51,264.829 289.843,264.162 292.5,264.5C 290.295,270.984 291.628,271.984 296.5,267.5C 298.48,261.504 302.48,258.17 308.5,257.5 Z"/></g>
<g><path style="opacity:1" fill="#e8e8e8" d="M 275.5,259.5 C 277.807,260.405 277.807,261.738 275.5,263.5C 274.374,262.192 274.374,260.858 275.5,259.5 Z"/></g>
<g><path style="opacity:1" fill="#151515" d="M 303.5,260.5 C 304.5,260.5 305.5,260.5 306.5,260.5C 306.361,264.111 304.694,266.777 301.5,268.5C 300.347,265.447 301.013,262.78 303.5,260.5 Z"/></g>
<g><path style="opacity:1" fill="#e1e1e1" d="M 239.5,285.5 C 236.238,287.88 232.571,288.88 228.5,288.5C 228.66,286.801 228.494,285.134 228,283.5C 224.613,285.318 222.613,284.318 222,280.5C 219.834,283.507 217.001,285.507 213.5,286.5C 211.522,283.255 209.522,283.088 207.5,286C 203.652,288.905 199.819,289.072 196,286.5C 195.905,279.592 199.238,276.592 206,277.5C 206.667,278.5 206.667,279.5 206,280.5C 203.86,282.487 201.36,283.82 198.5,284.5C 200.528,286.941 202.862,287.108 205.5,285C 207,283.5 208.5,282 210,280.5C 212,271.833 214,263.167 216,254.5C 216.934,251.408 218.1,251.075 219.5,253.5C 216.136,263.637 214.47,273.97 214.5,284.5C 217.805,283.028 220.305,280.695 222,277.5C 223.578,267.851 226.078,258.517 229.5,249.5C 229.833,250.167 230.167,250.833 230.5,251.5C 228.501,260.831 226.501,270.164 224.5,279.5C 224.527,281.704 225.527,282.538 227.5,282C 231.638,279.112 233.638,275.112 233.5,270C 235.728,269.18 237.728,269.513 239.5,271C 237.866,271.494 236.199,271.66 234.5,271.5C 235.466,277.138 238.132,277.971 242.5,274C 243.337,272.989 243.67,271.822 243.5,270.5C 245.124,270.36 246.29,271.027 247,272.5C 249.884,269.151 253.051,268.817 256.5,271.5C 259.739,270.71 261.906,268.71 263,265.5C 263.667,266.167 264.333,266.833 265,267.5C 266.584,266.139 268.418,265.472 270.5,265.5C 270.762,266.978 270.429,268.311 269.5,269.5C 268.808,268.975 268.308,268.308 268,267.5C 264.241,270.429 261.408,274.095 259.5,278.5C 258.669,276.527 258.502,274.527 259,272.5C 255.947,274.43 253.447,276.93 251.5,280C 248.782,281.072 246.115,282.238 243.5,283.5C 241.482,290.723 238.982,297.723 236,304.5C 236.415,298.07 237.582,291.736 239.5,285.5 Z"/></g>
<g><path style="opacity:1" fill="#1e1e1e" d="M 250.5,271.5 C 252.225,271.843 252.725,272.843 252,274.5C 243.857,280.902 243.357,279.902 250.5,271.5 Z"/></g>
<g><path style="opacity:1" fill="#0e0e0e" d="M 301.5,274.5 C 302.693,274.97 303.36,275.97 303.5,277.5C 302.35,282.454 300.516,287.121 298,291.5C 293.311,295.234 288.811,295.234 284.5,291.5C 285,290.5 285.5,289.5 286,288.5C 291.362,283.968 296.528,279.301 301.5,274.5 Z"/></g>
<g><path style="opacity:1" fill="#222222" d="M 239.5,285.5 C 239.62,283.266 239.287,281.099 238.5,279C 239.371,277.231 240.704,276.564 242.5,277C 241.972,280.089 240.972,282.923 239.5,285.5 Z"/></g>
<g><path style="opacity:1" fill="#232323" d="M 202.5,278.5 C 203.774,279.189 203.774,280.023 202.5,281C 201.5,281.667 200.5,281.667 199.5,281C 200.571,280.148 201.571,279.315 202.5,278.5 Z"/></g>
<g><path style="opacity:1" fill="#171717" d="M 234.5,281.5 C 236.225,281.843 236.725,282.843 236,284.5C 230.772,285.647 230.272,284.647 234.5,281.5 Z"/></g>
<g><path style="opacity:1" fill="#888888" d="M 176.5,295.5 C 177.167,297.167 177.833,298.833 178.5,300.5C 178.631,301.376 178.298,302.043 177.5,302.5C 176.526,300.257 176.192,297.924 176.5,295.5 Z"/></g>
<g><path style="opacity:1" fill="#d3d3d3" d="M 179.5,356.5 C 180.201,359.563 180.868,362.73 181.5,366C 181.167,366.167 180.833,366.333 180.5,366.5C 179.513,363.232 179.18,359.898 179.5,356.5 Z"/></g>
<g><path style="opacity:1" fill="#b4b4b4" d="M 188.5,356.5 C 190.048,356.821 190.715,357.821 190.5,359.5C 191.833,359.5 193.167,359.5 194.5,359.5C 194.663,361.857 194.497,364.19 194,366.5C 193.505,364.527 193.338,362.527 193.5,360.5C 192.5,360.5 191.5,360.5 190.5,360.5C 190.799,362.604 190.466,364.604 189.5,366.5C 188.513,363.232 188.18,359.898 188.5,356.5 Z"/></g>
<g><path style="opacity:1" fill="#eeeeee" d="M 154.5,356.5 C 155.434,357.568 155.768,358.901 155.5,360.5C 157.167,360.5 158.833,360.5 160.5,360.5C 161.788,362.092 161.788,362.425 160.5,361.5C 158.833,361.5 157.167,361.5 155.5,361.5C 155.66,363.199 155.494,364.866 155,366.5C 154.502,363.183 154.335,359.85 154.5,356.5 Z"/></g>
<g><path style="opacity:1" fill="#d7d7d7" d="M 271.5,360.5 C 270.5,360.5 269.5,360.5 268.5,360.5C 268.662,362.527 268.495,364.527 268,366.5C 267.015,363.04 266.848,359.706 267.5,356.5C 272.041,356.331 272.374,356.998 268.5,358.5C 269.602,359.176 270.602,359.842 271.5,360.5 Z"/></g>
<g><path style="opacity:1" fill="#afafaf" d="M 211.5,359.5 C 212.873,359.343 214.207,359.51 215.5,360C 214.036,361.864 213.036,364.031 212.5,366.5C 211.526,364.257 211.192,361.924 211.5,359.5 Z"/></g>
<g><path style="opacity:1" fill="#bebebe" d="M 288.5,356.5 C 289.885,357.574 291.051,358.907 292,360.5C 293,359.167 294,357.833 295,356.5C 294.092,359.706 293.092,363.039 292,366.5C 291.105,363.049 289.938,359.716 288.5,356.5 Z"/></g>
<g><path style="opacity:1" fill="#d2d2d2" d="M 298.5,360.5 C 301.324,358.799 302.991,359.633 303.5,363C 302.991,366.367 301.324,367.201 298.5,365.5C 302.161,365.65 303.161,364.15 301.5,361C 300.552,360.517 299.552,360.351 298.5,360.5 Z"/></g>
<g><path style="opacity:1" fill="#dedede" d="M 310.5,359.5 C 311.468,361.607 311.802,363.941 311.5,366.5C 309.801,366.66 308.134,366.494 306.5,366C 310.03,365.328 311.363,363.162 310.5,359.5 Z"/></g>
<g><path style="opacity:1" fill="#d6d6d6" d="M 183.5,357.5 C 184.534,358.687 185.867,359.52 187.5,360C 186.552,360.483 185.552,360.649 184.5,360.5C 184.5,362.167 184.5,363.833 184.5,365.5C 188.172,366.045 187.838,366.378 183.5,366.5C 183.108,363.324 183.108,360.324 183.5,357.5 Z"/></g>
<g><path style="opacity:1" fill="#c0c0c0" d="M 197.5,359.5 C 199.288,359.215 200.955,359.548 202.5,360.5C 201.418,360.749 200.085,360.915 198.5,361C 197.167,362.333 197.167,363.667 198.5,365C 200.085,365.085 201.418,365.251 202.5,365.5C 196.74,367.213 195.074,365.213 197.5,359.5 Z"/></g>
<g><path style="opacity:1" fill="#bdbdbd" d="M 271.5,360.5 C 276.972,358.074 279.139,359.741 278,365.5C 273.273,367.33 271.107,365.663 271.5,360.5 Z"/></g>
<g><path style="opacity:1" fill="#151515" d="M 273.5,360.5 C 277.161,360.35 278.161,361.85 276.5,365C 275.552,365.483 274.552,365.649 273.5,365.5C 273.5,363.833 273.5,362.167 273.5,360.5 Z"/></g>
<g><path style="opacity:1" fill="#cccccc" d="M 280.5,359.5 C 284.554,359.21 285.054,359.877 282,361.5C 281.667,363.167 281.333,364.833 281,366.5C 280.503,364.19 280.337,361.857 280.5,359.5 Z"/></g>
<g><path style="opacity:1" fill="#0f0f0f" d="M 298.5,360.5 C 299.552,360.351 300.552,360.517 301.5,361C 303.161,364.15 302.161,365.65 298.5,365.5C 298.5,363.833 298.5,362.167 298.5,360.5 Z"/></g>
<g><path style="opacity:1" fill="#c9c9c9" d="M 228.5,356.5 C 229.376,356.369 230.043,356.702 230.5,357.5C 231.432,359.795 232.265,362.129 233,364.5C 236.599,354.076 237.933,354.742 237,366.5C 236.667,364.5 236.333,362.5 236,360.5C 234,368.5 232,368.5 230,360.5C 229.667,362.5 229.333,364.5 229,366.5C 228.502,363.183 228.335,359.85 228.5,356.5 Z"/></g>
<g><path style="opacity:1" fill="#959595" d="M 164.5,359.5 C 168.241,358.599 170.241,359.932 170.5,363.5C 168.712,363.215 167.045,363.548 165.5,364.5C 166.98,365.113 168.313,365.446 169.5,365.5C 163.74,367.213 162.074,365.213 164.5,359.5 Z"/></g>
<g><path style="opacity:1" fill="#d3d3d3" d="M 171.5,359.5 C 173.167,359.5 174.833,359.5 176.5,359.5C 176.244,361.792 176.577,363.959 177.5,366C 175.527,366.495 173.527,366.662 171.5,366.5C 171.5,365.167 171.5,363.833 171.5,362.5C 173.103,362.688 174.437,362.188 175.5,361C 174.216,360.316 173.049,360.483 172,361.5C 171.536,360.906 171.369,360.239 171.5,359.5 Z"/></g>
<g><path style="opacity:1" fill="#959595" d="M 217.5,359.5 C 221.241,358.599 223.241,359.932 223.5,363.5C 221.712,363.215 220.045,363.548 218.5,364.5C 219.98,365.113 221.313,365.446 222.5,365.5C 216.74,367.213 215.074,365.213 217.5,359.5 Z"/></g>
<g><path style="opacity:1" fill="#959595" d="M 256.5,359.5 C 260.241,358.599 262.241,359.932 262.5,363.5C 260.712,363.215 259.045,363.548 257.5,364.5C 258.98,365.113 260.313,365.446 261.5,365.5C 255.74,367.213 254.074,365.213 256.5,359.5 Z"/></g>
<g><path style="opacity:1" fill="#bababa" d="M 298.5,360.5 C 298.5,362.167 298.5,363.833 298.5,365.5C 295.833,363.833 295.833,362.167 298.5,360.5 Z"/></g>
<g><path style="opacity:1" fill="#090909" d="M 172.5,363.5 C 175.797,363.329 176.131,363.995 173.5,365.5C 172.702,365.043 172.369,364.376 172.5,363.5 Z"/></g>
<g><path style="opacity:1" fill="#b1b1b1" d="M 204.5,360.5 C 205.601,359.402 206.934,359.235 208.5,360C 209.167,362 209.833,364 210.5,366C 202.98,367.195 201.98,365.529 207.5,361C 206.552,360.517 205.552,360.351 204.5,360.5 Z"/></g>
<g><path style="opacity:1" fill="#030303" d="M 205.5,363.5 C 207.337,363.639 207.67,364.306 206.5,365.5C 205.702,365.043 205.369,364.376 205.5,363.5 Z"/></g>
<g><path style="opacity:1" fill="#b1b1b1" d="M 240.5,360.5 C 241.601,359.402 242.934,359.235 244.5,360C 245.167,362 245.833,364 246.5,366C 238.98,367.195 237.98,365.529 243.5,361C 242.552,360.517 241.552,360.351 240.5,360.5 Z"/></g>
<g><path style="opacity:1" fill="#030303" d="M 241.5,363.5 C 243.337,363.639 243.67,364.306 242.5,365.5C 241.702,365.043 241.369,364.376 241.5,363.5 Z"/></g>
<g><path style="opacity:1" fill="#d2d2d2" d="M 252.5,356.5 C 253.479,359.625 253.813,362.958 253.5,366.5C 247.842,367.321 246.175,365.154 248.5,360C 249.793,359.51 251.127,359.343 252.5,359.5C 252.5,358.5 252.5,357.5 252.5,356.5 Z"/></g>
<g><path style="opacity:1" fill="#090909" d="M 249.5,360.5 C 250.5,360.5 251.5,360.5 252.5,360.5C 252.884,362.665 252.217,364.332 250.5,365.5C 248.296,364.218 247.962,362.551 249.5,360.5 Z"/></g>
</svg>
