<?xml version="1.0" encoding="UTF-8"?>
<!DOCTYPE svg PUBLIC "-//W3C//DTD SVG 1.1//EN" "http://www.w3.org/Graphics/SVG/1.1/DTD/svg11.dtd">
<svg xmlns="http://www.w3.org/2000/svg" version="1.1" width="500px" height="500px" style="shape-rendering:geometricPrecision; text-rendering:geometricPrecision; image-rendering:optimizeQuality; fill-rule:evenodd; clip-rule:evenodd" xmlns:xlink="http://www.w3.org/1999/xlink">
<g><path style="opacity:1" fill="#32ada8" d="M 9.5,203.5 C 40.1667,202.167 70.8333,202.167 101.5,203.5C 70.8353,204.825 40.1686,204.825 9.5,203.5 Z"/></g>
<g><path style="opacity:1" fill="#13bcb2" d="M 9.5,203.5 C 40.1686,204.825 70.8353,204.825 101.5,203.5C 101.5,204.5 101.5,205.5 101.5,206.5C 100.833,206.5 100.5,206.833 100.5,207.5C 98.8401,205.752 96.8401,205.252 94.5,206C 95.0253,206.692 95.6919,207.192 96.5,207.5C 97.1875,218.531 97.8542,229.531 98.5,240.5C 97.954,241.772 97.6207,243.106 97.5,244.5C 99.2126,246.919 99.8793,249.419 99.5,252C 98.0692,252.465 96.9025,253.299 96,254.5C 94.8231,252.824 93.3231,251.491 91.5,250.5C 94.3958,248.534 95.7292,246.034 95.5,243C 91.2642,238.542 90.2642,233.376 92.5,227.5C 87.342,226.516 87.342,225.683 92.5,225C 88.1112,222.193 84.7779,223.026 82.5,227.5C 83.1667,228.5 83.8333,229.5 84.5,230.5C 83.925,234.015 82.925,237.348 81.5,240.5C 80.2434,242.422 79.0768,244.422 78,246.5C 77.5,245.333 76.6667,244.5 75.5,244C 76.1667,243.667 76.8333,243.333 77.5,243C 75.8988,242.727 74.3988,242.227 73,241.5C 72.4309,245.361 71.5976,245.361 70.5,241.5C 68.4437,243.019 66.1104,243.853 63.5,244C 65.5206,244.513 67.0206,245.68 68,247.5C 68.7792,244.903 69.2792,244.903 69.5,247.5C 69.0133,248.473 68.5133,249.473 68,250.5C 66.3333,250.167 64.6667,249.833 63,249.5C 62.7165,251.886 61.7165,252.552 60,251.5C 59.1841,252.823 58.0174,253.489 56.5,253.5C 56.5774,252.25 57.244,251.417 58.5,251C 57.7476,250.329 57.4142,249.496 57.5,248.5C 57.5,248.167 57.5,247.833 57.5,247.5C 57.2172,246.711 56.7172,246.044 56,245.5C 55.2276,246.849 54.0609,247.682 52.5,248C 53.1667,248.333 53.8333,248.667 54.5,249C 52.5975,249.199 51.0975,250.033 50,251.5C 49.1864,248.493 48.5197,245.493 48,242.5C 47.7508,243.624 47.2508,244.624 46.5,245.5C 45.8765,243.034 45.0432,240.701 44,238.5C 42.5661,241.525 42.0661,244.525 42.5,247.5C 35.6226,248.779 34.1226,246.446 38,240.5C 40.8235,238.262 43.3235,235.096 45.5,231C 45.1667,230.667 44.8333,230.333 44.5,230C 48.58,227.589 51.58,224.256 53.5,220C 61.7759,215.512 61.4426,214.179 52.5,216C 50.6061,217.101 49.9394,218.434 50.5,220C 44.1413,226.013 38.9746,232.846 35,240.5C 33.6015,241.051 32.2682,241.384 31,241.5C 30.5172,242.448 30.3505,243.448 30.5,244.5C 27.8015,244.534 25.3015,243.867 23,242.5C 22.1502,244.01 21.3169,245.51 20.5,247C 20.6448,247.772 20.9781,248.439 21.5,249C 19.9095,250.046 18.4095,251.213 17,252.5C 17.5292,247.159 17.3625,241.826 16.5,236.5C 15.8157,243.055 15.149,249.555 14.5,256C 14.8333,256.167 15.1667,256.333 15.5,256.5C 16.2508,255.624 16.7508,254.624 17,253.5C 17,256.167 17,258.833 17,261.5C 18.1827,262.731 19.3493,262.731 20.5,261.5C 19.7108,259.135 20.0441,256.801 21.5,254.5C 20.6744,253.549 20.5078,252.549 21,251.5C 21.3333,251.833 21.6667,252.167 22,252.5C 22.6284,249.046 23.7951,248.713 25.5,251.5C 25.4054,256.887 25.9054,262.22 27,267.5C 30.5691,268.17 31.2358,269.836 29,272.5C 27.5421,271.253 26.0421,271.253 24.5,272.5C 22.9071,265.951 21.9071,265.951 21.5,272.5C 20.1667,272.5 18.8333,272.5 17.5,272.5C 17.6495,273.552 17.4828,274.552 17,275.5C 16.6667,275.167 16.3333,274.833 16,274.5C 14.608,278.22 15.7747,280.22 19.5,280.5C 19.7031,282.044 20.3698,283.378 21.5,284.5C 20.8333,284.833 20.1667,285.167 19.5,285.5C 20.8903,287.203 22.3903,287.87 24,287.5C 24.9025,286.299 26.0692,285.465 27.5,285C 24.8333,284.333 24.8333,283.667 27.5,283C 31.8632,282.71 36.1965,282.21 40.5,281.5C 42.8669,282.105 45.2003,282.438 47.5,282.5C 50.4594,279.65 53.4594,279.317 56.5,281.5C 59.4074,280.99 62.2408,280.323 65,279.5C 66.6667,280.5 68.3333,281.5 70,282.5C 72.2268,280.801 74.7268,279.468 77.5,278.5C 80.8333,281.167 84.1667,281.167 87.5,278.5C 90.3477,280.15 92.8477,279.816 95,277.5C 95.6667,280.167 96.3333,280.167 97,277.5C 97.8236,280.882 97.657,284.216 96.5,287.5C 84.6412,288.556 72.8079,289.556 61,290.5C 46.3739,289.771 32.0406,289.437 18,289.5C 15.9935,290.669 13.8268,291.335 11.5,291.5C 11.5,292.5 11.5,293.5 11.5,294.5C 10.8333,294.5 10.1667,294.5 9.5,294.5C 10.0512,288.021 10.3845,281.521 10.5,275C 10.4937,269.784 9.82708,264.951 8.5,260.5C 8.48946,241.475 8.8228,222.475 9.5,203.5 Z"/></g>
<g><path style="opacity:0.891" fill="#fdfdfd" d="M 393.5,221.5 C 401.52,221.392 403.854,224.892 400.5,232C 394.818,235.07 391.152,233.57 389.5,227.5C 389.866,224.744 391.2,222.744 393.5,221.5 Z"/></g>
<g><path style="opacity:0.965" fill="#fdfdfd" d="M 237.5,222.5 C 240.833,222.5 244.167,222.5 247.5,222.5C 247.333,237.17 247.5,251.837 248,266.5C 249.356,267.38 250.856,267.714 252.5,267.5C 255.319,276.079 252.319,278.913 243.5,276C 241,274.833 239.167,273 238,270.5C 237.5,254.503 237.333,238.503 237.5,222.5 Z"/></g>
<g><path style="opacity:0.897" fill="#fdfdfd" d="M 258.5,222.5 C 262.167,222.5 265.833,222.5 269.5,222.5C 269.333,237.17 269.5,251.837 270,266.5C 271.356,267.38 272.856,267.714 274.5,267.5C 275.013,270.449 275.013,273.282 274.5,276C 268.11,277.942 263.277,276.109 260,270.5C 258.578,254.549 258.078,238.549 258.5,222.5 Z"/></g>
<g><path style="opacity:0.933" fill="#fdfdfd" d="M 126.5,224.5 C 130.167,224.5 133.833,224.5 137.5,224.5C 139.806,236.194 142.306,247.861 145,259.5C 148,248.167 151,236.833 154,225.5C 157.057,224.549 160.223,224.216 163.5,224.5C 165.875,235.999 168.875,247.332 172.5,258.5C 175.155,247.546 177.655,236.546 180,225.5C 183.394,224.544 186.894,224.211 190.5,224.5C 186.675,241.467 183.008,258.467 179.5,275.5C 175.167,275.5 170.833,275.5 166.5,275.5C 164.365,264.936 161.532,254.603 158,244.5C 155.339,254.811 152.839,265.144 150.5,275.5C 146.233,275.797 142.066,275.464 138,274.5C 134.162,257.815 130.328,241.148 126.5,224.5 Z"/></g>
<g><path style="opacity:0.925" fill="#fdfdfd" d="M 479.5,231.5 C 482.067,232.475 484.733,233.142 487.5,233.5C 487.138,237.203 485.471,240.203 482.5,242.5C 487.237,251.121 485.237,257.621 476.5,262C 472.582,263.156 468.582,263.656 464.5,263.5C 464.36,265.124 465.027,266.29 466.5,267C 471.167,267.333 475.833,267.667 480.5,268C 488.107,270.726 490.607,275.892 488,283.5C 486.035,287.459 482.869,289.959 478.5,291C 472.5,291.667 466.5,291.667 460.5,291C 453.104,289.286 450.27,284.786 452,277.5C 453.731,275.383 455.898,273.883 458.5,273C 452.961,267.9 453.627,263.567 460.5,260C 453.405,254.072 452.738,247.406 458.5,240C 464.503,236.668 470.836,235.668 477.5,237C 478.464,235.275 479.131,233.441 479.5,231.5 Z M 466.5,244.5 C 471.706,243.12 474.706,244.953 475.5,250C 473.802,255.709 470.468,256.876 465.5,253.5C 464.137,250.313 464.471,247.313 466.5,244.5 Z M 462.5,276.5 C 467.179,276.334 471.845,276.501 476.5,277C 479.358,281.217 478.024,283.55 472.5,284C 468.551,284.927 465.051,284.094 462,281.5C 461.36,279.735 461.527,278.068 462.5,276.5 Z"/></g>
<g><path style="opacity:0.935" fill="#fcfcfc" d="M 208.5,236.5 C 224.3,235.466 231.467,242.8 230,258.5C 221.919,259.482 213.752,259.816 205.5,259.5C 206.644,267.071 210.977,269.571 218.5,267C 220.019,265.649 221.352,264.149 222.5,262.5C 230.876,265.11 231.543,268.943 224.5,274C 203.47,280.308 193.637,272.474 195,250.5C 197.017,243.318 201.517,238.652 208.5,236.5 Z M 211.5,244.5 C 216.546,244.213 219.546,246.546 220.5,251.5C 215.544,252.494 210.544,252.827 205.5,252.5C 205.673,248.342 207.673,245.675 211.5,244.5 Z"/></g>
<g><path style="opacity:0.907" fill="#fdfdfd" d="M 289.5,236.5 C 293.915,236.305 298.249,236.805 302.5,238C 304.64,238.973 306.307,240.473 307.5,242.5C 305.833,244.5 304.167,246.5 302.5,248.5C 298.52,245.249 294.186,244.416 289.5,246C 287.987,248.454 288.654,250.121 291.5,251C 295.984,251.871 300.317,253.204 304.5,255C 309.449,259.942 310.282,265.442 307,271.5C 298.6,277.6 289.767,278.1 280.5,273C 279.313,271.981 278.313,270.814 277.5,269.5C 279.123,267.209 280.957,265.209 283,263.5C 286.139,266.235 289.806,267.901 294,268.5C 298.192,267.848 299.359,265.681 297.5,262C 292.236,261.101 287.236,259.435 282.5,257C 278.01,252.211 277.51,247.045 281,241.5C 283.398,238.892 286.231,237.225 289.5,236.5 Z"/></g>
<g><path style="opacity:0.925" fill="#fdfdfd" d="M 326.5,281.5 C 325.523,284.287 325.19,287.287 325.5,290.5C 322.5,290.5 319.5,290.5 316.5,290.5C 316.815,286.629 316.482,282.962 315.5,279.5C 315.5,265.5 315.5,251.5 315.5,237.5C 319.167,237.5 322.833,237.5 326.5,237.5C 326.343,238.873 326.51,240.207 327,241.5C 332.741,235.886 339.241,235.052 346.5,239C 355.345,250.076 355.679,261.409 347.5,273C 342.638,276.224 337.304,277.224 331.5,276C 329.714,275.215 328.214,274.049 327,272.5C 326.502,275.482 326.335,278.482 326.5,281.5 Z M 331.5,245.5 C 337.326,244.489 340.826,246.822 342,252.5C 342.887,257.072 342.22,261.405 340,265.5C 334.536,268.916 330.203,267.916 327,262.5C 326.333,258.5 326.333,254.5 327,250.5C 328.025,248.313 329.525,246.646 331.5,245.5 Z"/></g>
<g><path style="opacity:0.888" fill="#fdfdfd" d="M 379.5,236.5 C 381.5,236.833 383.5,237.167 385.5,237.5C 385.167,240.833 384.833,244.167 384.5,247.5C 380.195,245.662 376.361,246.328 373,249.5C 371.59,258.084 371.09,266.75 371.5,275.5C 367.833,275.5 364.167,275.5 360.5,275.5C 360.5,262.833 360.5,250.167 360.5,237.5C 364.167,237.5 367.833,237.5 371.5,237.5C 371.21,241.554 371.877,242.054 373.5,239C 375.611,238.155 377.611,237.322 379.5,236.5 Z"/></g>
<g><path style="opacity:0.917" fill="#fdfdfd" d="M 428.5,236.5 C 433.951,235.779 438.785,237.112 443,240.5C 443.667,241.833 444.333,243.167 445,244.5C 445.5,254.828 445.666,265.161 445.5,275.5C 442.167,275.5 438.833,275.5 435.5,275.5C 435.666,266.494 435.5,257.494 435,248.5C 432.017,245.143 428.517,244.643 424.5,247C 423.299,247.903 422.465,249.069 422,250.5C 421.5,258.827 421.334,267.16 421.5,275.5C 417.833,275.5 414.167,275.5 410.5,275.5C 410.5,262.833 410.5,250.167 410.5,237.5C 414.226,237.177 417.893,237.511 421.5,238.5C 420.572,239.768 420.405,241.101 421,242.5C 423.114,239.879 425.614,237.879 428.5,236.5 Z"/></g>
<g><path style="opacity:0.871" fill="#fefefe" d="M 390.5,237.5 C 394.167,237.5 397.833,237.5 401.5,237.5C 401.5,250.167 401.5,262.833 401.5,275.5C 397.833,275.5 394.167,275.5 390.5,275.5C 390.5,262.833 390.5,250.167 390.5,237.5 Z"/></g>
<g><path style="opacity:1" fill="#12bcb3" d="M 100.5,207.5 C 100.5,236.5 100.5,265.5 100.5,294.5C 70.8333,294.5 41.1667,294.5 11.5,294.5C 11.5,293.5 11.5,292.5 11.5,291.5C 13.8268,291.335 15.9935,290.669 18,289.5C 32.0406,289.437 46.3739,289.771 61,290.5C 72.8079,289.556 84.6412,288.556 96.5,287.5C 97.657,284.216 97.8236,280.882 97,277.5C 96.3333,280.167 95.6667,280.167 95,277.5C 92.8477,279.816 90.3477,280.15 87.5,278.5C 84.1667,281.167 80.8333,281.167 77.5,278.5C 74.7268,279.468 72.2268,280.801 70,282.5C 68.3333,281.5 66.6667,280.5 65,279.5C 62.2408,280.323 59.4074,280.99 56.5,281.5C 53.4594,279.317 50.4594,279.65 47.5,282.5C 45.2003,282.438 42.8669,282.105 40.5,281.5C 36.1965,282.21 31.8632,282.71 27.5,283C 24.8333,283.667 24.8333,284.333 27.5,285C 26.0692,285.465 24.9025,286.299 24,287.5C 22.3903,287.87 20.8903,287.203 19.5,285.5C 20.1667,285.167 20.8333,284.833 21.5,284.5C 20.3698,283.378 19.7031,282.044 19.5,280.5C 15.7747,280.22 14.608,278.22 16,274.5C 16.3333,274.833 16.6667,275.167 17,275.5C 17.4828,274.552 17.6495,273.552 17.5,272.5C 18.8333,272.5 20.1667,272.5 21.5,272.5C 21.9071,265.951 22.9071,265.951 24.5,272.5C 26.0421,271.253 27.5421,271.253 29,272.5C 31.2358,269.836 30.5691,268.17 27,267.5C 25.9054,262.22 25.4054,256.887 25.5,251.5C 26.6591,249.623 28.3258,249.123 30.5,250C 29.4829,251.049 29.3162,252.216 30,253.5C 31.3988,253.499 32.8988,253.165 34.5,252.5C 35.6956,252.846 35.6956,253.346 34.5,254C 37.1303,254.845 39.4636,254.345 41.5,252.5C 42.1924,253.025 42.6924,253.692 43,254.5C 46.1361,253.226 48.4694,254.226 50,257.5C 50.6152,255.884 51.6152,254.551 53,253.5C 52.2255,263.825 53.3921,263.825 56.5,253.5C 58.0174,253.489 59.1841,252.823 60,251.5C 61.7165,252.552 62.7165,251.886 63,249.5C 64.6667,249.833 66.3333,250.167 68,250.5C 68.5133,249.473 69.0133,248.473 69.5,247.5C 76.7676,248.563 77.4343,251.396 71.5,256C 72.6086,256.638 73.7753,257.138 75,257.5C 78.1451,256.589 81.3117,255.755 84.5,255C 85.8627,252.871 85.5294,252.371 83.5,253.5C 82.4528,252.078 82.4528,250.578 83.5,249C 85.2823,246.755 87.2823,244.755 89.5,243C 86.9036,241.864 84.237,241.031 81.5,240.5C 82.925,237.348 83.925,234.015 84.5,230.5C 83.8333,229.5 83.1667,228.5 82.5,227.5C 84.7779,223.026 88.1112,222.193 92.5,225C 87.342,225.683 87.342,226.516 92.5,227.5C 90.2642,233.376 91.2642,238.542 95.5,243C 95.7292,246.034 94.3958,248.534 91.5,250.5C 93.3231,251.491 94.8231,252.824 96,254.5C 96.9025,253.299 98.0692,252.465 99.5,252C 99.8793,249.419 99.2126,246.919 97.5,244.5C 97.6207,243.106 97.954,241.772 98.5,240.5C 97.8542,229.531 97.1875,218.531 96.5,207.5C 95.6919,207.192 95.0253,206.692 94.5,206C 96.8401,205.252 98.8401,205.752 100.5,207.5 Z"/></g>
<g><path style="opacity:0.929" fill="#13b5ab" d="M 57.5,247.5 C 56.1667,247.833 56.1667,248.167 57.5,248.5C 57.4142,249.496 57.7476,250.329 58.5,251C 57.244,251.417 56.5774,252.25 56.5,253.5C 53.3921,263.825 52.2255,263.825 53,253.5C 51.6152,254.551 50.6152,255.884 50,257.5C 48.4694,254.226 46.1361,253.226 43,254.5C 42.6924,253.692 42.1924,253.025 41.5,252.5C 39.4636,254.345 37.1303,254.845 34.5,254C 35.6956,253.346 35.6956,252.846 34.5,252.5C 32.8988,253.165 31.3988,253.499 30,253.5C 29.3162,252.216 29.4829,251.049 30.5,250C 28.3258,249.123 26.6591,249.623 25.5,251.5C 23.7951,248.713 22.6284,249.046 22,252.5C 21.6667,252.167 21.3333,251.833 21,251.5C 20.5078,252.549 20.6744,253.549 21.5,254.5C 20.0441,256.801 19.7108,259.135 20.5,261.5C 19.3493,262.731 18.1827,262.731 17,261.5C 17,258.833 17,256.167 17,253.5C 16.7508,254.624 16.2508,255.624 15.5,256.5C 15.1667,256.333 14.8333,256.167 14.5,256C 15.149,249.555 15.8157,243.055 16.5,236.5C 17.3625,241.826 17.5292,247.159 17,252.5C 18.4095,251.213 19.9095,250.046 21.5,249C 20.9781,248.439 20.6448,247.772 20.5,247C 21.3169,245.51 22.1502,244.01 23,242.5C 25.3015,243.867 27.8015,244.534 30.5,244.5C 30.3505,243.448 30.5172,242.448 31,241.5C 32.2682,241.384 33.6015,241.051 35,240.5C 38.9746,232.846 44.1413,226.013 50.5,220C 49.9394,218.434 50.6061,217.101 52.5,216C 61.4426,214.179 61.7759,215.512 53.5,220C 51.58,224.256 48.58,227.589 44.5,230C 44.8333,230.333 45.1667,230.667 45.5,231C 43.3235,235.096 40.8235,238.262 38,240.5C 34.1226,246.446 35.6226,248.779 42.5,247.5C 42.0661,244.525 42.5661,241.525 44,238.5C 45.0432,240.701 45.8765,243.034 46.5,245.5C 47.2508,244.624 47.7508,243.624 48,242.5C 48.5197,245.493 49.1864,248.493 50,251.5C 51.0975,250.033 52.5975,249.199 54.5,249C 53.8333,248.667 53.1667,248.333 52.5,248C 54.0609,247.682 55.2276,246.849 56,245.5C 56.7172,246.044 57.2172,246.711 57.5,247.5 Z"/></g>
<g><path style="opacity:0.934" fill="#12b3a9" d="M 81.5,240.5 C 84.237,241.031 86.9036,241.864 89.5,243C 87.2823,244.755 85.2823,246.755 83.5,249C 82.4528,250.578 82.4528,252.078 83.5,253.5C 85.5294,252.371 85.8627,252.871 84.5,255C 81.3117,255.755 78.1451,256.589 75,257.5C 73.7753,257.138 72.6086,256.638 71.5,256C 77.4343,251.396 76.7676,248.563 69.5,247.5C 69.2792,244.903 68.7792,244.903 68,247.5C 67.0206,245.68 65.5206,244.513 63.5,244C 66.1104,243.853 68.4437,243.019 70.5,241.5C 71.5976,245.361 72.4309,245.361 73,241.5C 74.3988,242.227 75.8988,242.727 77.5,243C 76.8333,243.333 76.1667,243.667 75.5,244C 76.6667,244.5 77.5,245.333 78,246.5C 79.0768,244.422 80.2434,242.422 81.5,240.5 Z"/></g>
<g><path style="opacity:1" fill="#29aaa0" d="M 8.5,260.5 C 9.82708,264.951 10.4937,269.784 10.5,275C 10.3845,281.521 10.0512,288.021 9.5,294.5C 8.50523,283.346 8.1719,272.012 8.5,260.5 Z"/></g>
<g><path style="opacity:0.716" fill="#0db0a9" d="M 19.5,280.5 C 19.5,278.833 19.5,277.167 19.5,275.5C 21.3904,275.703 22.8904,275.037 24,273.5C 26.6153,276.07 29.282,276.07 32,273.5C 32.5194,274.516 33.3527,275.182 34.5,275.5C 38.8472,276.047 43.1805,276.714 47.5,277.5C 47.0814,278.672 46.4147,279.672 45.5,280.5C 43.5741,279.939 41.5741,279.773 39.5,280C 38.3333,279.5 37.5,278.667 37,277.5C 36.6258,278.416 36.1258,279.25 35.5,280C 31.5,280.667 27.5,280.667 23.5,280C 22.8742,279.25 22.3742,278.416 22,277.5C 21.7645,279.119 20.9311,280.119 19.5,280.5 Z"/></g>
<g><path style="opacity:0.376" fill="#e6e6e6" d="M 315.5,279.5 C 316.482,282.962 316.815,286.629 316.5,290.5C 319.5,290.5 322.5,290.5 325.5,290.5C 325.19,287.287 325.523,284.287 326.5,281.5C 326.5,284.833 326.5,288.167 326.5,291.5C 322.833,291.5 319.167,291.5 315.5,291.5C 315.5,287.5 315.5,283.5 315.5,279.5 Z"/></g>
<g><path style="opacity:0.574" fill="#21a7a0" d="M 101.5,206.5 C 101.538,236.111 101.538,265.611 101.5,295C 70.6639,295.831 39.9973,295.664 9.5,294.5C 10.1667,294.5 10.8333,294.5 11.5,294.5C 41.1667,294.5 70.8333,294.5 100.5,294.5C 100.5,265.5 100.5,236.5 100.5,207.5C 100.5,206.833 100.833,206.5 101.5,206.5 Z"/></g>
</svg>
