<?xml version="1.0" encoding="UTF-8"?>
<!DOCTYPE svg PUBLIC "-//W3C//DTD SVG 1.1//EN" "http://www.w3.org/Graphics/SVG/1.1/DTD/svg11.dtd">
<svg xmlns="http://www.w3.org/2000/svg" version="1.1" width="500px" height="500px" style="shape-rendering:geometricPrecision; text-rendering:geometricPrecision; image-rendering:optimizeQuality; fill-rule:evenodd; clip-rule:evenodd" xmlns:xlink="http://www.w3.org/1999/xlink">
<g><path style="opacity:1" fill="#12beb4" d="M -0.5,-0.5 C 166.167,-0.5 332.833,-0.5 499.5,-0.5C 499.5,166.167 499.5,332.833 499.5,499.5C 332.833,499.5 166.167,499.5 -0.5,499.5C -0.5,332.833 -0.5,166.167 -0.5,-0.5 Z"/></g>
<g><path style="opacity:1" fill="#081514" d="M 279.5,176.5 C 295.734,175.576 309.734,180.576 321.5,191.5C 321.167,191.833 320.833,192.167 320.5,192.5C 304.172,179.085 286.172,176.252 266.5,184C 251.584,191.913 238.75,202.413 228,215.5C 207.011,242.15 193.011,272.15 186,305.5C 184.989,306.337 183.822,306.67 182.5,306.5C 182.396,293.789 181.562,281.123 180,268.5C 179.867,265.586 178.7,263.253 176.5,261.5C 175.416,262.665 174.583,263.998 174,265.5C 170.36,275.392 167.027,285.392 164,295.5C 163,296.833 162,296.833 161,295.5C 159.874,291.251 159.208,286.918 159,282.5C 158.299,267.497 157.965,252.497 158,237.5C 158.667,236.167 159.333,236.167 160,237.5C 161.221,254.821 162.221,272.154 163,289.5C 165.799,280.769 168.799,272.103 172,263.5C 175.333,256.833 178.667,256.833 182,263.5C 183.376,272.799 184.543,282.132 185.5,291.5C 196.592,250.112 218.592,215.945 251.5,189C 260.323,183.416 269.657,179.25 279.5,176.5 Z"/></g>
<g><path style="opacity:1" fill="#061211" d="M 323.5,214.5 C 327.676,213.831 329.009,215.331 327.5,219C 326.207,219.49 324.873,219.657 323.5,219.5C 323.5,217.833 323.5,216.167 323.5,214.5 Z"/></g>
<g><path style="opacity:1" fill="#0a1917" d="M 316.5,246.5 C 317.376,246.369 318.043,246.702 318.5,247.5C 317.187,250.405 316.687,253.405 317,256.5C 320.285,253.943 323.785,252.11 327.5,251C 323.049,253.783 318.883,256.95 315,260.5C 314.322,268.875 311.488,276.375 306.5,283C 302.372,285.066 298.039,285.732 293.5,285C 291.673,284.101 290.34,282.767 289.5,281C 290.764,277.814 292.764,275.148 295.5,273C 301.167,268.5 306.833,264 312.5,259.5C 310.111,259.657 307.611,259.324 305,258.5C 302.524,260.487 299.69,261.487 296.5,261.5C 296.785,259.712 296.452,258.045 295.5,256.5C 293.393,258.53 291.393,260.697 289.5,263C 286.207,263.826 282.874,264.326 279.5,264.5C 279.063,261.193 279.73,258.193 281.5,255.5C 281.833,256 282.167,256.5 282.5,257C 281.767,258.766 281.433,260.599 281.5,262.5C 285.913,261.256 288.913,258.423 290.5,254C 291.742,253.689 292.742,254.189 293.5,255.5C 295.071,253.585 297.071,252.585 299.5,252.5C 299.337,254.857 299.503,257.19 300,259.5C 303.84,256.039 307.34,252.206 310.5,248C 312.708,247.809 314.708,247.309 316.5,246.5 Z"/></g>
<g><path style="opacity:1" fill="#081614" d="M 283.5,248.5 C 284.239,248.369 284.906,248.536 285.5,249C 283.326,253.559 282.66,253.392 283.5,248.5 Z"/></g>
<g><path style="opacity:1" fill="#11aea5" d="M 310.5,249.5 C 311.833,249.5 313.167,249.5 314.5,249.5C 314.361,253.111 312.694,255.777 309.5,257.5C 309.167,256.667 308.833,255.833 308.5,255C 308.954,253.061 309.621,251.228 310.5,249.5 Z"/></g>
<g><path style="opacity:1" fill="#091716" d="M 236.5,239.5 C 237.586,239.62 238.253,240.287 238.5,241.5C 235.797,251.062 233.963,260.728 233,270.5C 235.562,270.738 237.896,269.738 240,267.5C 240.218,264.574 240.718,261.74 241.5,259C 243.728,258.18 245.728,258.513 247.5,260C 246.101,260.595 244.768,260.428 243.5,259.5C 242.114,261.954 242.614,263.954 245,265.5C 248.719,264.934 250.885,262.934 251.5,259.5C 253.124,259.36 254.29,260.027 255,261.5C 256.677,260.484 258.343,259.484 260,258.5C 262.688,260.878 265.521,261.045 268.5,259C 269.337,257.989 269.67,256.822 269.5,255.5C 270.822,255.33 271.989,255.663 273,256.5C 274.584,255.139 276.418,254.472 278.5,254.5C 278.762,255.978 278.429,257.311 277.5,258.5C 276.808,257.975 276.308,257.308 276,256.5C 275.25,257.126 274.416,257.626 273.5,258C 271.457,261.253 269.29,264.42 267,267.5C 267,265.5 267,263.5 267,261.5C 263.833,263.333 261.333,265.833 259.5,269C 256.67,269.869 254.003,271.036 251.5,272.5C 249.471,279.287 247.138,285.953 244.5,292.5C 244.167,292 243.833,291.5 243.5,291C 245.927,282.128 248.093,273.295 250,264.5C 248.702,265.56 247.535,266.726 246.5,268C 247.409,269.789 247.576,271.623 247,273.5C 244.737,275.591 242.07,276.924 239,277.5C 235.863,276.055 235.697,274.222 238.5,272C 236.632,271.996 234.798,272.496 233,273.5C 231.118,272.907 230.118,271.573 230,269.5C 227.888,272.284 225.221,274.284 222,275.5C 220.013,274.846 218.68,273.513 218,271.5C 214.365,276.939 209.698,278.272 204,275.5C 203.833,269 207,265.833 213.5,266C 214.603,267.68 214.27,269.18 212.5,270.5C 210.49,271.502 208.49,272.502 206.5,273.5C 208.528,275.941 210.862,276.108 213.5,274C 215,272.5 216.5,271 218,269.5C 219.878,259.986 222.378,250.653 225.5,241.5C 225.833,242.5 226.167,243.5 226.5,244.5C 223.86,254.005 222.194,263.671 221.5,273.5C 224.959,272.564 227.793,270.564 230,267.5C 231.545,257.99 233.711,248.657 236.5,239.5 Z"/></g>
<g><path style="opacity:1" fill="#11a89f" d="M 258.5,260.5 C 260.225,260.843 260.725,261.843 260,263.5C 258.185,265.405 256.185,267.072 254,268.5C 253.333,267.5 253.333,266.5 254,265.5C 255.707,263.963 257.207,262.296 258.5,260.5 Z"/></g>
<g><path style="opacity:1" fill="#12b9af" d="M 310.5,262.5 C 311.245,268.854 309.745,274.854 306,280.5C 302.067,282.478 297.9,282.978 293.5,282C 292.483,280.951 292.316,279.784 293,278.5C 298.433,272.567 304.266,267.233 310.5,262.5 Z"/></g>
<g><path style="opacity:1" fill="#10a39a" d="M 209.5,267.5 C 211.028,267.517 211.528,268.184 211,269.5C 207.189,270.966 206.689,270.3 209.5,267.5 Z"/></g>
<g><path style="opacity:1" fill="#10a198" d="M 241.5,270.5 C 242.5,270.5 243.5,270.5 244.5,270.5C 244.105,274.359 242.105,275.692 238.5,274.5C 239.524,273.148 240.524,271.815 241.5,270.5 Z"/></g>
<g><path style="opacity:1" fill="#081e1c" d="M 193.5,328.5 C 195.167,331.261 196.167,334.428 196.5,338C 195.551,338.617 194.718,338.451 194,337.5C 193.502,334.518 193.335,331.518 193.5,328.5 Z"/></g>
<g><path style="opacity:1" fill="#091817" d="M 267.5,328.5 C 269.402,331.337 270.069,334.671 269.5,338.5C 263.887,339.921 261.72,337.921 263,332.5C 264.356,331.62 265.856,331.286 267.5,331.5C 267.5,330.5 267.5,329.5 267.5,328.5 Z"/></g>
<g><path style="opacity:1" fill="#0e1e1c" d="M 173.5,332.5 C 174.268,331.737 174.768,330.737 175,329.5C 175.498,332.482 175.665,335.482 175.5,338.5C 174.566,337.432 174.232,336.099 174.5,334.5C 172.833,334.5 171.167,334.5 169.5,334.5C 168.742,339.752 168.075,339.585 167.5,334C 167.833,332.5 168.167,331 168.5,329.5C 169.386,330.325 169.719,331.325 169.5,332.5C 170.833,332.5 172.167,332.5 173.5,332.5 Z"/></g>
<g><path style="opacity:1" fill="#0a6863" d="M 175.5,338.5 C 175.665,335.482 175.498,332.482 175,329.5C 174.768,330.737 174.268,331.737 173.5,332.5C 173.5,331.167 173.5,329.833 173.5,328.5C 174.5,328.5 175.5,328.5 176.5,328.5C 176.813,332.042 176.479,335.375 175.5,338.5 Z"/></g>
<g><path style="opacity:1" fill="#0e1e1d" d="M 283.5,328.5 C 286.797,328.329 287.131,328.995 284.5,330.5C 285.025,331.192 285.692,331.692 286.5,332C 285.036,333.864 284.036,336.031 283.5,338.5C 282.249,335.126 282.249,331.793 283.5,328.5 Z"/></g>
<g><path style="opacity:1" fill="#071312" d="M 198.5,329.5 C 199.309,330.469 200.309,331.302 201.5,332C 198.967,333.916 198.967,335.916 201.5,338C 200.552,338.483 199.552,338.649 198.5,338.5C 198.118,335.354 198.118,332.354 198.5,329.5 Z"/></g>
<g><path style="opacity:1" fill="#0e2321" d="M 203.5,328.5 C 205.048,328.821 205.715,329.821 205.5,331.5C 206.833,331.5 208.167,331.5 209.5,331.5C 209.37,339.965 208.37,340.299 206.5,332.5C 205.833,334.5 205.167,336.5 204.5,338.5C 203.513,335.232 203.18,331.898 203.5,328.5 Z"/></g>
<g><path style="opacity:1" fill="#091918" d="M 212.5,331.5 C 214.288,331.215 215.955,331.548 217.5,332.5C 216.609,333.59 215.609,333.59 214.5,332.5C 212.787,336.258 213.787,337.758 217.5,337C 211.756,339.387 210.09,337.554 212.5,331.5 Z"/></g>
<g><path style="opacity:1" fill="#0b1a19" d="M 226.5,331.5 C 228.199,331.34 229.866,331.506 231.5,332C 230.584,332.374 229.75,332.874 229,333.5C 228.798,335.256 228.298,336.922 227.5,338.5C 226.526,336.257 226.192,333.924 226.5,331.5 Z"/></g>
<g><path style="opacity:1" fill="#0c1a19" d="M 296.5,331.5 C 297.873,331.343 299.207,331.51 300.5,332C 299.036,333.864 298.036,336.031 297.5,338.5C 296.526,336.257 296.192,333.924 296.5,331.5 Z"/></g>
<g><path style="opacity:1" fill="#041312" d="M 325.5,337.5 C 324.458,338.791 323.292,338.791 322,337.5C 321.192,335.421 321.359,333.421 322.5,331.5C 322.964,333.975 323.964,335.975 325.5,337.5 Z"/></g>
<g><path style="opacity:1" fill="#000202" d="M 325.5,337.5 C 326.185,335.586 326.685,333.586 327,331.5C 327.667,333.833 327.667,336.167 327,338.5C 326.617,337.944 326.117,337.611 325.5,337.5 Z"/></g>
<g><path style="opacity:1" fill="#0b211f" d="M 179.5,331.5 C 182.95,330.756 184.616,332.09 184.5,335.5C 177.866,335.677 177.866,336.177 184.5,337C 181.342,339.294 179.009,338.627 177.5,335C 177.978,333.697 178.645,332.531 179.5,331.5 Z"/></g>
<g><path style="opacity:1" fill="#0b1a19" d="M 304.5,330.5 C 306.267,329.35 307.433,330.017 308,332.5C 308.833,331.5 309.667,330.5 310.5,329.5C 310.833,329.833 311.167,330.167 311.5,330.5C 310.252,333.07 309.252,335.737 308.5,338.5C 307.666,335.498 306.333,332.832 304.5,330.5 Z"/></g>
<g><path style="opacity:1" fill="#0b1b19" d="M 314.5,331.5 C 320.016,331.473 321.349,333.64 318.5,338C 313.57,338.427 312.237,336.26 314.5,331.5 Z"/></g>
<g><path style="opacity:1" fill="#0d857e" d="M 180.5,332.5 C 182.337,332.639 182.67,333.306 181.5,334.5C 180.702,334.043 180.369,333.376 180.5,332.5 Z"/></g>
<g><path style="opacity:1" fill="#0c211f" d="M 250.5,328.5 C 251.5,328.5 252.5,328.5 253.5,328.5C 253.82,331.898 253.487,335.232 252.5,338.5C 251.702,336.922 251.202,335.256 251,333.5C 249.753,339.345 248.087,339.679 246,334.5C 245.781,335.938 245.281,337.271 244.5,338.5C 243.516,335.572 243.183,332.572 243.5,329.5C 244.675,329.281 245.675,329.614 246.5,330.5C 248.749,335.345 250.082,334.678 250.5,328.5 Z"/></g>
<g><path style="opacity:1" fill="#12b4aa" d="M 265.5,332.5 C 267.104,333.287 267.771,334.62 267.5,336.5C 266.5,336.5 265.5,336.5 264.5,336.5C 264.433,335.041 264.766,333.708 265.5,332.5 Z"/></g>
<g><path style="opacity:1" fill="#0d2523" d="M 272.5,331.5 C 274.167,331.5 275.833,331.5 277.5,331.5C 277.5,332.833 277.5,334.167 277.5,335.5C 272.318,335.557 272.318,336.224 277.5,337.5C 271.74,339.213 270.074,337.213 272.5,331.5 Z"/></g>
<g><path style="opacity:1" fill="#0b1d1b" d="M 288.5,331.5 C 294.555,330.942 295.888,333.109 292.5,338C 287.57,338.427 286.237,336.26 288.5,331.5 Z"/></g>
<g><path style="opacity:1" fill="#11b1a8" d="M 289.5,332.5 C 291.912,332.694 292.912,334.027 292.5,336.5C 291.5,336.5 290.5,336.5 289.5,336.5C 289.5,335.167 289.5,333.833 289.5,332.5 Z"/></g>
<g><path style="opacity:1" fill="#11aaa1" d="M 315.5,332.5 C 317.912,332.694 318.912,334.027 318.5,336.5C 317.5,336.5 316.5,336.5 315.5,336.5C 315.5,335.167 315.5,333.833 315.5,332.5 Z"/></g>
<g><path style="opacity:1" fill="#091f1d" d="M 233.5,331.5 C 236.95,330.756 238.616,332.09 238.5,335.5C 231.866,335.677 231.866,336.177 238.5,337C 232.756,339.387 231.09,337.554 233.5,331.5 Z"/></g>
<g><path style="opacity:1" fill="#0d857e" d="M 234.5,332.5 C 236.337,332.639 236.67,333.306 235.5,334.5C 234.702,334.043 234.369,333.376 234.5,332.5 Z"/></g>
<g><path style="opacity:1" fill="#0f2927" d="M 255.5,331.5 C 257.167,331.5 258.833,331.5 260.5,331.5C 260.244,333.792 260.577,335.959 261.5,338C 259.613,337.577 257.613,337.744 255.5,338.5C 255.5,337.167 255.5,335.833 255.5,334.5C 256.675,334.719 257.675,334.386 258.5,333.5C 257.726,332.289 256.893,332.289 256,333.5C 255.536,332.906 255.369,332.239 255.5,331.5 Z"/></g>
<g><path style="opacity:1" fill="#031412" d="M 189.5,337.5 C 187.907,338.867 186.574,338.534 185.5,336.5C 186.518,335.148 187.851,334.148 189.5,333.5C 188.726,332.289 187.893,332.289 187,333.5C 186.568,332.4 187.068,331.733 188.5,331.5C 189.442,331.608 190.275,331.941 191,332.5C 191.251,334.433 191.751,336.266 192.5,338C 191.423,338.47 190.423,338.303 189.5,337.5 Z"/></g>
<g><path style="opacity:1" fill="#0e8d85" d="M 189.5,337.5 C 187.663,337.361 187.33,336.694 188.5,335.5C 189.298,335.957 189.631,336.624 189.5,337.5 Z"/></g>
<g><path style="opacity:1" fill="#031412" d="M 222.5,337.5 C 220.907,338.867 219.574,338.534 218.5,336.5C 219.518,335.148 220.851,334.148 222.5,333.5C 221.726,332.289 220.893,332.289 220,333.5C 219.568,332.4 220.068,331.733 221.5,331.5C 222.442,331.608 223.275,331.941 224,332.5C 224.251,334.433 224.751,336.266 225.5,338C 224.423,338.47 223.423,338.303 222.5,337.5 Z"/></g>
<g><path style="opacity:1" fill="#0e8d85" d="M 222.5,337.5 C 220.663,337.361 220.33,336.694 221.5,335.5C 222.298,335.957 222.631,336.624 222.5,337.5 Z"/></g>
</svg>
