<?xml version="1.0" encoding="UTF-8"?>
<!DOCTYPE svg PUBLIC "-//W3C//DTD SVG 1.1//EN" "http://www.w3.org/Graphics/SVG/1.1/DTD/svg11.dtd">
<svg xmlns="http://www.w3.org/2000/svg" version="1.1" width="500px" height="500px" style="shape-rendering:geometricPrecision; text-rendering:geometricPrecision; image-rendering:optimizeQuality; fill-rule:evenodd; clip-rule:evenodd" xmlns:xlink="http://www.w3.org/1999/xlink">
<g><path style="opacity:1" fill="#12bdb3" d="M 104.5,221.5 C 114.818,222.095 125.151,222.762 135.5,223.5C 134.753,223.736 133.92,224.07 133,224.5C 132.261,226.221 131.427,227.887 130.5,229.5C 127.912,230.194 125.579,231.36 123.5,233C 124.311,235.291 123.477,237.125 121,238.5C 120.517,239.448 120.351,240.448 120.5,241.5C 119.647,244.187 118.147,246.521 116,248.5C 115.261,247.426 114.261,246.759 113,246.5C 111.435,247.952 110.102,249.619 109,251.5C 108.667,248.5 108.333,245.5 108,242.5C 107.517,243.448 107.351,244.448 107.5,245.5C 106.732,244.737 106.232,243.737 106,242.5C 105.79,244.058 105.29,245.391 104.5,246.5C 105.132,238.427 104.465,230.76 102.5,223.5C 102.833,222.5 103.5,221.833 104.5,221.5 Z"/></g>
<g><path style="opacity:1" fill="#12bdb3" d="M 157.5,221.5 C 158.49,227.31 158.823,233.31 158.5,239.5C 157.178,239.33 156.011,239.663 155,240.5C 154.311,239.643 153.478,238.977 152.5,238.5C 152.693,239.688 152.193,241.022 151,242.5C 149.801,238.814 149.467,239.147 150,243.5C 150.667,244.833 151.333,244.833 152,243.5C 152.74,244.749 152.573,245.749 151.5,246.5C 148.005,244.227 144.505,244.56 141,247.5C 140.383,246.551 140.549,245.718 141.5,245C 139.326,244.819 137.493,245.652 136,247.5C 134.855,246.316 133.688,246.316 132.5,247.5C 132.426,245.589 131.426,244.422 129.5,244C 130.794,241.913 131.961,239.746 133,237.5C 133.718,238.451 134.551,238.617 135.5,238C 134.483,236.951 134.316,235.784 135,234.5C 135.333,234.833 135.667,235.167 136,235.5C 137.074,234.382 138.24,233.382 139.5,232.5C 139.023,231.522 138.357,230.689 137.5,230C 141.5,229.333 141.5,228.667 137.5,228C 140.267,227.944 142.933,227.778 145.5,227.5C 146.869,229.124 148.536,229.624 150.5,229C 147.327,227.91 145.66,226.077 145.5,223.5C 149.647,222.833 153.647,222.166 157.5,221.5 Z"/></g>
<g><path style="opacity:0.861" fill="#fbfcfb" d="M 242.5,232.5 C 244.5,232.5 246.5,232.5 248.5,232.5C 248.5,241.833 248.5,251.167 248.5,260.5C 249.5,260.5 250.5,260.5 251.5,260.5C 253.579,265.591 251.912,267.424 246.5,266C 245.069,265.535 243.903,264.701 243,263.5C 241.242,253.151 241.075,242.817 242.5,232.5 Z"/></g>
<g><path style="opacity:0.863" fill="#fcfcfc" d="M 255.5,232.5 C 257.5,232.5 259.5,232.5 261.5,232.5C 261.5,241.833 261.5,251.167 261.5,260.5C 262.5,260.5 263.5,260.5 264.5,260.5C 266.579,265.591 264.912,267.424 259.5,266C 258.069,265.535 256.903,264.701 256,263.5C 254.242,253.151 254.075,242.817 255.5,232.5 Z"/></g>
<g><path style="opacity:0.943" fill="#f8f8f8" d="M 336.5,232.5 C 341.486,232.305 343.152,234.472 341.5,239C 339.105,241.145 336.938,240.978 335,238.5C 334.252,236.16 334.752,234.16 336.5,232.5 Z"/></g>
<g><path style="opacity:0.943" fill="#fbfbfb" d="M 174.5,234.5 C 176.833,234.5 179.167,234.5 181.5,234.5C 182.933,241.5 184.433,248.5 186,255.5C 187.667,248.833 189.333,242.167 191,235.5C 193.041,234.577 195.208,234.244 197.5,234.5C 198.719,241.38 200.552,248.047 203,254.5C 204.206,248.139 205.539,241.806 207,235.5C 209.041,234.577 211.208,234.244 213.5,234.5C 211.654,244.554 209.487,254.554 207,264.5C 204.333,265.833 201.667,265.833 199,264.5C 197.489,258.788 195.822,253.121 194,247.5C 192.183,253.435 190.683,259.435 189.5,265.5C 186.833,265.5 184.167,265.5 181.5,265.5C 179.294,255.134 176.96,244.8 174.5,234.5 Z"/></g>
<g><path style="opacity:0.943" fill="#fafbfb" d="M 389.5,238.5 C 391.195,239.011 392.861,239.678 394.5,240.5C 393.752,242.332 392.752,243.999 391.5,245.5C 392.996,249.19 392.663,252.69 390.5,256C 387.268,257.466 383.935,258.633 380.5,259.5C 384.571,260.137 388.571,260.971 392.5,262C 396.893,267.437 395.893,271.77 389.5,275C 384.411,275.826 379.411,275.492 374.5,274C 370.07,269.552 370.736,266.219 376.5,264C 373.64,260.97 373.973,258.303 377.5,256C 376.333,255.5 375.5,254.667 375,253.5C 373.626,243.712 377.792,240.046 387.5,242.5C 388.362,241.234 389.029,239.901 389.5,238.5 Z M 381.5,246.5 C 385.677,245.842 387.177,247.508 386,251.5C 383.442,254.15 381.608,253.65 380.5,250C 380.648,248.744 380.982,247.577 381.5,246.5 Z M 378.5,266.5 C 381.833,266.5 385.167,266.5 388.5,266.5C 388.625,269.893 386.958,271.226 383.5,270.5C 380.042,271.226 378.375,269.893 378.5,266.5 Z"/></g>
<g><path style="opacity:0.924" fill="#fbfbfb" d="M 224.5,241.5 C 234.345,241.013 238.679,245.679 237.5,255.5C 232.456,255.173 227.456,255.506 222.5,256.5C 225.673,261.397 229.34,261.73 233.5,257.5C 238.893,261.216 238.227,264.049 231.5,266C 220.498,267.33 215.331,262.497 216,251.5C 216.946,246.399 219.779,243.066 224.5,241.5 Z M 224.5,247.5 C 226.527,247.338 228.527,247.505 230.5,248C 231.337,249.011 231.67,250.178 231.5,251.5C 228.482,251.665 225.482,251.498 222.5,251C 223.305,249.887 223.972,248.721 224.5,247.5 Z"/></g>
<g><path style="opacity:0.921" fill="#fbfbfb" d="M 273.5,241.5 C 277.981,240.88 281.648,242.213 284.5,245.5C 283.52,246.981 282.353,248.315 281,249.5C 278.782,247.381 276.282,247.048 273.5,248.5C 275.697,250.518 278.364,251.685 281.5,252C 285.701,255.025 286.535,258.859 284,263.5C 277.727,267.793 271.894,267.293 266.5,262C 267.27,260.225 268.437,258.725 270,257.5C 272.844,260.605 276.011,261.105 279.5,259C 275.428,257.203 271.595,255.037 268,252.5C 266.185,246.855 268.018,243.188 273.5,241.5 Z"/></g>
<g><path style="opacity:0.946" fill="#fbfbfb" d="M 300.5,241.5 C 306.031,241.177 309.864,243.51 312,248.5C 313.068,253.768 312.401,258.768 310,263.5C 305.848,266.918 301.515,267.252 297,264.5C 296.501,268.152 296.335,271.818 296.5,275.5C 294.167,275.5 291.833,275.5 289.5,275.5C 289.5,264.5 289.5,253.5 289.5,242.5C 292.249,242.274 294.916,242.607 297.5,243.5C 298.739,243.058 299.739,242.391 300.5,241.5 Z M 298.5,247.5 C 301.044,247.104 303.211,247.771 305,249.5C 306.023,253.317 305.523,256.817 303.5,260C 300.975,260.896 298.808,260.396 297,258.5C 296.013,254.525 296.513,250.859 298.5,247.5 Z"/></g>
<g><path style="opacity:0.944" fill="#fcfcfc" d="M 327.5,241.5 C 332.348,241.775 333.681,244.108 331.5,248.5C 329.473,248.338 327.473,248.505 325.5,249C 324.874,249.75 324.374,250.584 324,251.5C 323.501,256.155 323.334,260.821 323.5,265.5C 321.5,265.5 319.5,265.5 317.5,265.5C 317.5,257.833 317.5,250.167 317.5,242.5C 320.079,242.083 322.246,242.75 324,244.5C 325.145,243.364 326.312,242.364 327.5,241.5 Z"/></g>
<g><path style="opacity:0.95" fill="#fcfcfb" d="M 358.5,241.5 C 362.569,241.014 365.736,242.347 368,245.5C 369.377,252.076 369.877,258.743 369.5,265.5C 367.167,265.5 364.833,265.5 362.5,265.5C 362.666,259.824 362.499,254.157 362,248.5C 359.408,247.018 357.075,247.352 355,249.5C 354.501,254.823 354.334,260.156 354.5,265.5C 352.167,265.5 349.833,265.5 347.5,265.5C 347.5,257.833 347.5,250.167 347.5,242.5C 350.394,242.042 352.894,242.709 355,244.5C 356.145,243.364 357.312,242.364 358.5,241.5 Z"/></g>
<g><path style="opacity:0.987" fill="#fcfcfc" d="M 335.5,242.5 C 337.5,242.5 339.5,242.5 341.5,242.5C 341.5,250.167 341.5,257.833 341.5,265.5C 339.5,265.5 337.5,265.5 335.5,265.5C 335.5,257.833 335.5,250.167 335.5,242.5 Z"/></g>
<g><path style="opacity:1" fill="#15b7ae" d="M 104.5,221.5 C 111.313,220.509 118.313,220.175 125.5,220.5C 135.987,221.494 146.654,221.828 157.5,221.5C 153.647,222.166 149.647,222.833 145.5,223.5C 145.66,226.077 147.327,227.91 150.5,229C 148.536,229.624 146.869,229.124 145.5,227.5C 142.933,227.778 140.267,227.944 137.5,228C 141.5,228.667 141.5,229.333 137.5,230C 138.357,230.689 139.023,231.522 139.5,232.5C 138.24,233.382 137.074,234.382 136,235.5C 135.667,235.167 135.333,234.833 135,234.5C 134.316,235.784 134.483,236.951 135.5,238C 134.551,238.617 133.718,238.451 133,237.5C 131.961,239.746 130.794,241.913 129.5,244C 131.426,244.422 132.426,245.589 132.5,247.5C 131.175,248.953 130.342,248.619 130,246.5C 129.085,247.328 128.419,248.328 128,249.5C 128.155,247.189 128.155,244.856 128,242.5C 127,245.167 126,247.833 125,250.5C 125,247.833 125,245.167 125,242.5C 124.178,244.788 123.511,247.122 123,249.5C 122,248.167 121,248.167 120,249.5C 119.26,250.749 119.427,251.749 120.5,252.5C 120.548,255.292 119.215,257.125 116.5,258C 117.833,259.333 117.833,260.667 116.5,262C 119.76,262.784 122.927,262.617 126,261.5C 127.309,263.891 128.309,263.891 129,261.5C 129.464,262.094 129.631,262.761 129.5,263.5C 128.699,265.042 128.366,266.708 128.5,268.5C 122.123,268.416 115.956,268.416 110,268.5C 110.023,265.613 111.523,263.613 114.5,262.5C 113.873,261.583 113.539,260.583 113.5,259.5C 115.851,254.362 118.518,249.196 121.5,244C 121.167,243.667 120.833,243.333 120.5,243C 123.031,241.269 123.031,240.769 120.5,241.5C 120.351,240.448 120.517,239.448 121,238.5C 123.477,237.125 124.311,235.291 123.5,233C 125.579,231.36 127.912,230.194 130.5,229.5C 131.427,227.887 132.261,226.221 133,224.5C 133.92,224.07 134.753,223.736 135.5,223.5C 125.151,222.762 114.818,222.095 104.5,221.5 Z"/></g>
<g><path style="opacity:0.51" fill="#2aaca8" d="M 125.5,220.5 C 136.833,220.5 148.167,220.5 159.5,220.5C 159.5,239.5 159.5,258.5 159.5,277.5C 140.833,277.5 122.167,277.5 103.5,277.5C 103.373,259.443 103.039,241.443 102.5,223.5C 104.465,230.76 105.132,238.427 104.5,246.5C 104.5,256.5 104.5,266.5 104.5,276.5C 122.674,276.83 140.674,276.497 158.5,275.5C 158.5,263.5 158.5,251.5 158.5,239.5C 158.823,233.31 158.49,227.31 157.5,221.5C 146.654,221.828 135.987,221.494 125.5,220.5 Z"/></g>
<g><path style="opacity:1" fill="#12bbb3" d="M 107.5,245.5 C 107.545,249.777 107.878,253.777 108.5,257.5C 110.145,255.075 111.311,252.408 112,249.5C 112.833,251.167 113.667,252.833 114.5,254.5C 113.691,256.071 113.357,257.738 113.5,259.5C 113.539,260.583 113.873,261.583 114.5,262.5C 111.523,263.613 110.023,265.613 110,268.5C 115.956,268.416 122.123,268.416 128.5,268.5C 128.366,266.708 128.699,265.042 129.5,263.5C 130.268,262.737 130.768,261.737 131,260.5C 131.582,263.668 132.582,264.001 134,261.5C 134.333,262.167 134.667,262.833 135,263.5C 136.957,262.146 138.957,262.479 141,264.5C 141.604,262.314 142.77,262.148 144.5,264C 144.167,264.333 143.833,264.667 143.5,265C 145.167,265.667 146.833,265.667 148.5,265C 147.09,264.632 146.09,263.799 145.5,262.5C 146.723,260.54 148.056,258.707 149.5,257C 146.621,256.454 143.954,255.621 141.5,254.5C 143.199,254.66 144.866,254.494 146.5,254C 147.643,251.575 148.976,249.408 150.5,247.5C 151.452,249.112 151.786,250.612 151.5,252C 150.833,252.333 150.167,252.667 149.5,253C 153.699,255.497 154.366,258.664 151.5,262.5C 152.167,263.167 152.833,263.833 153.5,264.5C 153.086,267.41 152.086,270.077 150.5,272.5C 137.358,273.017 124.358,273.85 111.5,275C 127.163,275.5 142.83,275.667 158.5,275.5C 140.674,276.497 122.674,276.83 104.5,276.5C 104.5,266.5 104.5,256.5 104.5,246.5C 105.29,245.391 105.79,244.058 106,242.5C 106.232,243.737 106.732,244.737 107.5,245.5 Z"/></g>
<g><path style="opacity:1" fill="#12bdb3" d="M 141.5,254.5 C 143.954,255.621 146.621,256.454 149.5,257C 148.056,258.707 146.723,260.54 145.5,262.5C 146.09,263.799 147.09,264.632 148.5,265C 146.833,265.667 145.167,265.667 143.5,265C 143.833,264.667 144.167,264.333 144.5,264C 142.77,262.148 141.604,262.314 141,264.5C 138.957,262.479 136.957,262.146 135,263.5C 134.667,262.833 134.333,262.167 134,261.5C 132.582,264.001 131.582,263.668 131,260.5C 130.768,261.737 130.268,262.737 129.5,263.5C 129.631,262.761 129.464,262.094 129,261.5C 128.309,263.891 127.309,263.891 126,261.5C 122.927,262.617 119.76,262.784 116.5,262C 117.833,260.667 117.833,259.333 116.5,258C 119.215,257.125 120.548,255.292 120.5,252.5C 123.714,251.792 126.881,251.459 130,251.5C 130.579,255.386 131.412,255.386 132.5,251.5C 134.559,250.433 136.392,249.1 138,247.5C 139.667,248.833 141.333,248.833 143,247.5C 143.75,248.126 144.584,248.626 145.5,249C 143.561,250.432 142.228,252.265 141.5,254.5 Z"/></g>
<g><path style="opacity:0.478" fill="#08a299" d="M 132.5,247.5 C 133.688,246.316 134.855,246.316 136,247.5C 137.493,245.652 139.326,244.819 141.5,245C 140.549,245.718 140.383,246.551 141,247.5C 144.505,244.56 148.005,244.227 151.5,246.5C 150.833,246.5 150.5,246.833 150.5,247.5C 148.976,249.408 147.643,251.575 146.5,254C 144.866,254.494 143.199,254.66 141.5,254.5C 142.228,252.265 143.561,250.432 145.5,249C 144.584,248.626 143.75,248.126 143,247.5C 141.333,248.833 139.667,248.833 138,247.5C 136.392,249.1 134.559,250.433 132.5,251.5C 131.412,255.386 130.579,255.386 130,251.5C 126.881,251.459 123.714,251.792 120.5,252.5C 119.427,251.749 119.26,250.749 120,249.5C 121,248.167 122,248.167 123,249.5C 123.511,247.122 124.178,244.788 125,242.5C 125,245.167 125,247.833 125,250.5C 126,247.833 127,245.167 128,242.5C 128.155,244.856 128.155,247.189 128,249.5C 128.419,248.328 129.085,247.328 130,246.5C 130.342,248.619 131.175,248.953 132.5,247.5 Z"/></g>
<g><path style="opacity:1" fill="#0daba3" d="M 113.5,259.5 C 113.357,257.738 113.691,256.071 114.5,254.5C 113.667,252.833 112.833,251.167 112,249.5C 111.311,252.408 110.145,255.075 108.5,257.5C 107.878,253.777 107.545,249.777 107.5,245.5C 107.351,244.448 107.517,243.448 108,242.5C 108.333,245.5 108.667,248.5 109,251.5C 110.102,249.619 111.435,247.952 113,246.5C 114.261,246.759 115.261,247.426 116,248.5C 118.147,246.521 119.647,244.187 120.5,241.5C 123.031,240.769 123.031,241.269 120.5,243C 120.833,243.333 121.167,243.667 121.5,244C 118.518,249.196 115.851,254.362 113.5,259.5 Z"/></g>
<g><path style="opacity:1" fill="#11bdb3" d="M 158.5,239.5 C 158.5,251.5 158.5,263.5 158.5,275.5C 142.83,275.667 127.163,275.5 111.5,275C 124.358,273.85 137.358,273.017 150.5,272.5C 152.086,270.077 153.086,267.41 153.5,264.5C 152.833,263.833 152.167,263.167 151.5,262.5C 154.366,258.664 153.699,255.497 149.5,253C 150.167,252.667 150.833,252.333 151.5,252C 151.786,250.612 151.452,249.112 150.5,247.5C 150.5,246.833 150.833,246.5 151.5,246.5C 152.573,245.749 152.74,244.749 152,243.5C 151.333,244.833 150.667,244.833 150,243.5C 149.467,239.147 149.801,238.814 151,242.5C 152.193,241.022 152.693,239.688 152.5,238.5C 153.478,238.977 154.311,239.643 155,240.5C 156.011,239.663 157.178,239.33 158.5,239.5 Z"/></g>
</svg>
