<?xml version="1.0" encoding="UTF-8"?>
<!DOCTYPE svg PUBLIC "-//W3C//DTD SVG 1.1//EN" "http://www.w3.org/Graphics/SVG/1.1/DTD/svg11.dtd">
<svg xmlns="http://www.w3.org/2000/svg" version="1.1" width="500px" height="500px" style="shape-rendering:geometricPrecision; text-rendering:geometricPrecision; image-rendering:optimizeQuality; fill-rule:evenodd; clip-rule:evenodd" xmlns:xlink="http://www.w3.org/1999/xlink">
<g><path style="opacity:1" fill="#12beb4" d="M -0.5,-0.5 C 166.167,-0.5 332.833,-0.5 499.5,-0.5C 499.5,166.167 499.5,332.833 499.5,499.5C 332.833,499.5 166.167,499.5 -0.5,499.5C -0.5,332.833 -0.5,166.167 -0.5,-0.5 Z"/></g>
<g><path style="opacity:1" fill="#020807" d="M 321.5,39.5 C 357.868,36.6224 389.535,47.289 416.5,71.5C 418.086,76.0823 416.752,77.2489 412.5,75C 377.658,45.5425 338.658,38.5425 295.5,54C 265.447,67.3787 239.281,86.2121 217,110.5C 157.573,177.516 118.073,255.016 98.5,343C 96.8876,343.72 95.3876,343.554 94,342.5C 92.93,314.396 90.5966,286.396 87,258.5C 86.3027,252.679 84.9693,247.013 83,241.5C 81.1935,236.75 78.8601,236.417 76,240.5C 66.4787,264.397 58.1453,288.73 51,313.5C 50.3198,316.847 48.3198,318.847 45,319.5C 43.013,318.846 41.6797,317.513 41,315.5C 39.8353,307.192 38.8353,298.859 38,290.5C 37.511,256.62 36.011,222.786 33.5,189C 32.0788,183.488 34.0788,180.655 39.5,180.5C 42.7005,221.774 45.0338,263.107 46.5,304.5C 53.4214,284.904 60.2547,265.237 67,245.5C 69.0851,238.605 73.4184,233.939 80,231.5C 81.8882,231.796 83.7216,232.296 85.5,233C 90.3147,239.706 93.148,247.206 94,255.5C 95.7787,273.179 97.612,290.846 99.5,308.5C 123.173,221.942 167.173,147.776 231.5,86C 250.386,69.7166 271.386,56.7166 294.5,47C 303.481,44.0078 312.481,41.5078 321.5,39.5 Z"/></g>
<g><path style="opacity:1" fill="#020807" d="M 425.5,127.5 C 430.741,126.61 433.408,128.777 433.5,134C 433.646,136.034 432.98,137.701 431.5,139C 425.984,140.925 422.651,139.091 421.5,133.5C 421.866,130.744 423.2,128.744 425.5,127.5 Z"/></g>
<g><path style="opacity:1" fill="#030b0a" d="M 219.5,185.5 C 220.833,185.5 222.167,185.5 223.5,185.5C 219.658,205.549 215.491,225.549 211,245.5C 210.333,250.5 210.333,255.5 211,260.5C 212.388,261.554 213.888,261.72 215.5,261C 221.643,257.357 226.643,252.524 230.5,246.5C 224.502,234.652 228.169,229.485 241.5,231C 243.037,232.11 243.703,233.61 243.5,235.5C 240.91,235.604 238.577,234.937 236.5,233.5C 235.558,233.608 234.725,233.941 234,234.5C 232.598,240.348 234.431,244.682 239.5,247.5C 243.797,245.351 248.13,243.185 252.5,241C 254.037,238.72 255.203,236.22 256,233.5C 257.333,232.167 258.667,232.167 260,233.5C 260.202,235.256 260.702,236.922 261.5,238.5C 265.44,235.364 269.774,233.031 274.5,231.5C 277.839,231.499 280.172,232.999 281.5,236C 282.333,236.167 283.167,236.333 284,236.5C 287.556,235.591 291.056,234.591 294.5,233.5C 294.779,228.942 296.612,225.275 300,222.5C 301.497,223.477 302.997,224.477 304.5,225.5C 306.61,224.946 308.61,224.112 310.5,223C 317.091,220.756 319.591,222.923 318,229.5C 316.89,231.037 315.39,231.703 313.5,231.5C 313.5,229.833 313.5,228.167 313.5,226.5C 308.768,227.71 304.934,230.377 302,234.5C 299.079,239.341 296.412,244.341 294,249.5C 292.556,251.155 290.722,251.822 288.5,251.5C 289.022,246.933 290.355,242.6 292.5,238.5C 292.167,238.167 291.833,237.833 291.5,237.5C 288.671,238.747 286.005,240.247 283.5,242C 280.743,246.179 277.743,250.179 274.5,254C 268.336,257.61 261.836,260.443 255,262.5C 249.473,278.749 244.139,295.083 239,311.5C 237.989,312.337 236.822,312.67 235.5,312.5C 240.753,289.698 246.253,267.031 252,244.5C 248.492,246.587 245.158,248.92 242,251.5C 242.335,254.255 243.335,256.922 245,259.5C 245.667,261.5 245.667,263.5 245,265.5C 238.181,272.107 230.014,274.94 220.5,274C 218.012,271.373 217.845,268.54 220,265.5C 224,261.5 228,257.5 232,253.5C 232.667,252.167 232.667,250.833 232,249.5C 227.327,258.342 220.16,264.009 210.5,266.5C 205.981,264.799 203.481,261.465 203,256.5C 197.907,265.286 190.407,269.786 180.5,270C 178.57,267.742 177.07,265.242 176,262.5C 168.382,272.039 158.549,275.872 146.5,274C 144.667,273.5 143.5,272.333 143,270.5C 141.563,261.208 145.063,254.374 153.5,250C 157.072,248.595 160.739,248.262 164.5,249C 167.036,253.03 166.369,256.696 162.5,260C 158.129,261.772 153.629,262.939 149,263.5C 148.104,266.025 148.604,268.192 150.5,270C 155.894,271.033 160.894,270.033 165.5,267C 169.369,263.466 172.869,259.633 176,255.5C 180.687,234.087 185.687,212.754 191,191.5C 193.532,188.628 195.365,188.961 196.5,192.5C 190.876,214.454 186.209,236.621 182.5,259C 181.773,262.549 183.106,264.716 186.5,265.5C 199.147,260.367 205.647,251.033 206,237.5C 210.202,220.023 214.702,202.689 219.5,185.5 Z"/></g>
<g><path style="opacity:1" fill="#030b0a" d="M 407.5,202.5 C 408.5,202.5 409.5,202.5 410.5,202.5C 409.743,209.454 408.409,216.287 406.5,223C 406.833,224.167 407.167,225.333 407.5,226.5C 414.303,222.196 420.97,217.696 427.5,213C 428.944,212.219 430.277,212.386 431.5,213.5C 422.795,220.277 413.961,226.943 405,233.5C 402.222,247.837 398.222,261.837 393,275.5C 388.359,285.575 380.526,291.408 369.5,293C 364.167,293.667 358.833,293.667 353.5,293C 346.559,291.424 343.726,287.257 345,280.5C 347.448,276.385 350.281,272.552 353.5,269C 367.541,256.568 382.041,244.735 397,233.5C 397.781,232.056 397.614,230.723 396.5,229.5C 392.886,233.165 388.553,234.332 383.5,233C 382.845,231.513 381.845,230.347 380.5,229.5C 376.169,234.01 371.002,237.01 365,238.5C 363.564,238.441 362.231,238.108 361,237.5C 360.729,233.046 360.563,228.713 360.5,224.5C 353.312,229.521 347.312,235.688 342.5,243C 339.783,244.033 337.949,243.2 337,240.5C 332.211,245.432 326.544,247.099 320,245.5C 318.076,238.494 319.076,231.827 323,225.5C 324.11,223.963 325.61,223.297 327.5,223.5C 326.495,229.51 325.495,235.51 324.5,241.5C 334.745,238.422 341.579,231.756 345,221.5C 347.222,218.697 349.055,218.863 350.5,222C 349.67,223.465 349.504,224.965 350,226.5C 353.552,223.281 357.385,220.448 361.5,218C 365.181,216.686 367.514,217.853 368.5,221.5C 367.616,225.473 366.949,229.473 366.5,233.5C 372.185,231.561 377.019,228.227 381,223.5C 383.707,210.221 391.873,203.721 405.5,204C 406.416,203.722 407.082,203.222 407.5,202.5 Z"/></g>
<g><path style="opacity:1" fill="#030b0b" d="M 329.5,206.5 C 330.833,206.5 332.167,206.5 333.5,206.5C 333.382,209.688 332.549,212.688 331,215.5C 329.89,217.037 328.39,217.703 326.5,217.5C 326.12,213.429 327.12,209.762 329.5,206.5 Z"/></g>
<g><path style="opacity:1" fill="#12b4ab" d="M 396.5,208.5 C 401.274,209.04 402.608,211.54 400.5,216C 398.122,221.611 394.456,226.111 389.5,229.5C 386.666,227.559 385.832,224.893 387,221.5C 388.735,215.994 391.901,211.661 396.5,208.5 Z"/></g>
<g><path style="opacity:1" fill="#11b1a8" d="M 272.5,235.5 C 273.496,235.414 274.329,235.748 275,236.5C 275.667,238.167 275.667,239.833 275,241.5C 269.833,246 264.667,250.5 259.5,255C 258.365,255.749 257.365,255.583 256.5,254.5C 260.472,246.874 265.805,240.541 272.5,235.5 Z"/></g>
<g><path style="opacity:1" fill="#12bcb2" d="M 393.5,240.5 C 394.765,241.514 395.431,243.014 395.5,245C 393.891,257.281 390.058,268.781 384,279.5C 375.38,288.731 365.213,290.898 353.5,286C 351.876,284.883 350.876,283.383 350.5,281.5C 351.137,278.893 352.304,276.56 354,274.5C 366.769,262.554 379.936,251.22 393.5,240.5 Z"/></g>
<g><path style="opacity:1" fill="#11a89f" d="M 156.5,252.5 C 157.833,252.5 159.167,252.5 160.5,252.5C 160.092,257.895 157.092,260.228 151.5,259.5C 152.002,256.331 153.669,253.998 156.5,252.5 Z"/></g>
<g><path style="opacity:1" fill="#12b4aa" d="M 233.5,257.5 C 238.333,258.168 239.666,260.834 237.5,265.5C 233.8,268.84 229.467,270.174 224.5,269.5C 224.351,268.448 224.517,267.448 225,266.5C 228.038,263.631 230.871,260.631 233.5,257.5 Z"/></g>
<g><path style="opacity:1" fill="#010706" d="M 118.5,394.5 C 119.833,394.5 121.167,394.5 122.5,394.5C 122.177,401.022 122.51,407.355 123.5,413.5C 124.806,414.467 125.473,415.801 125.5,417.5C 122.956,417.896 120.789,417.229 119,415.5C 118.5,408.508 118.334,401.508 118.5,394.5 Z"/></g>
<g><path style="opacity:1" fill="#0c8079" d="M 118.5,394.5 C 119.919,393.549 121.585,393.216 123.5,393.5C 123.5,400.167 123.5,406.833 123.5,413.5C 122.51,407.355 122.177,401.022 122.5,394.5C 121.167,394.5 119.833,394.5 118.5,394.5 Z"/></g>
<g><path style="opacity:1" fill="#010505" d="M 141.5,394.5 C 142.833,394.5 144.167,394.5 145.5,394.5C 145.336,397.187 145.503,399.854 146,402.5C 149.74,399.587 153.074,399.92 156,403.5C 156.499,408.155 156.666,412.821 156.5,417.5C 155.167,417.5 153.833,417.5 152.5,417.5C 152.666,413.486 152.499,409.486 152,405.5C 150,404.167 148,404.167 146,405.5C 145.501,409.486 145.334,413.486 145.5,417.5C 144.167,417.5 142.833,417.5 141.5,417.5C 141.5,409.833 141.5,402.167 141.5,394.5 Z"/></g>
<g><path style="opacity:1" fill="#010706" d="M 292.5,394.5 C 293.833,394.5 295.167,394.5 296.5,394.5C 296.5,402.167 296.5,409.833 296.5,417.5C 294.549,417.773 293.049,417.107 292,415.5C 287.185,418.752 283.518,417.752 281,412.5C 279.178,404.333 282.344,400.5 290.5,401C 291,401.5 291.5,402 292,402.5C 292.497,399.854 292.664,397.187 292.5,394.5 Z"/></g>
<g><path style="opacity:1" fill="#0e8a83" d="M 292.5,394.5 C 293.919,393.549 295.585,393.216 297.5,393.5C 297.826,401.684 297.492,409.684 296.5,417.5C 296.5,409.833 296.5,402.167 296.5,394.5C 295.167,394.5 293.833,394.5 292.5,394.5 Z"/></g>
<g><path style="opacity:1" fill="#030d0c" d="M 336.5,403.5 C 334.833,403.5 333.167,403.5 331.5,403.5C 331.5,408.167 331.5,412.833 331.5,417.5C 330.167,417.5 328.833,417.5 327.5,417.5C 327.995,412.139 327.329,406.972 325.5,402C 326.734,399.021 328.4,396.355 330.5,394C 333.053,393.149 335.386,393.482 337.5,395C 336.045,397.016 334.045,397.849 331.5,397.5C 331.5,398.5 331.5,399.5 331.5,400.5C 333.167,400.5 334.833,400.5 336.5,400.5C 336.5,401.5 336.5,402.5 336.5,403.5 Z"/></g>
<g><path style="opacity:1" fill="#05100f" d="M 58.5,395.5 C 59.8333,395.5 61.1667,395.5 62.5,395.5C 62.5,398.167 62.5,400.833 62.5,403.5C 65.8333,403.5 69.1667,403.5 72.5,403.5C 72.5,400.833 72.5,398.167 72.5,395.5C 74.1667,395.5 75.8333,395.5 77.5,395.5C 77.5,402.833 77.5,410.167 77.5,417.5C 75.8333,417.5 74.1667,417.5 72.5,417.5C 72.5,414.167 72.5,410.833 72.5,407.5C 69.1667,407.5 65.8333,407.5 62.5,407.5C 62.5,410.833 62.5,414.167 62.5,417.5C 61.1667,417.5 59.8333,417.5 58.5,417.5C 58.5,410.167 58.5,402.833 58.5,395.5 Z"/></g>
<g><path style="opacity:1" fill="#020b0a" d="M 254.5,417.5 C 254.666,412.489 254.499,407.489 254,402.5C 253.487,403.527 252.987,404.527 252.5,405.5C 251.568,409.296 250.234,412.963 248.5,416.5C 247.311,417.429 245.978,417.762 244.5,417.5C 240.44,399.3 238.773,399.3 239.5,417.5C 238.167,417.5 236.833,417.5 235.5,417.5C 235.5,410.167 235.5,402.833 235.5,395.5C 237.604,395.201 239.604,395.534 241.5,396.5C 243.333,401.5 245.167,406.5 247,411.5C 248.667,406.5 250.333,401.5 252,396.5C 254.041,395.577 256.208,395.244 258.5,395.5C 258.5,402.833 258.5,410.167 258.5,417.5C 257.167,417.5 255.833,417.5 254.5,417.5 Z"/></g>
<g><path style="opacity:1" fill="#061211" d="M 377.5,396.5 C 379.035,395.212 380.701,395.212 382.5,396.5C 383.803,398.968 385.303,401.301 387,403.5C 388.999,401.507 390.499,399.173 391.5,396.5C 393.074,395.369 394.741,395.202 396.5,396C 391.148,402.2 388.815,409.366 389.5,417.5C 387.833,417.5 386.167,417.5 384.5,417.5C 385.271,409.394 382.938,402.394 377.5,396.5 Z"/></g>
<g><path style="opacity:1" fill="#030b0a" d="M 137.5,403.5 C 135.833,403.5 134.167,403.5 132.5,403.5C 132.187,407.042 132.521,410.375 133.5,413.5C 134.978,413.238 136.311,413.571 137.5,414.5C 138.641,415.425 138.641,416.259 137.5,417C 134.073,418.166 131.407,417.332 129.5,414.5C 129.5,410.833 129.5,407.167 129.5,403.5C 128.5,403.5 127.5,403.5 126.5,403.5C 127.167,401.5 127.833,399.5 128.5,397.5C 129.833,397.5 131.167,397.5 132.5,397.5C 132.5,398.5 132.5,399.5 132.5,400.5C 134.167,400.5 135.833,400.5 137.5,400.5C 137.5,401.5 137.5,402.5 137.5,403.5 Z"/></g>
<g><path style="opacity:1" fill="#050e0d" d="M 96.5,404.5 C 96.5,406.167 96.5,407.833 96.5,409.5C 92.774,409.177 89.1073,409.511 85.5,410.5C 85.6236,411.107 85.9569,411.44 86.5,411.5C 87.2495,413.246 88.5828,414.246 90.5,414.5C 92.155,413.612 93.8217,413.112 95.5,413C 96.727,414.587 96.3937,415.921 94.5,417C 84.9079,419.075 80.7412,415.241 82,405.5C 84.5414,400.931 88.3747,399.431 93.5,401C 94.7101,402.039 95.7101,403.206 96.5,404.5 Z"/></g>
<g><path style="opacity:1" fill="#05100f" d="M 103.5,400.5 C 106.93,400.107 110.096,400.773 113,402.5C 113.193,407.661 114.027,412.661 115.5,417.5C 113.278,417.822 111.444,417.155 110,415.5C 107.24,417.703 104.24,418.036 101,416.5C 99.6986,414.635 99.3653,412.635 100,410.5C 103.104,408.536 106.271,406.87 109.5,405.5C 109,404.119 108,403.453 106.5,403.5C 104.845,404.388 103.178,404.888 101.5,405C 101.043,404.586 100.709,404.086 100.5,403.5C 101.34,402.265 102.34,401.265 103.5,400.5 Z"/></g>
<g><path style="opacity:1" fill="#040f0e" d="M 164.5,400.5 C 167.93,400.107 171.096,400.773 174,402.5C 174.345,404.201 173.678,405.534 172,406.5C 170.192,404.604 168.025,404.104 165.5,405C 163.964,408.24 164.297,411.24 166.5,414C 167.833,414.667 169.167,414.667 170.5,414C 171.068,412.396 172.068,411.73 173.5,412C 174.833,413.333 174.833,414.667 173.5,416C 162.738,419.576 158.571,415.742 161,404.5C 162.376,403.295 163.542,401.962 164.5,400.5 Z"/></g>
<g><path style="opacity:1" fill="#071312" d="M 180.5,400.5 C 184.603,399.769 188.103,400.769 191,403.5C 191.226,408.327 192.06,412.994 193.5,417.5C 190.956,417.896 188.789,417.229 187,415.5C 184,418.167 181,418.167 178,415.5C 177.218,409.941 179.718,407.108 185.5,407C 186.337,405.989 186.67,404.822 186.5,403.5C 183.951,403.387 181.618,404.054 179.5,405.5C 178.348,403.603 178.681,401.936 180.5,400.5 Z"/></g>
<g><path style="opacity:1" fill="#05100f" d="M 212.5,400.5 C 220.703,399.076 224.37,402.409 223.5,410.5C 219.774,410.177 216.107,410.511 212.5,411.5C 214.88,415.132 217.714,415.465 221,412.5C 222.059,412.63 222.892,413.13 223.5,414C 220.566,417.336 216.9,418.336 212.5,417C 207.193,411.428 207.193,405.928 212.5,400.5 Z"/></g>
<g><path style="opacity:1" fill="#030d0c" d="M 266.5,400.5 C 269.807,400.063 272.807,400.73 275.5,402.5C 276.096,407.613 277.096,412.613 278.5,417.5C 276.173,417.753 274.173,417.086 272.5,415.5C 266.109,419.385 262.942,417.719 263,410.5C 265.98,408.465 269.147,406.798 272.5,405.5C 272,404.119 271,403.453 269.5,403.5C 267.845,404.388 266.178,404.888 264.5,405C 264.043,404.586 263.709,404.086 263.5,403.5C 264.34,402.265 265.34,401.265 266.5,400.5 Z"/></g>
<g><path style="opacity:1" fill="#050e0d" d="M 315.5,404.5 C 315.5,406.167 315.5,407.833 315.5,409.5C 311.774,409.177 308.107,409.511 304.5,410.5C 304.624,411.107 304.957,411.44 305.5,411.5C 306.249,413.246 307.583,414.246 309.5,414.5C 311.155,413.612 312.822,413.112 314.5,413C 315.727,414.587 315.394,415.921 313.5,417C 303.908,419.075 299.741,415.241 301,405.5C 303.541,400.931 307.375,399.431 312.5,401C 313.71,402.039 314.71,403.206 315.5,404.5 Z"/></g>
<g><path style="opacity:1" fill="#020a0a" d="M 343.5,400.5 C 354.544,400.841 357.544,406.008 352.5,416C 342.484,419.653 337.984,416.153 339,405.5C 340.025,403.313 341.525,401.646 343.5,400.5 Z"/></g>
<g><path style="opacity:1" fill="#020a0a" d="M 403.5,400.5 C 414.544,400.841 417.544,406.008 412.5,416C 402.484,419.653 397.984,416.153 399,405.5C 400.025,403.313 401.525,401.646 403.5,400.5 Z"/></g>
<g><path style="opacity:1" fill="#020c0b" d="M 196.5,400.5 C 198.451,400.227 199.951,400.893 201,402.5C 202.444,400.845 204.278,400.178 206.5,400.5C 206.5,401.833 206.5,403.167 206.5,404.5C 204.533,404.261 202.699,404.594 201,405.5C 200.501,409.486 200.334,413.486 200.5,417.5C 199.167,417.5 197.833,417.5 196.5,417.5C 196.5,411.833 196.5,406.167 196.5,400.5 Z"/></g>
<g><path style="opacity:1" fill="#0c1a19" d="M 358.5,400.5 C 359.833,400.5 361.167,400.5 362.5,400.5C 362.443,404.133 363.443,404.3 365.5,401C 366.793,400.51 368.127,400.343 369.5,400.5C 369.5,401.833 369.5,403.167 369.5,404.5C 367.533,404.261 365.699,404.594 364,405.5C 363.501,409.486 363.334,413.486 363.5,417.5C 361.833,417.5 360.167,417.5 358.5,417.5C 358.5,411.833 358.5,406.167 358.5,400.5 Z"/></g>
<g><path style="opacity:1" fill="#020807" d="M 418.5,400.5 C 419.833,400.5 421.167,400.5 422.5,400.5C 422.334,404.514 422.501,408.514 423,412.5C 424.916,415.033 426.916,415.033 429,412.5C 429.499,408.514 429.666,404.514 429.5,400.5C 430.833,400.5 432.167,400.5 433.5,400.5C 433.5,406.167 433.5,411.833 433.5,417.5C 431.549,417.773 430.049,417.107 429,415.5C 426.24,417.703 423.24,418.036 420,416.5C 418.603,411.292 418.103,405.959 418.5,400.5 Z"/></g>
<g><path style="opacity:1" fill="#0c7b75" d="M 254.5,417.5 C 253.833,413.5 253.167,409.5 252.5,405.5C 252.987,404.527 253.487,403.527 254,402.5C 254.499,407.489 254.666,412.489 254.5,417.5 Z"/></g>
<g><path style="opacity:1" fill="#064441" d="M 126.5,403.5 C 127.5,403.5 128.5,403.5 129.5,403.5C 129.5,407.167 129.5,410.833 129.5,414.5C 129.007,410.708 128.007,407.042 126.5,403.5 Z"/></g>
<g><path style="opacity:1" fill="#085350" d="M 137.5,403.5 C 136.432,404.434 135.099,404.768 133.5,404.5C 133.5,407.5 133.5,410.5 133.5,413.5C 132.521,410.375 132.187,407.042 132.5,403.5C 134.167,403.5 135.833,403.5 137.5,403.5 Z"/></g>
<g><path style="opacity:1" fill="#10a69d" d="M 214.5,403.5 C 217.95,402.756 219.616,404.09 219.5,407.5C 217.076,407.808 214.743,407.474 212.5,406.5C 213.193,405.482 213.859,404.482 214.5,403.5 Z"/></g>
<g><path style="opacity:1" fill="#11aba2" d="M 287.5,403.5 C 291.062,403.564 292.729,405.397 292.5,409C 292.437,413.745 290.27,415.245 286,413.5C 283.729,409.697 284.229,406.363 287.5,403.5 Z"/></g>
<g><path style="opacity:1" fill="#0a6964" d="M 336.5,403.5 C 335.432,404.434 334.099,404.768 332.5,404.5C 332.818,409.032 332.485,413.366 331.5,417.5C 331.5,412.833 331.5,408.167 331.5,403.5C 333.167,403.5 334.833,403.5 336.5,403.5 Z"/></g>
<g><path style="opacity:1" fill="#11ada4" d="M 345.5,403.5 C 349.062,403.564 350.729,405.397 350.5,409C 350.437,413.745 348.27,415.245 344,413.5C 341.729,409.697 342.229,406.363 345.5,403.5 Z"/></g>
<g><path style="opacity:1" fill="#11ada4" d="M 405.5,403.5 C 409.062,403.564 410.729,405.397 410.5,409C 410.437,413.745 408.27,415.245 404,413.5C 401.729,409.697 402.229,406.363 405.5,403.5 Z"/></g>
<g><path style="opacity:1" fill="#0f9d95" d="M 87.5,403.5 C 90.2776,403.022 92.2776,404.022 93.5,406.5C 91.1667,407.833 88.8333,407.833 86.5,406.5C 87.1272,405.583 87.4606,404.583 87.5,403.5 Z"/></g>
<g><path style="opacity:1" fill="#0f9d95" d="M 306.5,403.5 C 309.278,403.022 311.278,404.022 312.5,406.5C 310.167,407.833 307.833,407.833 305.5,406.5C 306.127,405.583 306.461,404.583 306.5,403.5 Z"/></g>
<g><path style="opacity:1" fill="#08504c" d="M 96.5,404.5 C 97.4614,406.265 97.7947,408.265 97.5,410.5C 93.6286,410.185 89.9619,410.518 86.5,411.5C 85.9569,411.44 85.6236,411.107 85.5,410.5C 89.1073,409.511 92.774,409.177 96.5,409.5C 96.5,407.833 96.5,406.167 96.5,404.5 Z"/></g>
<g><path style="opacity:1" fill="#11b3a9" d="M 107.5,409.5 C 109.344,410.204 109.844,411.537 109,413.5C 107.644,414.38 106.144,414.714 104.5,414.5C 104.5,413.167 104.5,411.833 104.5,410.5C 105.791,410.737 106.791,410.404 107.5,409.5 Z"/></g>
<g><path style="opacity:1" fill="#08504c" d="M 315.5,404.5 C 316.461,406.265 316.795,408.265 316.5,410.5C 312.629,410.185 308.962,410.518 305.5,411.5C 304.957,411.44 304.624,411.107 304.5,410.5C 308.107,409.511 311.774,409.177 315.5,409.5C 315.5,407.833 315.5,406.167 315.5,404.5 Z"/></g>
<g><path style="opacity:1" fill="#11a9a0" d="M 183.5,409.5 C 184.833,409.5 186.167,409.5 187.5,409.5C 187.707,412.127 186.54,413.793 184,414.5C 180.928,413.119 180.761,411.452 183.5,409.5 Z"/></g>
<g><path style="opacity:1" fill="#11aaa1" d="M 268.5,409.5 C 269.833,409.5 271.167,409.5 272.5,409.5C 272.767,411.971 271.767,413.638 269.5,414.5C 265.872,413.564 265.539,411.898 268.5,409.5 Z"/></g>
</svg>
